<svg xmlns="http://www.w3.org/2000/svg" width="51" height="51" fill="none">
    <g filter="url(#a)">
        <path fill="url(#b)" fill-opacity=".8"
              d="M25.5 51c-4.714 0-8.992-1.172-12.834-3.517-3.841-2.345-6.855-5.486-9.04-9.425v7.244H0V31.945h13.296v3.643H6.43c1.748 3.537 4.332 6.383 7.75 8.537 3.42 2.155 7.193 3.232 11.321 3.232 2.96 0 5.736-.55 8.329-1.648 2.592-1.1 4.862-2.6 6.808-4.5 1.947-1.901 3.51-4.146 4.69-6.735 1.178-2.589 1.815-5.378 1.908-8.367h3.625c-.077 3.45-.795 6.685-2.154 9.705-1.36 3.02-3.182 5.659-5.467 7.916-2.286 2.258-4.952 4.034-7.997 5.33C32.197 50.351 28.949 51 25.5 51ZM.14 24.893c.108-3.528.85-6.805 2.224-9.833 1.374-3.029 3.212-5.663 5.513-7.905a25.35 25.35 0 0 1 7.986-5.259C18.884.632 22.097 0 25.5 0c4.668 0 8.946 1.176 12.834 3.529 3.888 2.352 6.901 5.52 9.04 9.506V5.698H51v13.357H37.704v-3.643h6.867c-1.702-3.475-4.266-6.305-7.692-8.49-3.427-2.186-7.22-3.28-11.379-3.28-2.898 0-5.64.543-8.224 1.626-2.585 1.084-4.858 2.568-6.82 4.453-1.962 1.885-3.544 4.123-4.747 6.711-1.203 2.59-1.85 5.41-1.944 8.46H.14Z"/>
        <path stroke="url(#c)" stroke-width=".64"
              d="m3.906 37.903-.6-1.081v8.16H.32V32.265h12.656v3.003H5.914l.229.461c1.774 3.592 4.398 6.482 7.866 8.667 3.47 2.188 7.304 3.281 11.491 3.281 3 0 5.82-.557 8.454-1.674 2.628-1.114 4.93-2.636 6.907-4.565 1.976-1.93 3.561-4.208 4.756-6.831 1.157-2.54 1.799-5.267 1.926-8.18h2.988c-.113 3.286-.82 6.37-2.117 9.254-1.343 2.985-3.144 5.59-5.4 7.82-2.257 2.228-4.888 3.982-7.897 5.262-3.004 1.277-6.209 1.917-9.617 1.917-4.658 0-8.878-1.158-12.667-3.47l-.167.273.167-.273c-3.794-2.316-6.769-5.417-8.927-9.307Zm43.788-24.868V6.018h2.986v12.717H38.024v-3.003h7.06l-.226-.46c-1.729-3.53-4.334-6.405-7.807-8.62-3.48-2.22-7.332-3.33-11.551-3.33-2.939 0-5.723.55-8.348 1.651-2.62 1.098-4.927 2.604-6.918 4.517-1.992 1.914-3.597 4.184-4.815 6.807-1.181 2.543-1.835 5.303-1.962 8.276H.47c.143-3.362.871-6.488 2.184-9.381 1.359-2.993 3.174-5.595 5.446-7.808a25.03 25.03 0 0 1 7.885-5.193C18.967.944 22.138.32 25.5.32c4.611 0 8.832 1.161 12.668 3.482l.166-.273-.166.274c3.84 2.322 6.813 5.449 8.924 9.384l.602-.152Z"/>
    </g>
    <path fill="url(#d)"
          d="M19.46 32.225c-1.74 0-3.215-.61-4.423-1.828-1.208-1.22-1.812-2.69-1.812-4.413 0-1.723.606-3.192 1.818-4.409 1.213-1.217 2.681-1.825 4.406-1.825.7 0 1.376.12 2.026.363.65.241 1.233.604 1.75 1.087l1.325 1.15-2.55 2.3-1.05-.925a2.294 2.294 0 0 0-1.511-.575c-.793 0-1.46.275-2.002.825-.542.55-.812 1.224-.812 2.021 0 .798.27 1.468.811 2.013.541.544 1.209.816 2.002.816a2.295 2.295 0 0 0 1.508-.57l7.829-7.055a5.173 5.173 0 0 1 1.755-1.087 5.751 5.751 0 0 1 2.01-.363c1.74 0 3.214.61 4.422 1.828 1.208 1.22 1.813 2.686 1.813 4.4 0 1.731-.607 3.205-1.819 4.422-1.212 1.217-2.681 1.825-4.406 1.825-.7 0-1.375-.12-2.025-.363a5.392 5.392 0 0 1-1.75-1.062l-1.325-1.15 2.55-2.3 1.05.9a2.294 2.294 0 0 0 1.511.575c.792 0 1.46-.275 2.001-.824.542-.55.813-1.22.813-2.013 0-.792-.27-1.463-.812-2.013-.541-.55-1.208-.825-2.002-.825a2.296 2.296 0 0 0-1.508.572L23.225 30.8a5.377 5.377 0 0 1-1.756 1.063 5.752 5.752 0 0 1-2.009.362Z"/>
    <path stroke="url(#e)" stroke-opacity=".5" stroke-width=".24"
          d="M23.143 21.288a5.065 5.065 0 0 0-1.71-1.063 5.644 5.644 0 0 0-1.984-.355c-1.693 0-3.131.596-4.32 1.79m8.014-.372-1.674 10.575m1.674-10.575.003.003 1.223 1.06-2.37 2.138-.97-.853a2.415 2.415 0 0 0-1.591-.606c-.823 0-1.522.287-2.086.861-.565.574-.847 1.278-.847 2.106 0 .827.282 1.529.846 2.096.565.568 1.263.852 2.087.852a2.416 2.416 0 0 0 1.588-.601l7.829-7.055.002-.001a5.05 5.05 0 0 1 1.715-1.063 5.63 5.63 0 0 1 1.967-.355c1.709 0 3.152.597 4.338 1.793s1.778 2.632 1.778 4.315c0 1.7-.594 3.143-1.784 4.337s-2.628 1.79-4.321 1.79a5.644 5.644 0 0 1-1.984-.355 5.27 5.27 0 0 1-1.711-1.04h-.002l-1.222-1.062L30 27.51l.969.83a2.415 2.415 0 0 0 1.59.605c.825 0 1.523-.287 2.088-.86.564-.572.847-1.274.847-2.097 0-.822-.283-1.524-.846-2.097-.565-.574-1.263-.861-2.088-.861a2.416 2.416 0 0 0-1.588.603l.08.088-.08-.088m-7.83-2.345 7.83 2.345M15.127 21.66l-.085-.085.085.085Zm0 0c-1.19 1.194-1.783 2.633-1.783 4.324 0 1.692.591 3.132 1.777 4.328 1.186 1.196 2.63 1.793 4.338 1.793.67 0 1.326-.118 1.967-.355m0 0 .042.113m-.042-.113.042.113m-.042-.113a5.254 5.254 0 0 0 1.717-1.04m-1.675 1.152a5.377 5.377 0 0 0 1.756-1.062m-.08-.09v.001l.08.089m-.08-.09 7.827-7.077m-7.828 7.078.08.089m0 0 7.748-7.167"/>
    <path stroke="url(#f)" stroke-opacity=".5" stroke-width=".24"
          d="M23.143 21.288a5.065 5.065 0 0 0-1.71-1.063 5.644 5.644 0 0 0-1.984-.355c-1.693 0-3.131.596-4.32 1.79m8.014-.372-1.674 10.575m1.674-10.575.003.003 1.223 1.06-2.37 2.138-.97-.853a2.415 2.415 0 0 0-1.591-.606c-.823 0-1.522.287-2.086.861-.565.574-.847 1.278-.847 2.106 0 .827.282 1.529.846 2.096.565.568 1.263.852 2.087.852a2.416 2.416 0 0 0 1.588-.601l7.829-7.055.002-.001a5.05 5.05 0 0 1 1.715-1.063 5.63 5.63 0 0 1 1.967-.355c1.709 0 3.152.597 4.338 1.793s1.778 2.632 1.778 4.315c0 1.7-.594 3.143-1.784 4.337s-2.628 1.79-4.321 1.79a5.644 5.644 0 0 1-1.984-.355 5.27 5.27 0 0 1-1.711-1.04h-.002l-1.222-1.062L30 27.51l.969.83a2.415 2.415 0 0 0 1.59.605c.825 0 1.523-.287 2.088-.86.564-.572.847-1.274.847-2.097 0-.822-.283-1.524-.846-2.097-.565-.574-1.263-.861-2.088-.861a2.416 2.416 0 0 0-1.588.603l.08.088-.08-.088m-7.83-2.345 7.83 2.345M15.127 21.66l-.085-.085.085.085Zm0 0c-1.19 1.194-1.783 2.633-1.783 4.324 0 1.692.591 3.132 1.777 4.328 1.186 1.196 2.63 1.793 4.338 1.793.67 0 1.326-.118 1.967-.355m0 0 .042.113m-.042-.113.042.113m-.042-.113a5.254 5.254 0 0 0 1.717-1.04m-1.675 1.152a5.377 5.377 0 0 0 1.756-1.062m-.08-.09v.001l.08.089m-.08-.09 7.827-7.077m-7.828 7.078.08.089m0 0 7.748-7.167"/>
    <defs>
        <linearGradient id="b" x1="25.5" x2="26" y1="-.001" y2="83" gradientUnits="userSpaceOnUse">
            <stop stop-color="#2D2E31"/>
            <stop offset="1" stop-color="#2D2E31"/>
        </linearGradient>
        <linearGradient id="c" x1="25.382" x2="23.352" y1="-7.887" y2="21.634" gradientUnits="userSpaceOnUse">
            <stop stop-color="#fff" stop-opacity=".32"/>
            <stop offset=".584" stop-color="#fff" stop-opacity=".24"/>
            <stop offset="1" stop-color="#fff" stop-opacity="0"/>
        </linearGradient>
        <linearGradient id="e" x1="35.85" x2="35.898" y1="22.468" y2="20.419" gradientUnits="userSpaceOnUse">
            <stop stop-color="#5B53BE" stop-opacity="0"/>
            <stop offset="1" stop-color="#CCC8FF"/>
        </linearGradient>
        <linearGradient id="f" x1="34.119" x2="33" y1="32.225" y2="27.744" gradientUnits="userSpaceOnUse">
            <stop stop-color="#fff"/>
            <stop offset=".398" stop-color="#CCC8FF"/>
            <stop offset="1" stop-color="#5B53BE" stop-opacity="0"/>
        </linearGradient>
        <radialGradient id="d" cx="0" cy="0" r="1"
                        gradientTransform="matrix(73.47091 8.54367 -20.10117 172.85918 -8.675 21.793)"
                        gradientUnits="userSpaceOnUse">
            <stop offset=".014" stop-color="#9B84FF"/>
            <stop offset="1" stop-color="#321E99"/>
        </radialGradient>
        <filter id="a" width="92.667" height="92.667" x="-20.833" y="-20.833" color-interpolation-filters="sRGB"
                filterUnits="userSpaceOnUse">
            <feFlood flood-opacity="0" result="BackgroundImageFix"/>
            <feGaussianBlur in="BackgroundImageFix" stdDeviation="10.417"/>
            <feComposite in2="SourceAlpha" operator="in" result="effect1_backgroundBlur_2064_16112"/>
            <feBlend in="SourceGraphic" in2="effect1_backgroundBlur_2064_16112" result="shape"/>
        </filter>
    </defs>
</svg>