<svg xmlns="http://www.w3.org/2000/svg" width="53" height="58" fill="none">
    <path fill="url(#a)"
          d="m44.333 57.583-3.875-3.875V41.696a8.901 8.901 0 0 1-4.65-3.197C34.603 36.927 34 35.109 34 33.042c0-2.498.883-4.629 2.648-6.394C38.413 24.883 40.544 24 43.042 24c2.497 0 4.628.883 6.393 2.648 1.766 1.765 2.648 3.896 2.648 6.394 0 1.937-.549 3.66-1.646 5.166-1.098 1.507-2.487 2.584-4.166 3.23l3.229 3.229-3.875 3.875 3.875 3.875-5.167 5.166Zm-1.291-23.25c.732 0 1.345-.247 1.84-.742.495-.495.743-1.11.743-1.841 0-.732-.248-1.346-.743-1.84-.495-.496-1.108-.743-1.84-.743s-1.346.247-1.841.742c-.495.495-.743 1.11-.743 1.841 0 .732.248 1.346.743 1.84.495.496 1.109.743 1.84.743Z"/>
    <path stroke="url(#b)" stroke-opacity=".5" stroke-width=".64"
          d="m46.045 41.664 3.002 3.003-3.648 3.648-.227.227.227.226 3.648 3.649-4.714 4.714-3.555-3.555V41.456l-.229-.067a8.581 8.581 0 0 1-4.487-3.085c-1.16-1.513-1.742-3.263-1.742-5.262 0-2.413.849-4.463 2.554-6.168 1.705-1.705 3.755-2.554 6.168-2.554 2.412 0 4.462.849 6.167 2.554 1.705 1.705 2.554 3.755 2.554 6.168 0 1.872-.529 3.528-1.585 4.978-1.063 1.459-2.403 2.496-4.022 3.119l-.46.177.349.348Zm-3.003-7.01c.812 0 1.508-.279 2.067-.837.558-.558.836-1.255.836-2.067 0-.813-.278-1.509-.836-2.067-.559-.558-1.255-.836-2.067-.836-.813 0-1.51.278-2.067.836-.558.558-.837 1.255-.837 2.067 0 .813.279 1.509.837 2.067.558.558 1.254.836 2.067.836Z"/>
    <path stroke="url(#c)" stroke-opacity=".5" stroke-width=".64"
          d="m46.045 41.664 3.002 3.003-3.648 3.648-.227.227.227.226 3.648 3.649-4.714 4.714-3.555-3.555V41.456l-.229-.067a8.581 8.581 0 0 1-4.487-3.085c-1.16-1.513-1.742-3.263-1.742-5.262 0-2.413.849-4.463 2.554-6.168 1.705-1.705 3.755-2.554 6.168-2.554 2.412 0 4.462.849 6.167 2.554 1.705 1.705 2.554 3.755 2.554 6.168 0 1.872-.529 3.528-1.585 4.978-1.063 1.459-2.403 2.496-4.022 3.119l-.46.177.349.348Zm-3.003-7.01c.812 0 1.508-.279 2.067-.837.558-.558.836-1.255.836-2.067 0-.813-.278-1.509-.836-2.067-.559-.558-1.255-.836-2.067-.836-.813 0-1.51.278-2.067.836-.558.558-.837 1.255-.837 2.067 0 .813.279 1.509.837 2.067.558.558 1.254.836 2.067.836Z"/>
    <g filter="url(#d)">
        <path fill="url(#e)" fill-opacity=".8"
              d="M0 51v-8.925c0-1.806.437-3.466 1.31-4.98.875-1.514 2.035-2.67 3.484-3.467 3.095-1.647 6.241-2.882 9.437-3.705a38.865 38.865 0 0 1 9.737-1.235 37.645 37.645 0 0 1 5.991.478c-.2 3.08.325 5.99 1.573 8.725 1.249 2.736 3.071 4.98 5.468 6.734V51H0Zm23.968-25.5c-3.296 0-6.117-1.248-8.464-3.745-2.347-2.497-3.52-5.499-3.52-9.005 0-3.506 1.173-6.508 3.52-9.005C17.851 1.248 20.672 0 23.968 0c3.295 0 6.116 1.248 8.463 3.745 2.347 2.497 3.52 5.499 3.52 9.005 0 3.506-1.173 6.508-3.52 9.005-2.347 2.497-5.168 3.745-8.463 3.745Z"/>
        <path stroke="url(#f)" stroke-width=".64"
              d="M.32 50.68v-8.605c0-1.752.423-3.357 1.268-4.82.846-1.466 1.965-2.579 3.358-3.346 3.074-1.635 6.196-2.86 9.365-3.676a38.549 38.549 0 0 1 9.657-1.226 37.337 37.337 0 0 1 5.655.43c-.152 3.025.387 5.889 1.618 8.587 1.248 2.735 3.062 4.991 5.439 6.762v5.894H.32Zm23.648-25.5c-3.204 0-5.942-1.21-8.23-3.645-2.29-2.436-3.434-5.358-3.434-8.785 0-3.427 1.144-6.35 3.433-8.786C18.027 1.53 20.764.32 23.967.32c3.204 0 5.942 1.21 8.231 3.644 2.29 2.436 3.433 5.36 3.433 8.786 0 3.427-1.143 6.35-3.433 8.785-2.29 2.436-5.027 3.645-8.23 3.645Z"/>
    </g>
    <defs>
        <linearGradient id="b" x1="50.013" x2="50.507" y1="31.317" y2="25.841" gradientUnits="userSpaceOnUse">
            <stop stop-color="#5B53BE" stop-opacity="0"/>
            <stop offset="1" stop-color="#CCC8FF"/>
        </linearGradient>
        <linearGradient id="c" x1="48.788" x2="42.389" y1="57.583" y2="50.845" gradientUnits="userSpaceOnUse">
            <stop stop-color="#fff"/>
            <stop offset=".398" stop-color="#CCC8FF"/>
            <stop offset="1" stop-color="#5B53BE" stop-opacity="0"/>
        </linearGradient>
        <linearGradient id="e" x1="18.5" x2="18.5" y1="-.001" y2="50.999" gradientUnits="userSpaceOnUse">
            <stop stop-color="#2D2E31"/>
            <stop offset="1" stop-color="#2D2E31" stop-opacity=".64"/>
        </linearGradient>
        <linearGradient id="f" x1="18.415" x2="15.629" y1="-7.887" y2="21.509" gradientUnits="userSpaceOnUse">
            <stop stop-color="#fff" stop-opacity=".32"/>
            <stop offset=".584" stop-color="#fff" stop-opacity=".24"/>
            <stop offset="1" stop-color="#fff" stop-opacity="0"/>
        </linearGradient>
        <radialGradient id="a" cx="0" cy="0" r="1" gradientTransform="rotate(23.86 -60.562 58.53) scale(56.8595 431.33)"
                        gradientUnits="userSpaceOnUse">
            <stop offset=".014" stop-color="#9B84FF"/>
            <stop offset="1" stop-color="#321E99"/>
        </radialGradient>
        <filter id="d" width="78.667" height="92.667" x="-20.833" y="-20.833" color-interpolation-filters="sRGB"
                filterUnits="userSpaceOnUse">
            <feFlood flood-opacity="0" result="BackgroundImageFix"/>
            <feGaussianBlur in="BackgroundImageFix" stdDeviation="10.417"/>
            <feComposite in2="SourceAlpha" operator="in" result="effect1_backgroundBlur_2064_16101"/>
            <feBlend in="SourceGraphic" in2="effect1_backgroundBlur_2064_16101" result="shape"/>
        </filter>
    </defs>
</svg>