<svg width="103" height="41" viewBox="0 0 103 41" fill="none" xmlns="http://www.w3.org/2000/svg">
<rect x="24.7026" y="10.3281" width="3.42857" height="27.77" transform="rotate(45 24.7026 10.3281)" fill="white"/>
<rect x="17.1162" y="19.884" width="3.42857" height="13.885" transform="rotate(135 17.1162 19.884)" fill="white"/>
<rect x="26.9341" y="29.7024" width="3.42857" height="7.84805" transform="rotate(135 26.9341 29.7024)" fill="white" fill-opacity="0.8"/>
<path d="M36.3965 25.5L39.393 20.8265L36.5655 16.4H38.0215L40.277 19.9425L42.7015 16.4H44.1055L41.109 20.8655L44.203 25.5H42.7405L40.225 21.7235L37.8135 25.5H36.3965ZM53.9735 25.695C53.2455 25.695 52.5738 25.5845 51.9585 25.3635C51.3432 25.1382 50.8058 24.8197 50.3465 24.408C49.8915 23.992 49.5383 23.4937 49.287 22.913C49.0357 22.3323 48.91 21.6845 48.91 20.9695C48.91 20.2502 49.0313 19.6002 49.274 19.0195C49.5167 18.4345 49.8568 17.9318 50.2945 17.5115C50.7365 17.0912 51.2565 16.7683 51.8545 16.543C52.4525 16.3177 53.109 16.205 53.824 16.205C54.1533 16.205 54.4848 16.2332 54.8185 16.2895C55.1522 16.3415 55.4772 16.426 55.7935 16.543C56.1098 16.66 56.4045 16.816 56.6775 17.011L56.1315 17.9795C55.7935 17.7628 55.4273 17.6025 55.033 17.4985C54.6387 17.3902 54.2357 17.336 53.824 17.336C53.2737 17.336 52.7732 17.4205 52.3225 17.5895C51.8718 17.7585 51.4862 18.0012 51.1655 18.3175C50.8448 18.6295 50.5978 19.0087 50.4245 19.455C50.2555 19.9013 50.171 20.4018 50.171 20.9565C50.171 21.7278 50.3335 22.3865 50.6585 22.9325C50.9835 23.4742 51.4342 23.888 52.0105 24.174C52.5912 24.46 53.2628 24.603 54.0255 24.603C54.4198 24.603 54.7708 24.5662 55.0785 24.4925C55.3862 24.4145 55.6288 24.3257 55.8065 24.226V21.834H53.6745V20.794H56.918V24.915C56.6927 25.0753 56.4045 25.214 56.0535 25.331C55.7025 25.448 55.3385 25.5368 54.9615 25.5975C54.5888 25.6625 54.2595 25.695 53.9735 25.695ZM63.1382 25.5V16.4H66.4922C67.1075 16.4 67.6384 16.5083 68.0847 16.725C68.5354 16.9417 68.882 17.2515 69.1247 17.6545C69.3717 18.0532 69.4952 18.5233 69.4952 19.065C69.4952 19.52 69.3955 19.923 69.1962 20.274C68.9969 20.6207 68.7152 20.9045 68.3512 21.1255C67.9872 21.3465 67.5625 21.4938 67.0772 21.5675L69.9177 25.5H68.4227L65.7447 21.7235H64.3602V25.5H63.1382ZM64.3602 20.677H66.2582C66.8909 20.677 67.3827 20.5405 67.7337 20.2675C68.089 19.9945 68.2667 19.6088 68.2667 19.1105C68.2667 18.5992 68.1107 18.1962 67.7987 17.9015C67.4867 17.6068 67.0144 17.4595 66.3817 17.4595H64.3602V20.677ZM74.5292 25.5L78.1107 16.4H79.3782L83.0702 25.5H81.6922L80.7887 23.2185H76.7327L75.8682 25.5H74.5292ZM77.0772 22.1525H80.4312L78.7152 17.9145L77.0772 22.1525ZM88.3562 25.5V16.4H89.5457L93.3417 22.5425H92.8737L96.5397 16.4H97.6967V25.5H96.5007L96.5137 18.064L96.7542 18.142L93.5042 23.4525H92.5617L89.2727 18.142L89.4612 18.064L89.4742 25.5H88.3562Z" fill="url(#paint0_linear_2947_914)"/>
<defs>
<linearGradient id="paint0_linear_2947_914" x1="99" y1="19.2857" x2="75.9402" y2="-11.0982" gradientUnits="userSpaceOnUse">
<stop stop-color="#A999FF"/>
<stop offset="0.762414" stop-color="#585AD1"/>
</linearGradient>
</defs>
</svg>
