<svg width="24" height="24" viewBox="0 0 24 24" fill="none" xmlns="http://www.w3.org/2000/svg">
<rect x="0.5" y="0.5" width="23" height="23" rx="11.5" stroke="white"/>
<path d="M12 8C10.8954 8 10 8.89543 10 10C10 11.1046 10.8954 12 12 12C13.1046 12 14 11.1046 14 10C14 8.89543 13.1046 8 12 8ZM9 10C9 8.34315 10.3431 7 12 7C13.6569 7 15 8.34315 15 10C15 11.6569 13.6569 13 12 13C10.3431 13 9 11.6569 9 10ZM10 15C9.17157 15 8.5 15.6716 8.5 16.5C8.5 16.7761 8.27614 17 8 17C7.72386 17 7.5 16.7761 7.5 16.5C7.5 15.1193 8.61929 14 10 14H14C15.3807 14 16.5 15.1193 16.5 16.5C16.5 16.7761 16.2761 17 16 17C15.7239 17 15.5 16.7761 15.5 16.5C15.5 15.6716 14.8284 15 14 15H10Z" fill="white"/>
</svg>
