<svg xmlns="http://www.w3.org/2000/svg" width="99" height="25" fill="none">
    <path fill="#BEBEBE"
          d="M26.267 9.262h9.89v1.841h-3.894v10.379h-2.135V11.103H26.25l.017-1.841Zm9.466 3.373h1.825v1.71h.033c.065-.244.179-.472.342-.7.163-.228.358-.44.603-.62.228-.195.488-.341.782-.456.277-.114.57-.179.863-.179.228 0 .391.016.473.016.081.017.179.033.26.033v1.874c-.13-.033-.277-.049-.423-.065-.147-.017-.277-.033-.424-.033a2.26 2.26 0 0 0-.929.196c-.293.13-.537.325-.765.57-.212.26-.391.57-.522.945-.13.375-.195.815-.195 1.303v4.204H35.7l.032-8.798Zm14.143 8.847h-1.923v-1.238h-.033c-.244.456-.602.798-1.075 1.075a2.838 2.838 0 0 1-1.45.407c-1.157 0-2.004-.277-2.525-.863-.522-.57-.782-1.45-.782-2.607v-5.621h1.955v5.425c0 .782.146 1.336.456 1.646.293.326.717.489 1.255.489.407 0 .749-.066 1.026-.196s.505-.293.668-.505c.18-.212.293-.472.375-.766a3.62 3.62 0 0 0 .114-.961v-5.132h1.955v8.847h-.016Zm3.324-2.835c.065.57.276.961.651 1.206.375.228.831.342 1.353.342.179 0 .39-.017.619-.05.228-.032.456-.08.651-.162.212-.082.375-.196.506-.358a.834.834 0 0 0 .179-.604c-.017-.244-.098-.456-.277-.619-.18-.163-.391-.277-.652-.39-.26-.098-.57-.18-.912-.245-.343-.065-.685-.147-1.043-.228-.359-.082-.717-.18-1.06-.293a3.036 3.036 0 0 1-.912-.473 2.034 2.034 0 0 1-.635-.75c-.163-.309-.244-.667-.244-1.124 0-.488.114-.88.358-1.205.228-.326.538-.587.896-.782a4.066 4.066 0 0 1 1.206-.424 6.9 6.9 0 0 1 1.254-.114c.457 0 .897.049 1.304.146.407.098.798.245 1.124.473.342.212.62.505.831.847.228.342.358.766.424 1.255h-2.037c-.098-.473-.31-.782-.635-.945a2.625 2.625 0 0 0-1.157-.245c-.13 0-.31.017-.489.033a2.879 2.879 0 0 0-.538.13c-.163.066-.31.163-.423.277a.652.652 0 0 0-.18.473c0 .244.082.424.245.57.163.147.375.26.652.375.26.098.57.18.912.244.342.066.7.147 1.059.228.359.082.7.18 1.043.294.342.114.652.26.912.472.261.196.49.44.652.733.163.294.244.668.244 1.092 0 .521-.114.961-.358 1.336a3.048 3.048 0 0 1-.929.896 4.601 4.601 0 0 1-1.27.505 6.824 6.824 0 0 1-1.386.163 5.835 5.835 0 0 1-1.547-.195 3.941 3.941 0 0 1-1.239-.57 2.737 2.737 0 0 1-.814-.962c-.196-.374-.31-.83-.326-1.368h1.971v.016h.017Zm6.435-6.012h1.483V9.963h1.955v2.655h1.76v1.45h-1.76v4.726c0 .211.017.374.033.537.016.147.065.277.114.375.065.098.163.18.277.228.13.049.293.081.521.081.13 0 .277 0 .408-.016.13-.016.276-.032.407-.065v1.515a8.442 8.442 0 0 1-.635.066c-.212.032-.408.032-.636.032-.521 0-.929-.049-1.238-.147a1.78 1.78 0 0 1-.733-.423 1.516 1.516 0 0 1-.359-.7 5.569 5.569 0 0 1-.114-.978v-5.214h-1.483v-1.483.033Zm6.566 0h1.842v1.205h.032c.277-.521.652-.88 1.14-1.108a3.694 3.694 0 0 1 1.597-.342c.701 0 1.304.114 1.825.375.522.244.945.57 1.287 1.01.343.424.603.929.766 1.5.163.57.261 1.189.261 1.824a6.69 6.69 0 0 1-.228 1.727c-.163.554-.391 1.06-.7 1.483-.31.423-.701.766-1.19 1.026s-1.043.391-1.695.391c-.277 0-.57-.032-.847-.081a3.604 3.604 0 0 1-.814-.245 2.92 2.92 0 0 1-.717-.44 2.484 2.484 0 0 1-.554-.619h-.033v4.416h-1.955V12.635H66.2Zm6.827 4.431c0-.39-.049-.782-.163-1.156a2.95 2.95 0 0 0-.472-.994 2.604 2.604 0 0 0-.766-.7c-.31-.18-.668-.262-1.059-.262-.815 0-1.434.277-1.857.848-.408.57-.62 1.336-.62 2.28 0 .457.05.864.163 1.239.114.375.261.7.49.978.211.277.472.488.781.651.31.163.652.245 1.06.245.456 0 .814-.098 1.124-.277.31-.18.554-.424.765-.7.196-.294.343-.62.424-.995.082-.39.13-.766.13-1.157Zm3.438-7.804h1.956v1.841h-1.956V9.262Zm0 3.373h1.956v8.847h-1.956v-8.847Zm3.699-3.373h1.955v12.22h-1.955V9.262Zm7.918 12.464c-.7 0-1.336-.114-1.89-.358a4.289 4.289 0 0 1-1.4-.961 4.187 4.187 0 0 1-.865-1.483 5.796 5.796 0 0 1-.309-1.874c0-.668.098-1.287.31-1.857.195-.57.488-1.06.863-1.483a3.907 3.907 0 0 1 1.401-.961 4.944 4.944 0 0 1 1.89-.359c.701 0 1.336.114 1.89.359.554.228 1.01.554 1.401.961.375.407.668.912.864 1.483a5.7 5.7 0 0 1 .31 1.857c0 .684-.098 1.304-.31 1.874a4.607 4.607 0 0 1-.864 1.483 3.907 3.907 0 0 1-1.4.96 4.886 4.886 0 0 1-1.89.36Zm0-1.548c.424 0 .815-.097 1.125-.277.326-.179.57-.423.782-.716.211-.294.358-.636.456-.994a4.467 4.467 0 0 0 0-2.265 2.923 2.923 0 0 0-.456-.994 2.476 2.476 0 0 0-.782-.7 2.3 2.3 0 0 0-1.125-.278c-.423 0-.814.098-1.124.277-.326.18-.57.424-.782.7-.212.294-.358.62-.456.995a4.436 4.436 0 0 0 0 2.265c.098.374.244.7.456.994.212.293.472.537.782.716.326.196.7.277 1.124.277Zm5.051-7.543h1.483V9.963h1.955v2.655h1.76v1.45h-1.76v4.726c0 .211.016.374.033.537.016.147.065.277.114.375a.64.64 0 0 0 .277.228c.13.049.293.081.52.081.131 0 .278 0 .408-.016.13-.016.278-.032.408-.065v1.515a8.498 8.498 0 0 1-.635.066c-.212.032-.408.032-.636.032-.521 0-.929-.049-1.238-.147a1.774 1.774 0 0 1-.733-.423 1.507 1.507 0 0 1-.359-.7 5.541 5.541 0 0 1-.114-.978v-5.214h-1.483v-1.483.033Z"/>
    <path fill="#00B67A"
          d="M15.04 9.262h8.945l-5.056 3.667-.003-.008-5.085 3.693 3.313-.86 2.35 7.26-7.233-5.263-7.235 5.262 2.77-8.505L.572 9.246l8.945.016 2.77-8.505 2.753 8.505Z"/>
</svg>