<svg width="30" height="30" viewBox="0 0 30 30" fill="none" xmlns="http://www.w3.org/2000/svg">
<path d="M15 29.9439C23.2843 29.9439 30 23.2407 30 14.9719C30 6.70316 23.2843 0 15 0C6.71573 0 0 6.70316 0 14.9719C0 23.2407 6.71573 29.9439 15 29.9439Z" fill="white"/>
<path style="mix-blend-mode:darken" opacity="0.05" d="M15 30C23.2843 30 30 23.2968 30 15.0281C30 6.75931 23.2843 0.0561523 15 0.0561523C6.71573 0.0561523 0 6.75931 0 15.0281C0 23.2968 6.71573 30 15 30Z" fill="url(#paint0_linear)"/>
<path d="M27.1312 13.1004C26.6454 10.5597 25.3359 8.24884 23.4047 6.52407C21.4734 4.79931 19.0274 3.75633 16.4437 3.55584C14.1555 3.32724 11.8521 3.80404 9.84371 4.92203C8.17705 5.81256 6.75183 7.09353 5.69042 8.65495C4.62901 10.2164 3.96314 12.0116 3.74996 13.8865C3.74996 14.2233 3.74996 14.5789 3.61871 14.9158V15.8141C3.61871 16.1697 3.61871 16.5253 3.74996 16.8809C4.07785 19.4525 5.23923 21.8466 7.05705 23.6982C8.87487 25.5498 11.2494 26.7573 13.8187 27.1366L15.0937 27.2863H16.3687C17.0812 27.1741 17.8125 27.1366 18.4875 26.9495C21.4343 26.1906 23.9757 24.3291 25.5849 21.7508C27.1941 19.1725 27.7478 16.0751 27.1312 13.1004V13.1004ZM23.6812 18.7149C23.0822 19.0923 22.4554 19.4238 21.8062 19.7068C20.434 20.4603 19.1722 21.3986 18.0562 22.4953C17.775 22.7573 17.475 23.0006 17.1562 23.2439C16.602 23.7028 15.9271 23.9927 15.2123 24.079C14.4974 24.1652 13.7728 24.0443 13.125 23.7305C12.198 23.3728 11.3645 22.8097 10.6875 22.0836C10.5899 21.9874 10.4659 21.9223 10.3312 21.8965C9.50244 21.7584 8.70342 21.4799 7.96871 21.073L7.76246 20.942C7.6165 20.8336 7.47864 20.7148 7.34996 20.5864L7.19996 20.4367L7.06871 20.287L6.97496 20.156C6.75377 19.8347 6.60065 19.4717 6.52496 19.0892V18.8834C6.51006 18.684 6.51006 18.4838 6.52496 18.2845C6.50797 18.0415 6.50797 17.7976 6.52496 17.5546V16.4878L6.67496 16.1135C7.26254 14.7074 7.68413 13.2377 7.93121 11.7343C8.04295 11.1797 8.19972 10.6352 8.39996 10.1061C8.56702 9.60794 8.87254 9.1675 9.28089 8.83613C9.68924 8.50477 10.1836 8.29613 10.7062 8.23457C11.0076 8.16663 11.3161 8.13521 11.625 8.14099C11.9007 8.19007 12.1846 8.16575 12.4479 8.07047C12.7112 7.97519 12.9448 7.81231 13.125 7.59826C13.7063 7.10991 14.4364 6.83288 15.1959 6.81248C15.9554 6.79208 16.6994 7.02952 17.3062 7.48597C18.5292 8.27004 19.9135 8.76898 21.3562 8.94573C21.8437 8.94573 22.3312 9.09545 22.8 9.18903C23.2671 9.29596 23.6858 9.55391 23.991 9.9228C24.2961 10.2917 24.4707 10.7509 24.4875 11.229C24.5096 11.9671 24.3952 12.7031 24.15 13.3999C24.1136 13.4725 24.0947 13.5526 24.0947 13.6338C24.0947 13.715 24.1136 13.7951 24.15 13.8678C24.5788 14.5819 24.8176 15.3936 24.8437 16.2258C24.88 16.7035 24.7941 17.1825 24.5941 17.6179C24.394 18.0533 24.0863 18.4308 23.7 18.7149H23.6812Z" fill="#37865D"/>
<path d="M19.95 15.5708C19.9919 16.6599 19.634 17.7268 18.9435 18.5711C18.253 19.4153 17.2774 19.9789 16.2 20.156C15.5668 20.2792 14.9151 20.2727 14.2845 20.137C13.6539 20.0012 13.0575 19.739 12.5315 19.3662C12.0055 18.9935 11.5608 18.5179 11.2245 17.9684C10.8882 17.4189 10.6672 16.807 10.575 16.1697C10.4286 14.8875 10.7719 13.5973 11.5365 12.5566C12.3011 11.5159 13.4308 10.8013 14.7 10.5552C15.5752 10.3554 16.4919 10.4488 17.3086 10.8209C18.1253 11.1929 18.7966 11.823 19.2187 12.6139C19.698 13.5262 19.9489 14.5407 19.95 15.5708Z" fill="#37865D"/>
<defs>
<linearGradient id="paint0_linear" x1="3.7875" y1="5.27761" x2="26.3634" y2="24.9889" gradientUnits="userSpaceOnUse">
<stop stop-color="white"/>
<stop offset="1"/>
</linearGradient>
</defs>
</svg>
