<svg width="140" height="37" viewBox="0 0 140 37" fill="none" xmlns="http://www.w3.org/2000/svg">
<path d="M17.4259 2.41046C17.1898 2.43447 16.9533 2.4534 16.7163 2.46723L16.2622 2.524C16.0799 2.53282 15.8991 2.56137 15.7229 2.60915H15.6378L15.4107 2.66592L15.1836 2.6943H15.1268C15.0985 2.66592 15.0701 2.6943 15.0417 2.72269L14.7579 2.77946L14.5308 2.83622H14.474L14.4172 2.86461L14.2186 2.92137L13.9347 3.00653L13.7928 3.03491L13.6793 3.09168L13.5657 3.12006H13.5373L13.3387 3.17683L13.1684 3.2336L13.1116 3.26198H13.0548L12.9697 3.31875L12.8277 3.34713L12.6858 3.4039L12.5155 3.46067L12.4304 3.51744L12.1749 3.60259L11.9762 3.68774L11.8627 3.74451L11.8343 3.77289L11.7492 3.80128L11.6356 3.82966L11.5789 3.88643L11.5221 3.91481L11.3802 3.97158L11.2666 3.99996L11.0112 4.17027L10.926 4.19865L10.7273 4.31219L10.5854 4.36896L10.557 4.39734L10.5286 4.42572L10.4435 4.45411L10.3583 4.51087L10.2732 4.53926L9.96097 4.70956L9.87582 4.79471L9.84743 4.8231L9.70551 4.90825L9.56359 4.9934L9.45006 5.05017L9.30814 5.13532L9.27975 5.16371L9.22299 5.24886L8.99591 5.36239L8.79723 5.50431L8.74046 5.58946L8.71207 5.67462L8.68369 5.64623C8.74046 5.56108 8.62692 5.61785 8.51339 5.73138L8.34308 5.8733L8.22955 5.95846L8.11601 6.04361C7.15701 6.91297 6.27391 7.86254 5.47631 8.882L5.306 9.0523L5.19247 9.25099L5.1357 9.30776L5.10732 9.36453L5.07893 9.42129L4.88024 9.67675L4.85186 9.7619L4.79509 9.87544L4.73832 9.90382L4.70994 9.96059L4.62479 10.1309L4.53964 10.2728L4.51125 10.3012L4.39772 10.5283L4.36933 10.585L4.34095 10.6134L4.28418 10.6986L4.05711 11.1527L3.97196 11.2946L3.91519 11.4649V11.5217C3.88681 11.5217 3.85842 11.5501 3.7165 11.8055L3.65973 12.0042L3.60297 12.1178L3.57458 12.1462V12.1745L3.5462 12.2597L3.46105 12.4584C3.35961 12.6463 3.28327 12.8467 3.23398 13.0544L3.20559 13.168L3.14882 13.3099L3.09206 13.4802V13.5653L3.06367 13.5937L3.0069 13.7924L2.95014 13.9627C2.92175 13.9627 2.86498 14.2182 2.89337 14.3033L2.8366 14.3601V14.4452L2.80822 14.502L2.75145 14.7575L2.69468 14.9845V15.1548C2.6663 15.1548 2.63791 15.2116 2.60953 15.3535L2.58115 15.5806V15.6374C2.60953 15.6658 2.58115 15.7225 2.55276 15.7225L2.49599 16.1483L2.43923 16.5457L2.41084 16.716V16.9147C2.35312 18.1356 2.38157 19.3592 2.49599 20.5762C2.52438 20.7749 2.55276 20.86 2.58115 20.86L2.60953 20.9452C2.58115 21.0303 2.6663 21.598 2.69468 21.6264L2.77983 22.0238L2.80822 22.1373L2.86498 22.336C2.89337 22.5063 2.92175 22.5631 2.97852 22.5914L3.09206 22.6482L3.14882 22.6766L3.20559 22.705L3.26236 22.7334C3.26236 22.7617 3.20559 22.7617 3.03529 22.6766H2.92175H2.95014L3.0069 22.8753L3.06367 23.0456L3.09206 23.074V23.1591L3.14882 23.3294L3.20559 23.4997L3.26236 23.67L3.34751 23.8403L3.40428 23.9823C3.40428 24.039 3.43266 24.0674 3.46105 24.0674L3.48943 24.1809L3.5462 24.3796L3.60297 24.4932L3.63135 24.6067L3.68812 24.7486C3.68812 24.8054 3.7165 24.777 3.80165 24.6918L3.88681 24.6351L3.83004 24.7202C3.7165 24.8054 3.7165 24.8338 3.80165 24.9189L3.83004 25.0041L3.85842 25.0892L3.91519 25.146V25.0892L3.94357 25.0325V25.146C3.91519 25.2311 3.91519 25.2311 3.97196 25.3447L4.05711 25.4866L4.14226 25.6853L4.28418 25.9124L4.39772 26.1394L4.48287 26.2813L4.56802 26.3949L4.5964 26.5084L4.62479 26.5368C4.65317 26.5368 4.68156 26.5652 4.68156 26.622L4.76671 26.7071L4.79509 26.7355L4.90863 26.9626L4.9654 27.0193L5.05055 27.1896L5.10732 27.2748L5.27762 27.5302L5.47631 27.8141L5.58984 27.956L5.73176 28.1263L5.81691 28.2115L5.90207 28.3534L6.21429 28.7224C6.33802 28.8457 6.4519 28.9786 6.5549 29.1197L6.95227 29.4887L7.34965 29.9145L7.51995 30.0564C7.82503 30.3321 8.14737 30.5881 8.485 30.8228C8.54177 30.766 8.51339 30.7092 8.42824 30.6809C8.34308 30.6809 8.28632 30.6241 8.28632 30.5957H8.39985C8.485 30.5957 8.54177 30.6241 8.57015 30.6809V30.8228L8.51339 30.9079L8.65531 31.0215L8.82561 31.1634L8.88238 31.1918L9.08107 31.3337L9.30814 31.4756L9.42167 31.5608L9.53521 31.6175L9.59198 31.6743L9.76228 31.7594L9.87582 31.8446L9.93258 31.9014L10.0461 31.9581H10.0745L10.1313 31.9014C10.188 31.9014 10.2164 31.9581 10.1597 31.9581C10.1029 31.9865 10.188 32.0433 10.33 32.1284C10.5355 32.2188 10.7347 32.3232 10.926 32.4407L10.9544 32.469L11.0679 32.5258L11.1815 32.5826L11.3234 32.6677L11.4653 32.7245L11.5505 32.7813C11.6356 32.7813 11.8059 32.8664 12.0046 32.98C12.1749 33.0367 12.2033 33.0651 12.2033 33.0083L12.2317 32.9516L12.2601 33.0083C12.2317 33.0651 12.2885 33.0935 12.3736 33.0935L12.4588 33.1503L12.5439 33.1786L12.6858 33.2354L12.8845 33.3206L13.0264 33.3489L13.0548 33.3773H13.0832L13.2535 33.4341L13.4522 33.5193L13.6509 33.576L13.7644 33.6044H13.8496L13.9347 33.6328L14.0483 33.6612L14.1618 33.6896L14.2186 33.7179L14.3037 33.7463L14.5875 33.8031L14.9282 33.8882H15.0701C15.0701 33.9166 15.1268 33.945 15.2688 33.9734L15.4675 34.0018L15.5526 34.0302H15.6661L16.0635 34.0869L16.4609 34.1437C17.9367 34.2646 19.4211 34.2265 20.8888 34.0302H21.0023L21.0875 34.0018L21.3429 33.945L21.6551 33.8882L21.9674 33.8315L22.308 33.7463L22.5067 33.6896L22.6486 33.6328L22.904 33.576C23.0421 33.5463 23.1757 33.4986 23.3014 33.4341L23.415 33.4057L23.5285 33.3773L23.5569 33.3489L23.6704 33.3206L23.8407 33.2638L24.011 33.1786C24.1245 33.1503 24.2097 33.1219 24.5219 32.9516L24.6922 32.8948L24.7774 32.8664L24.9477 32.7813L25.0612 32.7245L25.0896 32.6961L25.3734 32.5826L25.4586 32.5258L25.856 32.3271L25.9695 32.2704C26.2154 32.1447 26.4525 32.0025 26.6791 31.8446L26.8778 31.7311L26.9062 31.6743H26.9346L27.0481 31.6175L27.1616 31.5608L27.4455 31.3053H27.5022L27.559 31.2769C27.559 31.2485 27.5874 31.2202 27.6442 31.2202L27.7293 31.1066L27.7577 31.0782C27.8145 31.0782 28.0415 30.9363 28.0415 30.8795L28.0983 30.8512L28.2118 30.7944L28.297 30.7092L28.5524 30.5106L28.7795 30.2835L28.9214 30.1699L29.0917 30.028L29.1485 29.9713L29.2053 29.8861C29.4765 29.6667 29.7239 29.4194 29.9433 29.1481L30 29.0914L30.0852 28.9778L30.2271 28.8359H30.2555L30.2839 28.8075L30.3974 28.6372C30.4825 28.5804 30.5109 28.5237 30.4825 28.4953L30.4542 28.3534L30.5109 28.4101L30.5393 28.4669L30.6812 28.325L30.7664 28.2398L30.8232 28.1547C30.8232 28.1263 30.9083 27.9844 31.0502 27.8425L31.1638 27.6722L31.3057 27.4735L31.476 27.2464L31.6179 27.0477L31.7031 26.8774L31.7598 26.8206L31.7882 26.7923C31.7598 26.7639 31.7882 26.7071 31.8166 26.6787L31.8734 26.5936L31.9301 26.5084V26.4233L31.9585 26.3381L31.9869 26.3949L32.0153 26.3665L32.1004 26.2246L32.1572 26.111L32.3275 25.8556C32.3559 25.7421 32.4127 25.6569 32.441 25.6569L32.4978 25.515L32.583 25.3731L32.6397 25.2595L32.6681 25.146L32.6965 25.1176V25.0041L32.7817 24.9473L32.81 24.8622L32.8668 24.7202L32.952 24.5499L32.9803 24.4648L33.0087 24.3796L33.0371 24.2945L33.0655 24.2377L33.1223 24.1242L33.2074 23.8687L33.2926 23.67L33.3209 23.5849L33.3493 23.5565V23.4997L33.4061 23.3294L33.4629 23.1591L33.5196 22.9888L33.5764 22.7617C33.6332 22.7617 33.5764 22.705 33.5196 22.7334L33.4912 22.705L33.5196 22.5914L33.548 22.5631L33.5764 22.6198L33.6048 22.6766L33.6616 22.4779L33.7183 22.2508L33.7751 22.0521L33.8319 21.8251V21.7399C33.8035 21.7115 33.8319 21.6548 33.8602 21.6548V21.4845L33.917 21.2858L33.9738 21.0871L34.0305 20.6046L34.1157 20.0937L34.1441 19.5827L34.1725 19.157C34.2427 17.0889 33.9546 15.0243 33.3209 13.0544L33.2642 12.9409L33.2074 12.7422L33.1506 12.6003L33.1223 12.5151L33.0655 12.43C33.0655 12.3732 32.9803 12.1178 32.81 11.8339L32.7249 11.6069L32.6965 11.5217L32.6681 11.4933V11.4649L32.6113 11.3514L32.5546 11.2379L32.4694 11.0959L32.4127 10.954L32.2424 10.6702L32.1856 10.585L32.1572 10.5283L32.1288 10.4715L32.1004 10.4147L32.0153 10.2444L31.9301 10.1025L31.845 9.96059L31.7031 9.7619L31.5895 9.56321L31.5328 9.44968L31.5044 9.42129L31.4476 9.36453L31.3908 9.27938L31.3625 9.25099L31.2773 9.10907L31.1921 8.99554L31.1354 8.91038L31.0786 8.82523L31.0218 8.76846L30.9651 8.7117L30.8232 8.51301L30.7096 8.34271L30.6245 8.25755C30.5677 8.22917 30.5677 8.20079 30.5677 8.1724L30.4542 8.05887L30.3406 7.91695C30.3406 7.86018 30.1419 7.71826 30.0852 7.71826L30.0284 7.68987L30.0568 7.66149H30.1136L29.8581 7.43442C29.8297 7.43442 29.7446 7.34927 29.773 7.32088C29.773 7.2925 29.5743 7.09381 29.5459 7.1222L29.4891 7.09381L29.4607 7.03704C29.4891 7.00866 29.2904 6.80997 29.2337 6.80997L29.2053 6.78159C29.2337 6.72482 28.9498 6.46937 28.9214 6.49775C28.893 6.55452 28.8647 6.52613 28.8647 6.46937L28.7511 6.32745C28.6376 6.21391 28.6376 6.21391 28.6092 6.27068C28.5808 6.29906 28.5808 6.29906 28.5808 6.24229C28.5808 6.18553 28.4673 6.01522 28.4105 6.01522L28.3254 5.95846C28.176 5.8211 28.0145 5.69759 27.8428 5.58946L27.7293 5.50431L27.6725 5.44754L27.6442 5.41916L27.5022 5.33401L27.3603 5.24886L27.3035 5.19209L27.2184 5.13532L27.1616 5.10694C27.0389 4.98628 26.8944 4.88997 26.7359 4.8231L26.5656 4.76633H26.5372C26.5656 4.73795 26.2533 4.51087 26.1114 4.45411L25.9979 4.39734L25.9695 4.36896L25.856 4.31219L25.7424 4.25542H25.714L25.6857 4.22704L25.5437 4.14188L25.4302 4.08512L25.2883 4.02835L25.1748 3.97158L25.0328 3.88643C24.9761 3.82966 24.9193 3.82966 24.8909 3.82966L24.8058 3.77289L24.749 3.74451L24.6355 3.71612L24.4652 3.65936L24.4368 3.63097L24.3232 3.60259L24.2381 3.57421V3.54582L24.0962 3.48905L23.8975 3.4039L23.8123 3.37552L23.7839 3.34713C23.7556 3.37552 23.6988 3.34713 23.642 3.31875L23.5285 3.29037H23.5001L23.4433 3.26198L23.3866 3.2336L23.2163 3.17683L22.9608 3.09168L22.7337 3.03491L22.5634 2.97814L22.3364 2.92137L22.1377 2.86461L22.0809 2.83622L22.0525 2.86461L22.0241 2.89299L21.9958 2.86461L21.7687 2.77946L21.5132 2.72269C21.4848 2.66592 21.4281 2.6943 21.4565 2.72269L21.4281 2.77946L21.3713 2.72269C21.3429 2.66592 21.3429 2.66592 21.2294 2.66592H21.1159L21.0307 2.63754L20.9455 2.60915H20.832L20.7469 2.58077L20.2927 2.524L19.8386 2.46723C19.4632 2.40815 19.0826 2.38912 18.7032 2.41046C18.7316 2.38208 18.6748 2.38208 18.2775 2.38208L17.4259 2.41046ZM22.7337 3.43229C22.7054 3.48905 22.5634 3.57421 22.5918 3.51744L22.7621 3.34713L22.7337 3.4039V3.43229ZM21.2862 3.46067L21.0875 3.54582C21.0591 3.54582 21.201 3.43229 21.2578 3.43229L21.2862 3.46067ZM23.3866 3.48905L23.3298 3.51744V3.48905C23.3582 3.43229 23.415 3.43229 23.3866 3.48905ZM19.8386 3.63097L19.6967 3.77289C19.6399 3.80128 19.6683 3.82966 19.7534 3.82966L19.9805 3.85804C20.1224 3.85804 20.1224 3.85804 20.1224 3.80128L20.1508 3.71612L20.1792 3.77289C20.1508 3.85804 20.2076 3.88643 20.3779 3.88643L20.4914 3.91481H20.5766L20.6901 3.9432L21.0023 3.99996L21.2862 4.05673L21.3713 4.02835L21.4281 3.97158V4.02835C21.4281 4.08512 21.4281 4.08512 21.6268 4.14188L21.8822 4.19865H21.9958L22.0525 4.22704L22.1944 4.25542L22.308 4.31219L22.3647 4.34057H22.4499L22.5067 4.36896L22.6202 4.39734L22.7337 4.42572L22.7621 4.45411L22.8757 4.51087L23.0743 4.56764L23.273 4.62441L23.4717 4.70956L23.642 4.76633L23.7839 4.8231L23.8691 4.85148L24.0962 4.96502L24.3232 5.05017L24.4084 5.07855L24.4368 5.10694L24.5219 5.13532L24.6355 5.19209L24.7206 5.22047L24.8341 5.27724L24.9761 5.36239L25.118 5.44754L25.1748 5.47593L25.2315 5.50431L25.3734 5.58946L25.5437 5.67462L25.6005 5.73138L25.6289 5.75977L25.7424 5.81654L25.8276 5.84492H25.856L26.083 6.01522L26.1398 6.04361L26.1682 6.07199L26.2817 6.12876C26.3385 6.18553 26.3953 6.18553 26.4236 6.18553C26.452 6.18553 26.4804 6.18553 26.452 6.21391C26.452 6.27068 26.5656 6.35583 26.6223 6.35583L26.7643 6.46937L26.9346 6.61129L27.0481 6.66805C27.3424 6.95336 27.6553 7.21886 27.9848 7.4628L28.0983 7.54796L28.1267 7.49119L28.1835 7.60472C28.4507 7.92293 28.7451 8.21734 29.0634 8.48462C29.035 8.48462 29.0634 8.54139 29.1485 8.59816L29.262 8.74008L29.2904 8.76846L29.3188 8.79685C29.4672 8.96169 29.6092 9.13212 29.7446 9.30776C29.8581 9.44968 29.8865 9.44968 29.9149 9.42129C29.9433 9.36453 29.9716 9.39291 29.9433 9.47806V9.56321L29.9716 9.5916L30.1987 9.90382L30.2271 9.93221C30.2271 10.0174 30.3406 10.1593 30.369 10.1309L30.3974 10.1593L30.4825 10.358L30.5109 10.3863L30.5677 10.5283L30.6812 10.6702C30.7096 10.7553 30.7948 10.7837 30.7948 10.727L30.8232 10.6986L30.8515 10.7553L30.7948 10.8121V10.8689L30.8799 11.0392L30.9651 11.1243L31.0502 11.2662L31.2205 11.6069L31.2489 11.6636L31.3057 11.7772L31.4192 12.0042L31.5044 12.1745L31.5611 12.2881L31.7031 12.6571L31.8166 12.9409L31.8734 13.0544L31.9017 13.0828L31.9301 13.168L31.9585 13.3383L32.0153 13.4518L32.0721 13.5937C32.1026 13.7096 32.1405 13.8233 32.1856 13.9343L32.214 14.1046L32.2707 14.2749L32.3559 14.5588L32.4127 14.7575L32.4694 14.9845L32.5262 15.24L32.5546 15.3819L32.6681 16.0347L32.7249 16.4321C32.7303 16.6601 32.7493 16.8876 32.7817 17.1133L32.81 17.3404C32.8328 18.2874 32.8044 19.2349 32.7249 20.1788L32.6681 20.6329L32.5546 21.229L32.5262 21.3709L32.4694 21.598L32.4127 21.8535V21.9386L32.441 22.0521H32.4127C32.3559 21.9954 32.3559 21.9954 32.3559 22.1089V22.2508C32.3843 22.2792 32.3843 22.2792 32.3843 22.2224L32.4127 22.1373C32.4694 22.1373 32.441 22.2792 32.4127 22.336C32.3559 22.3644 32.3275 22.3644 32.3275 22.3076L32.2991 22.2792V22.336L32.2707 22.3927L32.2424 22.5063L32.1572 22.705L32.1288 22.7901V22.8469L32.0721 23.0172L32.0153 23.1875L31.9585 23.301L31.9301 23.443L31.9017 23.5565L31.8734 23.5849L31.8166 23.67L31.7598 23.8403L31.6463 24.0674L31.5328 24.3512L31.476 24.4932L31.4192 24.6351L31.3625 24.7486L31.3341 24.8054L30.9367 25.5434L30.7948 25.7704L30.738 25.884L30.7096 25.9124L30.6812 25.9407L30.5961 26.0827L30.5109 26.253L30.4542 26.3097L30.4258 26.3665L30.3406 26.48L30.2839 26.5936L30.2271 26.6503C30.1703 26.7071 30.1419 26.7923 30.1419 26.849C30.1419 26.8774 30.1419 26.9058 30.1136 26.8774L29.9716 26.9909C29.8865 27.1045 29.8865 27.1045 29.9149 27.1613C29.9716 27.1896 29.9716 27.1896 29.9149 27.1896C29.8581 27.1896 29.6594 27.3599 29.631 27.4735L29.6026 27.5019L29.5175 27.5586L29.3756 27.7573L29.262 27.8992C28.3985 28.8021 27.4584 29.6283 26.452 30.3686L26.3101 30.4538L26.2817 30.4822L26.225 30.5389L26.083 30.5957L25.9411 30.7092C25.8844 30.7092 25.856 30.7376 25.856 30.766L25.8276 30.7944L25.6573 30.8795L25.5154 30.9647L25.4302 30.9931L25.2883 31.1066L24.9477 31.2769L24.8058 31.3337L24.6638 31.4188L24.5503 31.4756L23.8975 31.7878H23.7839L23.7556 31.8162L23.6136 31.873L23.4433 31.9581L23.3298 31.9865L23.2163 32.0149L23.1027 32.0717H23.046L22.9324 32.1284L22.8757 32.1568C22.8757 32.2136 22.8757 32.2136 22.8189 32.1852H22.7054L22.5634 32.242L22.4499 32.2704L22.308 32.2987C22.2512 32.2987 22.2512 32.2987 22.2796 32.3271C22.308 32.3555 22.308 32.3839 22.2228 32.3839C22.0525 32.3555 21.9958 32.3839 21.9958 32.4407H21.9674L21.9106 32.4123C21.8822 32.4123 21.8538 32.4407 21.8822 32.469L21.8538 32.4974C21.7687 32.469 21.57 32.4974 21.5984 32.5542H21.3429L21.2578 32.5826L20.9455 32.6393L20.6617 32.6961C20.2395 32.771 19.8128 32.8184 19.3844 32.838C18.3235 32.8908 17.2599 32.8528 16.2054 32.7245H16.0635L15.9216 32.6961L15.7513 32.6677C15.6378 32.6393 15.6094 32.6393 15.6094 32.6961C15.6094 32.7529 15.6094 32.7245 15.5526 32.6677L15.4107 32.611L15.2971 32.5826L15.2404 32.5542H15.1268L14.9565 32.4974L14.7579 32.4407L14.5308 32.3839L14.3037 32.3555L14.2186 32.3271L14.1618 32.2987L13.9631 32.242L13.7928 32.1852L13.6793 32.1284L13.4806 32.0717L13.2819 31.9865L13.1116 31.9298L12.9129 31.8446L12.7426 31.7878L12.7142 31.7594H12.6291L12.3736 31.6743L12.2317 31.5891L12.0046 31.4756L11.8911 31.4188L11.8627 31.3905H11.8343L11.7208 31.3337L11.6072 31.2769L11.5221 31.2202L11.4369 31.1918L11.3802 31.1634L11.3234 31.135L10.9828 30.9363L10.8409 30.8512L10.7841 30.8228L10.6989 30.766L10.6422 30.7092L10.5003 30.6241L10.33 30.5389L10.2732 30.4822L10.2448 30.4538L10.1313 30.397L10.0177 30.3403H9.96097L9.45006 29.9145L9.39329 29.8577L9.33652 29.801L9.13783 29.659L8.91076 29.5171L8.85399 29.432L8.79723 29.3752L8.54177 29.1481L8.3147 28.9778L8.25793 28.9494C8.25793 28.8927 8.05924 28.694 8.00248 28.694L7.97409 28.6372L7.91732 28.6088L7.88894 28.5804C7.88894 28.5237 7.74702 28.3818 7.71864 28.4101L7.69025 28.3818L7.51995 28.1547L7.29288 27.956C7.23611 27.9844 7.20773 27.956 7.26449 27.8992V27.8708L7.20773 27.7857L7.15096 27.7289C7.09419 27.7289 7.03742 27.6438 7.03742 27.6154L6.92389 27.4451L6.78197 27.2464L6.7252 27.1896L6.66843 27.1329L6.5549 26.9909C6.46974 26.8774 6.41298 26.849 6.41298 26.9626L6.38459 27.0193C6.32782 27.0761 6.32782 27.0193 6.38459 26.9058L6.44136 26.7923L6.32782 26.6787L6.24267 26.5652L6.12914 26.3665L5.87368 25.9407L5.81691 25.884L5.76015 25.7988L5.70338 25.6853L5.64661 25.5718L5.56146 25.4298L5.47631 25.2879L5.44792 25.2595L5.41954 25.2311L5.306 24.9757L5.24924 24.8622L5.19247 24.7486L5.16408 24.7202V24.6918L5.10732 24.5783C5.05055 24.408 4.99378 24.2945 4.93701 24.3229L4.90863 24.2377V24.1526C4.88024 24.1809 4.85186 24.1526 4.85186 24.0674L4.82348 23.9539C4.76671 23.9255 4.76671 23.8971 4.79509 23.8687V23.8403L4.73832 23.7268L4.68156 23.5849L4.65317 23.5565C4.68156 23.4997 4.62479 23.4146 4.45449 23.3578L4.22741 23.2159C4.22741 23.1591 4.36933 23.2159 4.48287 23.2727L4.5964 23.3294L4.53964 23.2159L4.45449 22.9888L4.4261 22.8469V22.7901L4.39772 22.7617L4.36933 22.6766L4.28418 22.4779L4.2558 22.336V22.2792L4.19903 22.0805L4.11388 21.7967L4.05711 21.5696L4.02873 21.3993L4.00034 21.3142V21.229L3.97196 21.1439C3.97196 21.0587 3.97196 21.0587 3.94357 21.0871L3.88681 21.1155C3.83004 21.0871 3.85842 21.0019 3.88681 21.0019C3.94357 20.9736 3.94357 20.8316 3.91519 20.8032V20.7181L3.88681 20.6329C3.80109 20.2028 3.75359 19.7658 3.74489 19.3273C3.70458 18.2277 3.75204 17.1267 3.88681 16.0347L3.94357 15.6941L4.00034 15.3535V15.2968L4.02873 15.24L4.08549 14.9845L4.14226 14.7575L4.19903 14.5588L4.2558 14.3601L4.28418 14.3033V14.2182L4.34095 14.0195L4.39772 13.8492L4.45449 13.7073L4.51125 13.4802L4.5964 13.2815L4.65317 13.1112L4.73832 12.9409L4.79509 12.7706L4.85186 12.6287L4.93701 12.43L4.99378 12.3448C5.35433 11.5968 5.7522 10.8674 6.1859 10.1593L6.29944 10.0174L6.52651 9.70513L6.75358 9.39291C6.7252 9.36453 6.81035 9.27938 6.86712 9.27938L6.8955 9.25099L6.98065 9.08069L7.09419 8.93877L7.12257 8.91038L7.17934 8.882L7.32126 8.7117C7.96478 8.04852 8.63718 7.41399 9.33652 6.80997L9.42167 6.72482L9.50682 6.63967L9.70551 6.55452C9.8107 6.45032 9.92466 6.35535 10.0461 6.27068L10.2164 6.18553L10.3016 6.10037L10.3583 6.04361C10.3867 6.07199 10.5286 5.98684 10.6138 5.90169L10.7841 5.81654L10.8693 5.75977L10.9544 5.703C11.0679 5.67462 11.2382 5.56108 11.2382 5.50431H11.2666C11.2666 5.5327 11.3518 5.50431 11.5505 5.39078L11.8627 5.22047L11.9478 5.16371L12.1749 5.07855L12.6858 4.85148L12.771 4.8231L12.9129 4.76633L13.1116 4.68118L13.3103 4.59603L13.4522 4.56764L13.5941 4.51087L13.7644 4.45411L13.8212 4.42572L13.9347 4.39734L14.1334 4.34057L14.2469 4.31219L14.5024 4.22704L14.7579 4.17027L15.0133 4.1135L15.2688 4.05673L15.8932 3.9432L16.0635 3.91481L16.915 3.82966L17.0853 3.80128C17.1421 3.74451 19.4696 3.74451 19.5264 3.80128C19.5547 3.82966 19.6115 3.80128 19.725 3.65936C19.9237 3.46067 20.0089 3.43229 19.8386 3.63097ZM22.2796 3.57421C22.2796 3.60259 22.2228 3.63097 22.2228 3.57421L22.308 3.51744L22.2796 3.54582V3.57421ZM19.498 3.68774L19.4128 3.74451L19.5547 3.60259L19.498 3.68774ZM23.1595 3.65936L22.9608 3.85804L23.0743 3.74451L23.1595 3.65936ZM21.4848 3.71612L21.4281 3.74451C21.4281 3.71612 21.4848 3.63097 21.5132 3.65936L21.4848 3.68774V3.71612ZM22.6486 4.22704L22.5634 4.2838L22.6202 4.19865L22.677 4.17027L22.6202 4.22704H22.6486ZM25.4586 4.70956L25.4018 4.76633C25.3167 4.79471 25.3167 4.79471 25.3734 4.73795C25.4302 4.68118 25.4586 4.65279 25.4586 4.70956ZM25.2599 4.90825L25.1748 4.9934L25.0612 5.05017L25.1464 4.96502C25.2315 4.87987 25.2599 4.87987 25.2599 4.90825ZM10.0461 5.95846C10.0177 5.98684 10.0177 5.95846 10.0177 5.93007L10.0461 5.90169V5.95846ZM8.57015 6.5829C8.57015 6.72482 8.54177 6.72482 8.54177 6.5829C8.51339 6.49775 8.54177 6.44098 8.57015 6.44098V6.5829ZM8.57015 6.92351C8.54177 6.95189 8.54177 6.95189 8.54177 6.86674C8.54177 6.78159 8.54177 6.78159 8.57015 6.80997V6.92351ZM8.59854 7.03704H8.57015L8.59854 6.98028V7.03704ZM8.59854 7.15058H8.57015L8.59854 7.09381V7.15058ZM8.59854 7.34927C8.57015 7.37765 8.57015 7.34927 8.57015 7.32088L8.59854 7.2925V7.34927ZM32.8952 19.0718H32.8668L32.8952 19.0151V19.0718ZM32.9236 19.2421C32.9236 19.2989 32.9236 19.2989 32.8952 19.2705V19.1854L32.9236 19.2421ZM3.3759 19.9801H3.34751L3.29074 19.9517C3.29074 19.895 3.34751 19.9233 3.3759 19.9517V19.9801ZM3.06367 21.598C3.03529 21.6264 3.03529 21.6264 3.06367 21.598V21.598ZM3.31913 21.8251C3.29074 21.8535 3.29074 21.8535 3.31913 21.8251V21.8251ZM4.31257 22.6766H4.28418L4.31257 22.6198V22.6766ZM3.3759 22.7901V22.8185L3.29074 22.7901H3.3759ZM3.5462 22.9037C3.51782 22.9037 3.43266 22.8469 3.46105 22.8185L3.51782 22.8469L3.5462 22.9037ZM3.65973 22.932L3.63135 22.9604L3.60297 22.932L3.63135 22.9037L3.65973 22.932ZM4.2558 23.0456C4.22741 23.074 4.22741 23.0456 4.22741 23.0172L4.2558 22.9888V23.0456ZM4.02873 23.074L4.19903 23.2159L4.02873 23.1591L3.91519 23.1023L3.83004 23.0456C3.83004 22.9888 3.83004 22.9888 4.02873 23.074ZM4.19903 23.4713C4.17065 23.4997 4.17065 23.4713 4.17065 23.443L4.19903 23.4146V23.4713ZM4.17065 23.6133L4.14226 23.67V23.6133C4.17065 23.5565 4.19903 23.5565 4.17065 23.6133ZM4.08549 24.1809C4.08549 24.2945 4.05711 24.3229 4.05711 24.2093L4.11388 24.0958L4.08549 24.1809ZM4.05711 24.408L4.02873 24.5499C4.00034 24.5499 4.00034 24.4648 4.05711 24.3512V24.408ZM4.00034 24.777V24.7486L4.02873 24.6918L4.00034 24.777ZM7.4348 28.4953V28.694H7.40641C7.37803 28.6372 7.34965 28.694 7.37803 28.7791C7.40641 28.8643 7.46318 28.8359 7.49157 28.7507C7.49157 28.6372 7.54833 28.5521 7.54833 28.6372L7.6051 28.7224C7.66187 28.7791 7.66187 28.8643 7.6051 29.0914C7.57672 29.1765 7.57672 29.1765 7.57672 29.0346C7.57672 28.9494 7.57672 28.8927 7.54833 28.9211L7.51995 28.9778V29.0346L7.49157 29.0062C7.46318 28.9211 7.32126 28.9778 7.34965 29.063L7.32126 29.0914H7.20773L7.23611 29.063L7.26449 28.9778L7.23611 28.8927V28.6656L7.29288 28.5521C7.32126 28.5237 7.34965 28.4669 7.32126 28.4385L7.34965 28.4101H7.40641C7.40641 28.3534 7.4348 28.3534 7.4348 28.3818V28.4953ZM7.15096 28.7224L7.12257 28.8075L7.09419 28.8643C7.06581 28.8359 7.09419 28.7507 7.12257 28.7224H7.15096ZM7.12257 29.063C7.12257 29.1481 7.12257 29.1765 7.15096 29.1481V29.2049L7.09419 29.3184V29.3468C7.06581 29.3752 7.03742 29.3184 7.06581 29.1197C7.06581 28.9211 7.12257 28.8927 7.12257 29.063ZM7.6051 29.29L7.46318 29.432L7.49157 29.3752L7.54833 29.2617H7.57672L7.6051 29.29ZM18.5045 33.1786H18.4761C18.4761 33.1503 18.5045 33.1219 18.5329 33.1503L18.5045 33.1786Z" fill="#9A98A4"/>
<path d="M17.8227 6.89476L17.624 6.92314C17.0503 6.91798 16.4781 6.98473 15.921 7.12183L15.8358 7.15021L15.6088 7.20698L15.3817 7.26375L15.2114 7.32052C15.1262 7.32052 15.0978 7.32052 15.1262 7.3489L15.1546 7.37728H14.8992L14.7005 7.46244L14.5302 7.5192L14.3882 7.57597L14.2179 7.66112L14.076 7.71789C13.9909 7.71789 13.9625 7.71789 13.9909 7.74627L14.0192 7.80304L13.9625 7.77466C13.9341 7.74627 13.8773 7.77466 13.7638 7.83143L13.5935 7.88819L13.5367 7.91658L13.5083 7.94496L13.3948 8.00173L13.2813 8.0585H13.2529L13.2245 8.08688L13.111 8.14365L12.9974 8.20042L12.8555 8.25719L12.7136 8.34234L12.5717 8.42749C12.5149 8.48426 12.4581 8.48426 12.4297 8.48426L12.3162 8.56941L12.1459 8.65456L12.0891 8.71133L12.0324 8.7681L11.9472 8.82486L11.8053 8.91002L11.4931 9.1087L11.266 9.27901L11.2092 9.33577C11.1809 9.39254 11.1525 9.42093 11.0957 9.42093L11.0389 9.50608L11.0106 9.53446L10.9254 9.59123L10.8686 9.648L10.7551 9.76153L10.6983 9.78992C9.89456 10.4896 9.19661 11.3023 8.6263 12.2026L8.51277 12.4012L8.456 12.5432L8.39923 12.5999L8.34246 12.6851L8.31408 12.7702L8.2857 12.7986L8.25731 12.827V12.8554C8.31408 12.9122 8.2857 12.9405 8.25731 12.9405L8.14378 13.0257C8.08701 13.1108 8.08701 13.1108 8.11539 13.1392C8.17216 13.1392 8.20054 13.2244 8.14378 13.2244L8.11539 13.196L8.08701 13.1676L8.05862 13.2244L8.03024 13.2811L7.94509 13.4231L7.88832 13.565L7.77479 13.8204L7.63287 14.1043V14.2178L7.60448 14.2462L7.5761 14.3313L7.49095 14.53L7.40579 14.7571L7.37741 14.899L7.34903 14.9274V14.9558L7.29226 15.0977L7.23549 15.3248V15.4951C7.20711 15.4951 7.17872 15.5235 7.15034 15.637L7.12196 15.7789V15.8641C7.15034 15.8925 7.12196 15.9492 7.09357 15.9492L7.0368 16.2615L6.98004 16.5453L6.95165 16.6588V16.8291C6.59859 19.8221 7.40055 22.8371 9.19398 25.2592L9.3359 25.3159L9.27913 25.3443C9.25075 25.3443 9.25075 25.3727 9.3359 25.4295L9.44944 25.543L9.67651 25.8268L9.90358 26.0823C10.1132 26.3262 10.3409 26.5539 10.5848 26.7635L11.2376 27.3028L11.266 27.246L11.3512 27.388C11.3228 27.4163 11.3512 27.4163 11.3795 27.4447L11.4931 27.5299L11.635 27.5866L11.6634 27.6434L11.6918 27.6718C11.7202 27.6434 11.8053 27.7002 11.9188 27.7853L12.1459 27.9556L12.2027 27.984L12.4297 28.1259L12.5433 28.1827L12.7987 28.353L12.9407 28.4382L13.111 28.4949L13.2529 28.5801C13.5884 28.7631 13.9399 28.9152 14.3031 29.0342L14.445 29.091L14.6153 29.1478L14.814 29.2045L14.8708 29.2329H14.8992L15.0978 29.2897L15.2681 29.3464L15.5236 29.4032L15.7223 29.46L15.8074 29.4884H15.8926L16.1764 29.5451L16.4603 29.6019L16.886 29.6587L17.3402 29.7154C18.2496 29.7145 19.1587 29.6767 20.065 29.6019L20.3773 29.5451L20.6895 29.4884L20.7746 29.46H20.8314L21.0301 29.4032L21.2572 29.3464L21.4275 29.2897L21.5126 29.2613V29.2329H21.541C21.5694 29.2613 21.7113 29.2329 21.7681 29.2045L21.9384 29.1478L22.0803 29.091L22.1371 29.0626H22.1938L22.279 29.0058L22.506 28.9491L22.7331 28.8355L22.8467 28.7788L22.875 28.7504L23.0453 28.722L23.7266 28.353L23.982 28.2111L24.0388 28.1827L24.0672 28.1543C24.0955 28.1827 24.2375 28.0692 24.2375 28.0124C24.2091 27.984 24.2375 27.984 24.2658 27.984C24.351 28.0124 24.4645 27.9556 24.4645 27.9272L24.5781 27.8421L24.72 27.7569L24.8051 27.7002L24.8335 27.615C24.8335 27.5583 24.8903 27.5299 24.9187 27.5866L25.0322 27.5299C25.089 27.5015 25.1174 27.4447 25.089 27.4163C25.089 27.388 25.1174 27.3596 25.1741 27.4163C25.1741 27.4447 25.2025 27.4447 25.2309 27.388L25.2877 27.3312L25.5147 27.1609C25.7787 26.9035 26.0533 26.6573 26.3379 26.4229L26.5649 26.1958L26.6785 26.0539L27.1326 25.5146L27.2178 25.4295L27.3029 25.3443L27.3597 25.2592L27.4165 25.174L27.5584 24.9469C27.5868 24.8618 27.6719 24.8334 27.6719 24.805L27.7855 24.6347L27.9274 24.436L28.0409 24.2657C28.1799 24.0827 28.2944 23.8823 28.3815 23.6697L28.5802 23.2439C28.6793 23.0146 28.7834 22.7875 28.8924 22.5627L28.9208 22.4208V22.3924C28.9492 22.3924 28.9776 22.364 28.9776 22.2788L29.0343 22.1653V22.1369L29.0627 22.0518L29.1195 21.8815L29.1763 21.7679L29.2047 21.7112L29.2898 21.4273V21.3422L29.3182 21.2854C29.3466 21.2286 29.4033 20.888 29.375 20.8313L29.4033 20.8029C29.4601 20.8313 29.4601 20.8029 29.4885 20.6893C29.5102 20.539 29.5197 20.3871 29.5169 20.2352C29.5453 20.3204 29.5736 20.2636 29.5453 20.1501L29.5736 20.0649L29.6588 19.2134L29.6872 19.0431L29.7156 18.3051C29.7301 18.0106 29.711 17.7154 29.6588 17.4252C29.6536 17.1099 29.6155 16.796 29.5453 16.4885L29.4601 16.006V15.9208L29.4317 15.8357L29.375 15.5802L29.3182 15.3816L29.2614 15.1261L29.1763 14.8706L29.1195 14.7571L29.0627 14.53L29.006 14.3313L28.8073 13.934V13.8204L28.7789 13.7921L28.7221 13.6785L28.6654 13.565L28.6086 13.4231L28.5234 13.2811L28.4667 13.1676L28.4099 13.0825L28.3815 12.9973L28.3248 12.8838L28.2964 12.7986L28.268 12.7702L28.0977 12.458L27.9841 12.2877L27.9274 12.1742L27.8706 12.1174L27.8422 12.0606L27.7571 12.0322C27.7003 12.0322 27.6719 11.9755 27.7287 11.9755C27.7571 11.9471 27.6719 11.7768 27.6435 11.7768L27.5584 11.6916C27.5584 11.6349 27.4732 11.5213 27.3881 11.4362L27.2745 11.2659L27.2178 11.2091L27.161 11.1523C26.6367 10.542 26.0571 9.98137 25.4296 9.47769H25.3728L25.3444 9.39254V9.33577L25.3161 9.30739L25.089 9.13709C24.9471 9.02355 24.8903 8.99517 24.8619 9.02355L24.8051 8.99517C24.8335 8.96678 24.7768 8.9384 24.72 8.88163L24.6348 8.85325L24.5497 8.88163C24.4929 8.88163 24.4929 8.88163 24.5213 8.85325C24.6065 8.79648 24.5781 8.7681 24.4929 8.71133C24.2632 8.5834 24.0361 8.45092 23.8117 8.31395L23.6414 8.2288L23.5279 8.17203L23.4143 8.11527L23.3008 8.0585L23.2724 8.03011L23.017 7.91658L22.9034 7.85981L22.7047 7.77466L22.3074 7.66112C22.279 7.66112 22.3074 7.68951 22.3074 7.66112C22.3074 7.60436 22.279 7.60436 22.1654 7.57597L21.9951 7.5192L21.8532 7.46244L21.6545 7.40567H21.6261L21.5694 7.37728L21.3707 7.32052L21.172 7.26375L20.9449 7.20698L20.7462 7.15021H20.6327L20.5476 7.12183L20.3489 7.06506C20.1218 7.06506 19.9799 7.03668 19.9515 7.00829L19.7812 6.97991H19.6393C19.6109 6.92314 17.8511 6.86637 17.8227 6.89476ZM18.7878 7.03668C18.7594 7.06506 18.7594 7.06506 18.7878 7.03668V7.03668ZM19.7528 7.12183C19.7528 7.1786 19.6393 7.26375 19.6393 7.20698L19.7528 7.09344V7.12183ZM18.7026 7.1786H18.6742L18.7026 7.12183V7.1786ZM18.5039 7.3489L18.4755 7.37728L18.4471 7.3489L18.5039 7.32052V7.3489ZM19.4973 7.37728L19.469 7.43405L19.4406 7.40567L19.469 7.37728H19.4973ZM18.6742 7.5192L18.5607 7.63274C18.5323 7.63274 18.5607 7.57597 18.6458 7.5192L18.7594 7.40567L18.6742 7.5192ZM18.3904 7.46244V7.49082L18.362 7.5192L18.3336 7.54759C18.3052 7.63274 18.1065 7.83143 18.1065 7.80304C18.0782 7.77466 18.1349 7.63274 18.1633 7.63274L18.2768 7.5192L18.4188 7.43405L18.3904 7.46244ZM19.2419 7.63274L19.1284 7.74627L19.327 7.54759L19.2419 7.66112V7.63274ZM18.362 7.85981L18.3052 7.88819L18.3336 7.85981C18.3904 7.80304 18.4188 7.80304 18.362 7.85981ZM19.0148 7.88819L18.9013 7.97335L19.0432 7.80304L19.0148 7.88819ZM18.5039 8.37072C18.4188 8.51264 18.3336 8.56941 18.3336 8.51264L18.6174 8.25719L18.5039 8.37072ZM23.2156 8.68294L23.1589 8.7681L23.1021 8.82486L23.1589 8.65456C23.1873 8.59779 23.244 8.56941 23.244 8.59779L23.2156 8.68294ZM16.3467 8.79648H17.1699V11.6633H18.3904V10.2724C18.4208 9.78093 18.4208 9.288 18.3904 8.79648H20.1786V10.2441C20.1786 11.6916 20.1786 11.6916 20.2921 11.72C21.3252 11.8121 22.3291 12.1113 23.244 12.5999L23.3292 12.6851C23.4143 12.7135 23.4711 12.7418 23.6982 12.9405L23.8117 13.0257L23.8685 13.0825C23.8969 13.1676 24.0388 13.3095 24.0955 13.3095L24.1239 13.3663L24.1807 13.4798C24.3141 13.6681 24.4104 13.88 24.4645 14.1043L24.4929 14.1327V14.1894L24.5213 14.2462L24.5497 14.303L24.5781 14.7855C24.5999 15.1974 24.5519 15.6101 24.4362 16.006L24.351 16.2047V16.3182L24.2942 16.3466L24.2658 16.4318L24.2375 16.4885L24.1807 16.5453L24.1239 16.6588L24.0955 16.7156L24.0388 16.7724C23.8374 17.0334 23.5982 17.263 23.3292 17.4536L23.1021 17.6239L23.1589 17.6523L23.244 17.709L23.4143 17.7658L23.5279 17.7942L23.6414 17.851L23.7549 17.9077L23.7833 17.9361L24.2375 18.1916L24.3794 18.2767L24.4078 18.3335L24.4362 18.3619C24.4645 18.3619 24.7484 18.6457 24.8335 18.7876C24.9187 18.8728 24.9187 18.8728 24.9471 18.8444C24.9471 18.7876 24.9754 18.7876 25.0038 18.816C25.0322 18.8728 25.0322 18.8728 24.9754 18.8728C24.9471 18.9012 24.9471 18.9012 25.0038 18.9863L25.089 19.1566L25.1458 19.2418L25.2025 19.3269L25.2309 19.4121L25.3161 19.5824L25.3728 19.7527V19.7811L25.4012 19.8662C25.5419 20.5508 25.5322 21.2578 25.3728 21.9382V22.0518C25.4012 22.0802 25.4012 22.0802 25.3444 22.0802L25.3161 22.1937L25.2309 22.364L25.2025 22.4775L25.1458 22.6195L25.0606 22.8181L24.9754 22.9317L24.9471 22.9884L24.9187 23.102L24.8051 23.2439C24.7484 23.3574 24.2375 23.8967 24.0955 24.0103L23.8969 24.1238L23.7833 24.2373L23.7549 24.2657C23.7549 24.209 23.7266 24.209 23.6698 24.2657L23.5846 24.2941L23.3859 24.3793L22.875 24.6063C22.7899 24.6063 22.7615 24.6347 22.7615 24.6631H22.6763L22.3925 24.7199L22.1087 24.7766L22.0235 24.805H21.9384C21.3748 24.8903 20.8052 24.9283 20.2353 24.9186C20.1786 24.9753 20.1786 25.0605 20.1786 26.3945V27.8421H18.4755V27.8989C18.4755 27.9556 18.4755 27.9556 18.4471 27.9272L18.4188 27.8137L18.3904 26.3661V24.9186L17.7943 24.8902L17.1982 24.9186L17.1699 26.3945V27.8421H15.4101V26.3661L15.3817 24.9186L13.7354 24.8902C13.1487 24.8767 12.5616 24.8862 11.9756 24.9186L12.004 23.0736L12.7704 23.0452C13.5083 23.0452 13.5083 23.0452 13.6503 22.9884C13.7922 22.9033 13.9625 22.733 13.9625 22.6762L14.0192 22.5627C14.0805 19.7437 14.0994 16.9239 14.076 14.1043C14.0476 13.9624 14.0192 13.9056 13.9625 13.8488L13.9341 13.7637L13.8773 13.7069L13.7922 13.6501C13.7922 13.5934 13.5935 13.5366 13.48 13.5366L13.4232 13.5082H12.6852L11.8905 13.4798C11.8337 13.4798 11.8337 13.4231 11.8337 12.5715V11.6633H15.4101V10.2157C15.4101 8.9384 15.4101 8.7681 15.4668 8.7681L16.3467 8.79648ZM24.6065 9.08032C24.5258 9.1879 24.4302 9.28347 24.3226 9.36416L24.6065 9.05194V9.08032ZM13.5935 9.13709L13.5651 9.22224C13.5367 9.30739 13.5367 9.30739 13.5367 9.22224L13.5651 9.13709H13.5935ZM24.1239 9.67638L23.982 9.78992L24.0388 9.73315C24.1523 9.61961 24.2375 9.56285 24.1239 9.67638ZM24.6632 9.67638L24.5213 9.8183L24.6065 9.73315L24.6632 9.67638ZM23.9536 9.70477L23.8969 9.78992L24.0104 9.648L23.9536 9.73315V9.70477ZM24.4078 9.98861L24.351 10.017L24.3794 9.96022C24.4362 9.90345 24.4645 9.90345 24.4078 9.98861ZM24.2091 10.1589C24.0955 10.2724 24.0672 10.2724 24.1807 10.1589L24.2942 10.0738L24.2091 10.1589ZM22.9318 10.8685L22.9034 10.8969L22.875 10.8685L22.9318 10.8401V10.8685ZM25.9973 11.0956L25.9689 11.124H25.9405L25.9689 11.0956H25.9973ZM24.6348 12.089L24.6065 12.1174L24.5781 12.089L24.6348 12.0606V12.089ZM9.96035 18.2483L9.8752 18.3051C9.84681 18.2767 9.93196 18.1916 9.96035 18.1916V18.2483ZM26.3946 18.5322H26.3663L26.3946 18.4754V18.5322ZM7.54771 19.554L7.51933 19.6108V19.554C7.5761 19.4972 7.5761 19.4972 7.54771 19.554ZM25.7418 21.4557H25.7134C25.7134 21.4273 25.7418 21.3989 25.7702 21.4273L25.7418 21.4557ZM9.05206 21.7963L9.02368 21.8247L8.99529 21.7963L9.02368 21.7396L9.05206 21.7963ZM25.827 22.0518L25.7986 22.0802L25.7702 22.0518L25.7986 22.0234L25.827 22.0518ZM10.5848 23.5561L10.5564 23.5845L10.528 23.5561L10.5848 23.5277V23.5561ZM10.897 23.84L10.8686 23.8683L10.8403 23.84L10.8686 23.8116L10.897 23.84ZM10.9822 23.8967L10.9538 23.9251L10.9254 23.8967V23.8683L10.9538 23.8967H10.9822ZM11.0673 24.0387L11.0389 24.067L11.0106 24.0387L11.0673 24.0103V24.0387ZM11.7769 24.7199L11.7485 24.7482L11.7202 24.7199L11.7485 24.6631L11.7769 24.7199ZM10.1874 25.3727L10.0455 25.4862L10.159 25.3727L10.301 25.2308L10.1874 25.3727ZM17.5105 25.4578C17.5105 25.5146 17.5105 25.5146 17.4821 25.4862L17.4537 25.4295C17.4821 25.3727 17.5105 25.4011 17.5105 25.4578ZM18.0782 25.7985L18.0214 25.8268L17.993 25.7985L18.0498 25.7701L18.0782 25.7985ZM14.6721 27.3028H14.7288L14.7572 27.3312C14.7572 27.388 14.6437 27.3596 14.6153 27.3028L14.6437 27.2744L14.6721 27.3028ZM16.0061 27.8989L15.9777 27.9272L15.9494 27.8989V27.8705L15.9777 27.8989H16.0061ZM12.969 27.984L12.9123 28.0124C12.8839 28.0124 12.8839 27.984 12.9407 27.9556C12.9974 27.8989 13.0258 27.8989 12.969 27.984Z" fill="#9A98A4"/>
<path d="M17.1993 13.6218L17.1709 15.4384V17.1982H18.4198C18.9126 17.1855 19.4048 17.1571 19.8958 17.113C20.0661 17.0563 20.3215 16.9144 20.4918 16.8008C20.5486 16.7157 20.6337 16.6589 20.6621 16.6589L20.7189 16.6021L20.8324 16.4602L20.9176 16.2899L20.9743 16.1764C21.0595 16.0912 21.0879 15.9493 21.1163 15.7506L21.1446 15.6371V14.9559L21.1163 14.8707L21.0027 14.5585L20.946 14.445L20.8608 14.3598L20.8324 14.303C20.804 14.2463 20.6054 14.1044 20.5486 14.1044L20.4634 14.0192L20.3499 13.9624L20.2647 13.934C20.2364 13.8773 20.208 13.8773 20.1796 13.9057H20.1512L20.0093 13.8205L19.839 13.7637L19.0159 13.6502L18.8172 13.6218H17.1993ZM19.1862 14.303L19.1578 14.3314H19.1294L19.1578 14.303H19.1862ZM19.1294 14.6153C19.101 14.6436 19.101 14.6153 19.101 14.5869L19.1294 14.5585V14.6153ZM19.101 15.1262L19.0726 15.1829V15.0694C19.0726 14.9559 19.1294 15.0126 19.101 15.1262ZM19.0726 15.3532H19.0442C19.0442 15.3249 19.0726 15.2965 19.101 15.3249L19.0726 15.3532ZM18.732 15.779H18.7036L18.732 15.7222V15.779ZM19.0442 15.7506L19.0159 15.779L18.9875 15.7506L19.0442 15.7222V15.7506ZM18.8172 15.9777L18.7888 16.0061L18.7604 15.9777L18.732 15.8925C18.732 15.8358 18.732 15.8358 18.7604 15.8925L18.8172 15.9777ZM18.2779 15.8925L18.2211 15.9777L18.136 16.0345L18.1927 15.9493L18.2779 15.8925ZM18.9307 16.2899C18.9307 16.3467 18.8739 16.3183 18.8739 16.2331L18.8456 16.0912L18.8739 16.148L18.9307 16.2899ZM18.9875 16.886C18.9875 16.9427 18.9875 16.9427 18.9591 16.9144V16.8292L18.9875 16.886ZM19.2713 16.9995L19.2429 16.9427C19.2145 16.9144 19.2145 16.9144 19.2429 16.9427L19.2713 16.9711V16.9995ZM17.1709 20.8881L17.1993 22.8466C18.1647 22.8744 19.1309 22.8555 20.0944 22.7898C20.2647 22.7898 20.4067 22.7615 20.4067 22.7331L20.5486 22.7047L20.7189 22.6479L20.804 22.6195L21.0595 22.4776L21.0879 22.4492C21.0879 22.506 21.4285 22.2222 21.5704 22.0802L21.7407 21.8248C21.7407 21.768 21.7691 21.7396 21.7975 21.7396L21.8542 21.5977L21.911 21.4842L21.9678 21.3139L22.0245 21.0868C22.0404 20.8121 22.0309 20.5366 21.9962 20.2637L21.9678 20.2069V20.1501L21.9394 20.065L21.8826 19.9798L21.7975 19.8663L21.7123 19.7528L21.6556 19.6392L21.5704 19.6108L21.4853 19.5541L21.3717 19.4973L21.3433 19.4689C21.3433 19.4405 21.1446 19.327 20.9743 19.2702L20.8608 19.2135L20.6905 19.1567L20.4918 19.0999H20.4067L20.3499 19.0715C20.2647 19.0148 19.5835 18.9864 18.3914 18.9864H17.1709V20.8881ZM18.3346 19.3554H18.3063L18.3346 19.2986V19.3554ZM17.3128 19.6392C17.2844 19.6676 17.2844 19.6392 17.2844 19.5825C17.2844 19.5541 17.2844 19.5257 17.3128 19.5541V19.6392ZM18.4198 19.7528C18.4198 19.8095 18.4198 19.8095 18.3914 19.7811V19.6676L18.4198 19.7528ZM17.767 20.661L17.7386 20.6894H17.7102L17.7386 20.661H17.767Z" fill="#9A98A4"/>
<path d="M42.2219 13.7914H45.2434C46.5361 13.7914 47.5145 13.9729 48.1785 14.3359C48.8426 14.699 49.1746 15.3365 49.1746 16.2484C49.1746 16.6159 49.1148 16.9479 48.9953 17.2445C48.8802 17.5411 48.712 17.7846 48.4906 17.975C48.2693 18.1654 47.9992 18.2893 47.6805 18.3469V18.4133C48.0036 18.4797 48.2958 18.5948 48.557 18.7586C48.8182 18.918 49.0263 19.1526 49.1813 19.4625C49.3406 19.768 49.4203 20.1753 49.4203 20.6844C49.4203 21.2732 49.2764 21.7779 48.9887 22.1984C48.7009 22.619 48.2892 22.9422 47.7535 23.168C47.2223 23.3893 46.5892 23.5 45.8543 23.5H42.2219V13.7914ZM44.2805 17.6363H45.4758C46.0734 17.6363 46.4874 17.5434 46.7176 17.3574C46.9478 17.1671 47.0629 16.8882 47.0629 16.5207C47.0629 16.1488 46.9257 15.8832 46.6512 15.7238C46.3811 15.56 45.9517 15.4781 45.3629 15.4781H44.2805V17.6363ZM44.2805 19.2699V21.8H45.6219C46.2417 21.8 46.6733 21.6805 46.9168 21.4414C47.1603 21.2023 47.282 20.8814 47.282 20.4785C47.282 20.2395 47.2289 20.0292 47.1227 19.8477C47.0164 19.6661 46.8371 19.5245 46.5848 19.4227C46.3368 19.3208 45.9938 19.2699 45.5555 19.2699H44.2805ZM53.2254 16.0758V23.5H51.2V16.0758H53.2254ZM52.216 13.1672C52.5171 13.1672 52.776 13.238 52.993 13.3797C53.2099 13.5169 53.3184 13.7759 53.3184 14.1566C53.3184 14.5329 53.2099 14.7941 52.993 14.9402C52.776 15.0819 52.5171 15.1527 52.216 15.1527C51.9105 15.1527 51.6493 15.0819 51.4324 14.9402C51.2199 14.7941 51.1137 14.5329 51.1137 14.1566C51.1137 13.7759 51.2199 13.5169 51.4324 13.3797C51.6493 13.238 51.9105 13.1672 52.216 13.1672ZM58.4848 22.0191C58.7061 22.0191 58.9208 21.997 59.1289 21.9527C59.3414 21.9085 59.5517 21.8531 59.7598 21.7867V23.2941C59.5428 23.3915 59.2728 23.4712 58.9496 23.5332C58.6309 23.5996 58.2811 23.6328 57.9004 23.6328C57.4577 23.6328 57.0592 23.562 56.7051 23.4203C56.3553 23.2742 56.0786 23.0241 55.875 22.6699C55.6758 22.3113 55.5762 21.8133 55.5762 21.1758V17.5965H54.6066V16.7398L55.7223 16.0625L56.3066 14.4953H57.6016V16.0758H59.6801V17.5965H57.6016V21.1758C57.6016 21.4591 57.6812 21.6716 57.8406 21.8133C58.0044 21.9505 58.2191 22.0191 58.4848 22.0191ZM64.282 23.6328C63.5471 23.6328 62.9207 23.5 62.4027 23.2344C61.8848 22.9643 61.4908 22.5482 61.2207 21.9859C60.9507 21.4237 60.8156 20.7043 60.8156 19.8277C60.8156 18.9202 60.9684 18.1809 61.2738 17.6098C61.5837 17.0342 62.0109 16.6115 62.5555 16.3414C63.1044 16.0714 63.7397 15.9363 64.4613 15.9363C64.9749 15.9363 65.4176 15.9872 65.7895 16.0891C66.1658 16.1865 66.4934 16.3038 66.7723 16.441L66.1746 18.0082C65.8559 17.8798 65.5592 17.7758 65.2848 17.6961C65.0103 17.612 64.7358 17.5699 64.4613 17.5699C64.1072 17.5699 63.8128 17.654 63.5781 17.8223C63.3435 17.9861 63.1686 18.234 63.0535 18.566C62.9384 18.898 62.8809 19.3142 62.8809 19.8145C62.8809 20.3059 62.9428 20.7132 63.0668 21.0363C63.1908 21.3595 63.3701 21.6008 63.6047 21.7602C63.8393 21.9151 64.1249 21.9926 64.4613 21.9926C64.8819 21.9926 65.256 21.9372 65.5836 21.8266C65.9112 21.7115 66.2299 21.5521 66.5398 21.3484V23.0816C66.2299 23.2764 65.9046 23.4159 65.5637 23.5C65.2272 23.5885 64.8 23.6328 64.282 23.6328ZM75.0133 19.7746C75.0133 20.3944 74.9292 20.9434 74.7609 21.4215C74.5971 21.8996 74.3559 22.3047 74.0371 22.6367C73.7228 22.9643 73.3421 23.2122 72.8949 23.3805C72.4522 23.5487 71.952 23.6328 71.3941 23.6328C70.8717 23.6328 70.3914 23.5487 69.9531 23.3805C69.5193 23.2122 69.1408 22.9643 68.8176 22.6367C68.4988 22.3047 68.2509 21.8996 68.0738 21.4215C67.9012 20.9434 67.8148 20.3944 67.8148 19.7746C67.8148 18.9512 67.9609 18.2539 68.2531 17.6828C68.5453 17.1117 68.9615 16.6779 69.5016 16.3812C70.0417 16.0846 70.6858 15.9363 71.434 15.9363C72.129 15.9363 72.7444 16.0846 73.2801 16.3812C73.8202 16.6779 74.243 17.1117 74.5484 17.6828C74.8583 18.2539 75.0133 18.9512 75.0133 19.7746ZM69.8801 19.7746C69.8801 20.2616 69.9332 20.6711 70.0395 21.0031C70.1457 21.3352 70.3117 21.5853 70.5375 21.7535C70.7633 21.9217 71.0577 22.0059 71.4207 22.0059C71.7793 22.0059 72.0693 21.9217 72.2906 21.7535C72.5164 21.5853 72.6802 21.3352 72.782 21.0031C72.8883 20.6711 72.9414 20.2616 72.9414 19.7746C72.9414 19.2832 72.8883 18.8759 72.782 18.5527C72.6802 18.2251 72.5164 17.9794 72.2906 17.8156C72.0648 17.6518 71.7704 17.5699 71.4074 17.5699C70.8717 17.5699 70.4822 17.7536 70.2387 18.1211C69.9996 18.4885 69.8801 19.0397 69.8801 19.7746ZM78.7121 16.0758V23.5H76.6867V16.0758H78.7121ZM77.7027 13.1672C78.0038 13.1672 78.2628 13.238 78.4797 13.3797C78.6966 13.5169 78.8051 13.7759 78.8051 14.1566C78.8051 14.5329 78.6966 14.7941 78.4797 14.9402C78.2628 15.0819 78.0038 15.1527 77.7027 15.1527C77.3973 15.1527 77.1361 15.0819 76.9191 14.9402C76.7066 14.7941 76.6004 14.5329 76.6004 14.1566C76.6004 13.7759 76.7066 13.5169 76.9191 13.3797C77.1361 13.238 77.3973 13.1672 77.7027 13.1672ZM85.0605 15.9363C85.853 15.9363 86.4905 16.1533 86.973 16.5871C87.4556 17.0165 87.6969 17.7072 87.6969 18.659V23.5H85.6715V19.1637C85.6715 18.6324 85.5741 18.2318 85.3793 17.9617C85.1889 17.6917 84.8879 17.5566 84.4762 17.5566C83.8564 17.5566 83.4336 17.7669 83.2078 18.1875C82.982 18.6081 82.8691 19.2146 82.8691 20.007V23.5H80.8438V16.0758H82.391L82.6633 17.0254H82.7762C82.9355 16.7686 83.1326 16.5605 83.3672 16.4012C83.6063 16.2418 83.8697 16.1245 84.1574 16.0492C84.4496 15.974 84.7507 15.9363 85.0605 15.9363ZM93.4742 23.5V13.7914H95.5328V23.5H93.4742ZM102.034 15.9363C102.826 15.9363 103.464 16.1533 103.946 16.5871C104.429 17.0165 104.67 17.7072 104.67 18.659V23.5H102.645V19.1637C102.645 18.6324 102.548 18.2318 102.353 17.9617C102.162 17.6917 101.861 17.5566 101.45 17.5566C100.83 17.5566 100.407 17.7669 100.181 18.1875C99.9555 18.6081 99.8426 19.2146 99.8426 20.007V23.5H97.8172V16.0758H99.3645L99.6367 17.0254H99.7496C99.909 16.7686 100.106 16.5605 100.341 16.4012C100.58 16.2418 100.843 16.1245 101.131 16.0492C101.423 15.974 101.724 15.9363 102.034 15.9363ZM111.935 21.2953C111.935 21.8 111.816 22.2272 111.577 22.577C111.342 22.9223 110.99 23.1857 110.521 23.3672C110.051 23.5443 109.467 23.6328 108.768 23.6328C108.25 23.6328 107.805 23.5996 107.433 23.5332C107.065 23.4668 106.693 23.3561 106.317 23.2012V21.5277C106.72 21.7092 107.152 21.8598 107.612 21.9793C108.077 22.0944 108.484 22.152 108.834 22.152C109.228 22.152 109.509 22.0944 109.677 21.9793C109.85 21.8598 109.936 21.7048 109.936 21.5145C109.936 21.3905 109.901 21.2798 109.83 21.1824C109.764 21.0806 109.618 20.9677 109.392 20.8437C109.166 20.7154 108.812 20.5493 108.329 20.3457C107.864 20.1509 107.482 19.9539 107.18 19.7547C106.884 19.5555 106.663 19.3208 106.516 19.0508C106.375 18.7763 106.304 18.4288 106.304 18.0082C106.304 17.322 106.57 16.8062 107.101 16.4609C107.636 16.1112 108.351 15.9363 109.246 15.9363C109.706 15.9363 110.144 15.9828 110.561 16.0758C110.981 16.1687 111.413 16.3171 111.855 16.5207L111.245 17.9816C110.877 17.8223 110.53 17.6917 110.202 17.5898C109.879 17.488 109.549 17.4371 109.213 17.4371C108.916 17.4371 108.692 17.477 108.542 17.5566C108.391 17.6363 108.316 17.7581 108.316 17.9219C108.316 18.0414 108.354 18.1477 108.429 18.2406C108.509 18.3336 108.659 18.4376 108.88 18.5527C109.106 18.6634 109.436 18.8073 109.87 18.9844C110.29 19.157 110.656 19.3385 110.966 19.5289C111.276 19.7148 111.515 19.9473 111.683 20.2262C111.851 20.5007 111.935 20.857 111.935 21.2953ZM115.541 16.0758V23.5H113.516V16.0758H115.541ZM114.532 13.1672C114.833 13.1672 115.092 13.238 115.309 13.3797C115.526 13.5169 115.634 13.7759 115.634 14.1566C115.634 14.5329 115.526 14.7941 115.309 14.9402C115.092 15.0819 114.833 15.1527 114.532 15.1527C114.226 15.1527 113.965 15.0819 113.748 14.9402C113.536 14.7941 113.429 14.5329 113.429 14.1566C113.429 13.7759 113.536 13.5169 113.748 13.3797C113.965 13.238 114.226 13.1672 114.532 13.1672ZM120.023 23.6328C119.196 23.6328 118.52 23.3096 117.998 22.6633C117.48 22.0125 117.221 21.0585 117.221 19.8012C117.221 18.5306 117.485 17.5699 118.011 16.9191C118.538 16.2639 119.227 15.9363 120.077 15.9363C120.431 15.9363 120.743 15.985 121.013 16.0824C121.283 16.1798 121.515 16.3104 121.71 16.4742C121.909 16.638 122.078 16.8217 122.215 17.0254H122.281C122.255 16.8837 122.221 16.6757 122.182 16.4012C122.146 16.1223 122.129 15.8367 122.129 15.5445V13.1672H124.161V23.5H122.607L122.215 22.5371H122.129C122 22.7408 121.839 22.9267 121.644 23.0949C121.453 23.2587 121.225 23.3893 120.96 23.4867C120.694 23.5841 120.382 23.6328 120.023 23.6328ZM120.734 22.0191C121.287 22.0191 121.677 21.8553 121.903 21.5277C122.133 21.1957 122.255 20.6977 122.268 20.0336V19.8145C122.268 19.0928 122.157 18.5417 121.936 18.1609C121.715 17.7758 121.303 17.5832 120.701 17.5832C120.254 17.5832 119.904 17.7758 119.652 18.1609C119.399 18.5461 119.273 19.1017 119.273 19.8277C119.273 20.5538 119.399 21.1005 119.652 21.468C119.908 21.8354 120.269 22.0191 120.734 22.0191ZM129.34 15.9363C130.026 15.9363 130.617 16.0691 131.113 16.3348C131.609 16.596 131.992 16.9767 132.262 17.477C132.532 17.9772 132.667 18.5882 132.667 19.3098V20.2926H127.879C127.901 20.8637 128.072 21.313 128.391 21.6406C128.714 21.9638 129.161 22.1254 129.732 22.1254C130.206 22.1254 130.64 22.0767 131.034 21.9793C131.428 21.8819 131.833 21.7358 132.249 21.541V23.1082C131.881 23.2897 131.496 23.4225 131.093 23.5066C130.695 23.5908 130.21 23.6328 129.639 23.6328C128.895 23.6328 128.236 23.4956 127.66 23.2211C127.089 22.9466 126.64 22.5283 126.312 21.966C125.989 21.4038 125.827 20.6954 125.827 19.841C125.827 18.9733 125.973 18.2517 126.266 17.6762C126.562 17.0962 126.974 16.6624 127.501 16.3746C128.028 16.0824 128.641 15.9363 129.34 15.9363ZM129.354 17.3773C128.96 17.3773 128.632 17.5035 128.371 17.7559C128.114 18.0082 127.966 18.4044 127.926 18.9445H130.768C130.764 18.6435 130.708 18.3757 130.602 18.141C130.5 17.9064 130.345 17.7204 130.137 17.5832C129.933 17.446 129.672 17.3773 129.354 17.3773ZM138.458 15.9363C138.56 15.9363 138.677 15.943 138.81 15.9562C138.947 15.9651 139.058 15.9784 139.142 15.9961L138.989 17.8953C138.923 17.8732 138.827 17.8577 138.704 17.8488C138.584 17.8355 138.48 17.8289 138.391 17.8289C138.13 17.8289 137.876 17.8621 137.628 17.9285C137.384 17.9949 137.165 18.1034 136.97 18.2539C136.776 18.4 136.621 18.5948 136.505 18.8383C136.395 19.0773 136.339 19.3717 136.339 19.7215V23.5H134.314V16.0758H135.848L136.147 17.3242H136.246C136.393 17.0719 136.574 16.8417 136.791 16.6336C137.012 16.4211 137.263 16.2529 137.541 16.1289C137.825 16.0005 138.13 15.9363 138.458 15.9363Z" fill="#9A98A4"/>
</svg>
