<svg width="163" height="24" viewBox="0 0 163 24" fill="none" xmlns="http://www.w3.org/2000/svg">
<g clip-path="url(#clip0_2469_191637)">
<path d="M31.4787 8.37488H34.2984C35.2223 8.37488 35.7799 9.0652 35.7799 9.92426C35.7799 10.7526 35.2223 11.4583 34.2984 11.4583H33.3903H31.4787V8.37488ZM28.2607 20.6779H34.5692C37.1658 20.6779 39.2846 18.6376 39.2846 16.0604C39.2846 14.8639 38.6792 13.6826 37.6278 12.9923C38.6314 12.3174 39.0615 11.1208 39.0934 9.95494C39.1731 7.25503 37.4048 5.30681 34.5692 5.30681H28.2607V20.6779ZM31.4787 14.5417H34.2984C35.2223 14.5417 35.9073 15.2013 35.9073 16.0604C35.9073 16.9195 35.2223 17.6098 34.2984 17.6098H33.3903H31.4787V14.5417ZM45.3062 20.6779V5.32215H42.1042V20.6779H45.3062ZM54.7052 20.6779V8.39022H58.6878V5.33749H47.5524V8.39022H51.5191V20.6779H54.7052ZM64.2793 12.3174L72.356 21H73.2003V5.33749H69.9824V14.0201L61.9376 5H61.0933V20.6779H64.2793V12.3174ZM85.0366 20.6779V17.6098H79.9867V14.5417H84.1764V11.4583H79.9867V8.39022H84.7817V5.32215H76.7847V20.6779H85.0366ZM93.4797 21L96.379 14.1275L99.2943 20.9386H99.8678L106.383 5.32215H102.799L99.581 13.1611L96.4587 5.47555H96.2994L93.177 13.1611L89.975 5.32215H86.3748L92.9221 21H93.4797ZM107.594 19.6961C109.761 20.7699 111.736 20.8773 112.628 20.8006C115.623 20.6625 117.455 18.6989 117.455 16.1524C117.455 13.698 115.304 12.3174 112.835 11.443C111.911 11.1361 111.131 10.7526 111.051 9.89358C110.987 9.03452 111.497 8.23682 112.628 8.17546C113.122 8.16011 114.125 8.12943 115.894 8.81975L116.292 5.85906C114.237 5.16874 113.138 5.16874 112.325 5.21477C109.665 5.33749 107.817 7.3164 107.817 9.89358C107.817 12.4708 110.047 13.698 112.548 14.5724C113.44 14.8792 114.125 15.2627 114.189 16.1524C114.285 16.9808 113.472 17.6251 112.548 17.6865C111.8 17.7632 109.824 17.7172 107.992 16.4746L107.594 19.6961ZM123.333 8.37488H126.169C127.077 8.37488 127.634 9.0652 127.634 9.92426C127.634 10.7526 127.077 11.4583 126.169 11.4583H125.261H123.333V8.37488ZM120.131 20.6779H126.44C129.02 20.6779 131.139 18.6376 131.139 16.0604C131.139 14.8639 130.534 13.6826 129.498 12.9923C130.502 12.3174 130.916 11.1208 130.964 9.95494C131.028 7.25503 129.275 5.30681 126.44 5.30681H120.131V20.6779ZM123.333 14.5417H126.169C127.077 14.5417 127.778 15.2013 127.778 16.0604C127.778 16.9195 127.077 17.6098 126.169 17.6098H125.261H123.333V14.5417ZM141.653 20.8926C152.613 20.8926 152.613 5.06136 141.653 5.06136C130.677 5.06136 130.677 20.8926 141.653 20.8926ZM141.653 17.7172C135.265 17.7172 135.265 8.22148 141.653 8.22148C148.025 8.22148 148.025 17.7172 141.653 17.7172ZM158.683 20.6779V8.39022H162.649V5.33749H151.53V8.39022H155.497V20.6779H158.683Z" fill="#9A98A4"/>
<path d="M9.40879 8.63114C9.40879 9.18528 8.91643 9.63461 8.30913 9.63461C7.70184 9.63461 7.21058 9.18528 7.21058 8.63114C7.21058 8.07888 7.70184 7.63141 8.30913 7.63141C8.91643 7.63141 9.40879 8.07888 9.40879 8.63114ZM2.48987 6.33114C2.48987 4.94554 3.66873 3.81728 5.11787 3.81728H22.4693C22.6319 3.81728 22.7881 3.83328 22.9412 3.85888C22.7345 3.52579 22.4414 3.25013 22.0908 3.05894C21.7402 2.86774 21.3439 2.76756 20.941 2.76821H20.6236L21.4594 0.193009L17.9524 -0.846191L16.7788 2.76821H7.75196L6.57809 -0.846191L3.07141 0.193009L3.90606 2.76821H3.58953C2.30295 2.76821 1.26172 3.76394 1.26172 4.99514V20.9271C1.26172 21.8138 1.80532 22.5778 2.58956 22.9362C2.52423 22.7167 2.49068 22.4896 2.48987 22.2613V6.33114ZM23.2699 4.99488V20.9269C23.2699 22.1581 22.2276 23.1538 20.941 23.1538H3.58953C3.494 23.1538 3.4015 23.1479 3.30901 23.1362C3.16458 22.8655 3.08921 22.5656 3.08913 22.2613V6.33114C3.08913 5.26021 3.99883 4.38928 5.11787 4.38928H22.4693C22.7256 4.38928 22.9796 4.43634 23.2176 4.52794C23.2516 4.67834 23.2699 4.83461 23.2699 4.99488ZM5.25052 8.63114C5.25052 10.2127 6.65535 11.4933 8.39027 11.4933C10.1241 11.4933 11.53 10.2125 11.53 8.63114C11.53 7.05354 10.1241 5.77088 8.39027 5.77088C6.65535 5.77088 5.25052 7.05354 5.25052 8.63114ZM20.3708 13.7298H5.75396V20.6717H20.3708V13.7298ZM20.8753 8.63114C20.8753 7.05354 19.4705 5.77088 17.7356 5.77088C16.0015 5.77088 14.5958 7.05354 14.5958 8.63114C14.5958 10.2127 16.0015 11.4933 17.7356 11.4933C19.4705 11.4933 20.8753 10.2127 20.8753 8.63114ZM17.8023 7.63168C17.195 7.63168 16.7024 8.07888 16.7024 8.63141C16.7024 9.18554 17.1948 9.63488 17.8023 9.63488C18.4085 9.63488 18.9009 9.18554 18.9009 8.63141C18.9009 8.07888 18.4088 7.63168 17.8023 7.63168ZM9.68212 14.7197H7.09123V16.9031H9.68212V14.7197ZM9.73335 17.4986H7.14246V19.6802H9.73335V17.4986ZM12.792 14.7197H10.2V16.9031H12.792V14.7197ZM12.8446 17.4986H10.2526V19.6802H12.8446V17.4986ZM16.0059 14.7197H13.4139V16.9031H16.0059V14.7197ZM16.0583 17.4986H13.4663V19.6802H16.0583V17.4986ZM19.1158 14.7197H16.5238V16.9031H19.1158V14.7197ZM19.1673 17.4986H16.5753V19.6802H19.1673V17.4986Z" fill="#9A98A4"/>
</g>
<defs>
<clipPath id="clip0_2469_191637">
<rect width="162" height="24" fill="white" transform="translate(0.222656)"/>
</clipPath>
</defs>
</svg>
