<svg width="161" height="28" viewBox="0 0 161 28" fill="none" xmlns="http://www.w3.org/2000/svg">
<mask id="mask0_2469_191483" style="mask-type:luminance" maskUnits="userSpaceOnUse" x="0" y="0" width="161" height="28">
<path d="M161 0H0V28H161V0Z" fill="white"/>
</mask>
<g mask="url(#mask0_2469_191483)">
<path fill-rule="evenodd" clip-rule="evenodd" d="M24.6556 17.1888C24.1804 17.4683 23.6099 17.5614 23.2297 17.282C22.6593 17.0024 22.3741 16.2573 22.3741 15.3257V12.3449C22.3741 10.9477 21.8037 9.92298 20.8531 9.64353C19.237 9.17777 18.0012 11.134 17.5258 11.8792L14.6739 16.4436V10.8545C14.6739 9.55038 14.1986 8.80517 13.438 8.61887C12.8677 8.43256 12.1072 8.52571 11.3467 9.64353L4.97737 19.7039C4.12179 18.1203 3.64647 16.3504 3.64647 14.4874C3.64647 8.43256 8.58981 3.49553 14.6739 3.49553C20.758 3.49553 25.7013 8.52571 25.7013 14.5806C25.7964 15.7916 25.4162 16.723 24.6556 17.1888ZM28.1731 14.5806C28.1731 7.12844 22.0889 1.16675 14.6739 1.16675C7.25891 1.16675 1.1748 7.2216 1.1748 14.5806C1.1748 21.9396 7.25891 27.9943 14.6739 27.9943C18.0962 27.9943 21.3284 26.6902 23.8952 24.3614C24.3704 23.8957 24.4655 23.1504 23.9902 22.5916C23.5149 22.1259 22.7544 22.0326 22.279 22.4984C20.2826 24.3614 17.5258 25.4792 14.7689 25.4792C11.5368 25.4792 8.58981 24.082 6.49839 21.8463L12.2973 12.7175V16.9094C12.2973 18.9587 13.0579 19.6108 13.7233 19.7971C14.3888 19.9833 15.4344 19.8902 16.4801 18.1204L19.6173 13.0901C19.7123 12.9038 19.8074 12.8107 19.9025 12.6244V15.1395C19.9025 17.0025 20.6629 18.4929 21.9938 19.2381C23.2297 19.8902 24.7507 19.8902 25.9865 19.0518C27.5076 18.3998 28.2681 16.6299 28.1731 14.5806ZM46.9957 10.0161C47.2809 10.2024 47.5662 10.6682 47.5662 11.0408C47.5662 11.6928 46.9957 12.1586 46.4253 12.1586C46.2353 12.1586 46.1402 12.1586 45.95 12.0655C45.1895 11.5065 44.3339 11.2271 43.3833 11.2271C41.1017 11.2271 39.5807 12.9969 39.5807 15.2326C39.5807 17.4683 41.1017 19.2381 43.3833 19.2381C44.5241 19.2381 45.4747 18.7724 46.2353 18.1204C46.4253 18.0271 46.7105 17.934 46.9007 17.934C47.4711 17.934 47.9463 18.3998 47.9463 19.0518C47.9463 19.4244 47.6612 19.7971 47.376 19.9833C46.3302 20.9149 44.8093 21.4737 43.2883 21.4737C39.8659 21.4737 37.014 18.6792 37.014 15.2326C37.014 11.786 39.8659 8.99146 43.2883 8.99146C44.8093 8.89832 46.0451 9.27093 46.9957 10.0161ZM53.365 12.6244C55.7417 12.6244 57.7379 14.5806 57.7379 17.0024C57.7379 19.4244 55.7417 21.4737 53.365 21.4737C50.8933 21.4737 48.802 19.4244 48.802 17.0024C48.802 14.5806 50.8933 12.6244 53.365 12.6244ZM53.365 19.2381C54.4108 19.2381 55.2663 18.3067 55.2663 17.0024C55.2663 15.6984 54.4108 14.86 53.365 14.86C52.2242 14.86 51.2736 15.6984 51.2736 17.0024C51.2736 18.3067 52.2242 19.2381 53.365 19.2381ZM59.1639 20.0765V13.9285C59.1639 13.2765 59.7344 12.7175 60.3997 12.7175C61.0652 12.7175 61.6356 13.2765 61.6356 13.9285V20.0765C61.6356 20.7286 61.0652 21.2875 60.3997 21.2875C59.7344 21.2875 59.1639 20.7286 59.1639 20.0765ZM58.9738 10.3887C58.9738 9.55038 59.6393 8.99146 60.3997 8.99146C61.1603 8.99146 61.8257 9.64353 61.8257 10.3887C61.8257 11.134 61.1603 11.7861 60.3997 11.7861C59.6393 11.7861 58.9738 11.134 58.9738 10.3887ZM66.2937 16.723V20.0765C66.2937 20.7286 65.7233 21.2875 65.0579 21.2875C64.3924 21.2875 63.8221 20.7286 63.8221 20.0765V13.649C63.8221 13.0902 64.2973 12.7175 64.7727 12.7175C65.2481 12.7175 65.7233 13.1833 65.7233 13.649C66.674 12.7175 67.6246 12.6244 68.3851 12.6244C70.8569 12.6244 71.9025 14.3942 71.9025 16.4436V20.0765C71.9025 20.7286 71.3321 21.2875 70.6667 21.2875C70.0012 21.2875 69.4309 20.7286 69.4309 20.0765V16.723C69.4309 15.6983 69.3358 14.7669 67.7197 14.7669C66.7691 14.7669 66.2937 15.6983 66.2937 16.723ZM79.983 18.0271C79.6978 18.0271 79.5076 17.934 79.3175 17.7477L76.4657 14.6737V20.0765C76.4657 20.7286 75.8952 21.2875 75.2297 21.2875C74.5643 21.2875 73.9939 20.7286 73.9939 20.0765V9.36407C74.089 9.17777 74.2791 9.08462 74.4693 9.08462C74.6594 9.08462 74.8495 9.27093 74.9446 9.36407L79.5076 14.3943C79.6027 14.5806 79.7928 14.6737 79.8879 14.6737C79.983 14.6737 80.1731 14.5806 80.2682 14.3943L84.8312 9.36407C84.9263 9.27093 85.1164 9.08462 85.3065 9.08462C85.4967 9.08462 85.6868 9.17777 85.7819 9.36407V20.0765C85.7819 20.7286 85.2115 21.2875 84.5461 21.2875C83.8806 21.2875 83.3103 20.7286 83.3103 20.0765V14.6737L80.4583 17.7477C80.3633 17.8408 80.1731 18.0271 79.983 18.0271ZM91.6759 19.2381C92.8167 19.2381 93.6722 18.3067 93.6722 17.0024C93.6722 15.6984 92.7216 14.86 91.6759 14.86C90.6301 14.86 89.7746 15.6984 89.7746 17.0024C89.7746 18.2134 90.6301 19.2381 91.6759 19.2381ZM94.3377 20.3559V20.0765C93.8624 21.008 92.3413 21.3806 91.3907 21.3806C89.1091 21.3806 87.398 19.3312 87.398 16.9094C87.398 14.4874 89.1091 12.5312 91.4858 12.5312C91.866 12.5312 93.2919 12.6244 94.3377 13.8353V13.5559C94.3377 12.9969 94.7179 12.6244 95.2883 12.6244C95.7637 12.6244 96.2389 13.0902 96.2389 13.5559V20.2628C96.2389 20.8216 95.7637 21.1943 95.2883 21.1943C94.7179 21.2875 94.3377 20.9149 94.3377 20.3559ZM102.988 14.7669H102.703C101.182 14.86 100.897 15.6983 100.897 16.723V20.0765C100.897 20.7286 100.327 21.2875 99.6613 21.2875C98.9958 21.2875 98.4255 20.7286 98.4255 20.0765V13.649C98.4255 13.0902 98.9007 12.7175 99.3761 12.7175C99.8514 12.7175 100.327 13.1833 100.327 13.649C101.277 12.8107 101.943 12.6244 102.703 12.6244H102.988C103.559 12.6244 104.129 13.0901 104.129 13.7422C104.034 14.3012 103.559 14.7669 102.988 14.7669ZM112.4 19.5175C112.495 19.7039 112.59 19.8902 112.59 20.0765C112.59 20.7286 112.02 21.2875 111.354 21.2875C110.879 21.2875 110.594 21.008 110.308 20.6355L107.457 17.4683V20.0765C107.457 20.7286 106.886 21.2875 106.221 21.2875C105.555 21.2875 104.985 20.7286 104.985 20.0765V10.2956C104.985 9.64353 105.555 9.08462 106.221 9.08462C106.886 9.08462 107.457 9.64353 107.457 10.2956V16.4436L110.308 13.3696C110.594 13.0901 110.974 12.7175 111.354 12.7175C111.925 12.7175 112.495 13.2765 112.495 13.9285C112.495 14.1148 112.495 14.3012 112.305 14.4874L110.118 16.9094L112.4 19.5175ZM117.153 14.86C116.488 14.86 115.442 15.2326 115.442 16.2573H118.959C118.959 15.1395 117.819 14.86 117.153 14.86ZM120.386 17.7477H115.442C115.442 19.1449 116.868 19.4244 117.438 19.4244C117.914 19.4244 118.579 19.3312 119.054 19.1449C119.244 19.0518 119.435 18.9587 119.72 18.9587C120.29 18.9587 120.67 19.4244 120.67 19.9833C120.67 20.3559 120.386 20.6355 120.1 20.8216C119.34 21.3806 118.389 21.4737 117.438 21.4737C114.967 21.4737 112.875 20.1696 112.875 17.0957C112.875 14.6737 114.111 12.6244 117.058 12.6244C119.435 12.6244 121.241 14.1148 121.241 16.8161C121.336 17.282 120.955 17.7477 120.386 17.7477ZM127.23 21.3806H126.565C124.663 21.3806 123.617 20.5422 123.617 17.7477V14.7669H122.952C122.382 14.7669 121.811 14.2079 121.811 13.649C121.811 12.9969 122.287 12.5312 122.952 12.5312H123.617V10.2956C123.617 9.64353 124.187 9.08462 124.854 9.08462C125.519 9.08462 126.089 9.64353 126.089 10.2956V12.5312H127.135C127.706 12.5312 128.276 12.9969 128.276 13.649C128.276 14.2079 127.8 14.7669 127.135 14.7669H126.089V17.282C126.089 18.9587 126.184 19.2381 126.944 19.2381H127.325C127.895 19.2381 128.371 19.7039 128.371 20.3559C128.276 20.9149 127.8 21.3806 127.23 21.3806ZM139.018 10.0161C139.302 10.2024 139.588 10.6682 139.588 11.0408C139.588 11.6928 139.018 12.1586 138.447 12.1586C138.258 12.1586 138.163 12.1586 137.972 12.0655C137.212 11.5065 136.356 11.2271 135.406 11.2271C133.123 11.2271 131.603 12.9969 131.603 15.2326C131.603 17.4683 133.123 19.2381 135.406 19.2381C136.547 19.2381 137.497 18.7724 138.258 18.1204C138.447 18.0271 138.732 17.934 138.923 17.934C139.493 17.934 139.969 18.3998 139.969 19.0518C139.969 19.4244 139.683 19.7971 139.398 19.9833C138.353 20.9149 136.831 21.4737 135.31 21.4737C131.888 21.4737 129.036 18.6792 129.036 15.2326C129.036 11.786 131.888 8.99146 135.31 8.99146C136.831 8.89832 138.067 9.27093 139.018 10.0161ZM145.292 19.2381C146.432 19.2381 147.289 18.3067 147.289 17.0024C147.289 15.6984 146.338 14.86 145.292 14.86C144.246 14.86 143.391 15.6984 143.391 17.0024C143.296 18.2134 144.151 19.2381 145.292 19.2381ZM147.859 20.3559V20.0765C147.383 21.008 145.862 21.3806 144.912 21.3806C142.631 21.3806 140.919 19.3312 140.919 16.9094C140.919 14.4874 142.631 12.5312 145.007 12.5312C145.388 12.5312 146.813 12.6244 147.859 13.8353V13.5559C147.859 12.9969 148.239 12.6244 148.81 12.6244C149.284 12.6244 149.76 13.0902 149.76 13.5559V20.2628C149.76 20.8216 149.284 21.1943 148.81 21.1943C148.239 21.2875 147.859 20.9149 147.859 20.3559ZM156.509 19.2381C157.555 19.2381 158.411 18.2134 158.411 17.0024C158.411 15.6984 157.555 14.86 156.509 14.86C155.464 14.86 154.513 15.6984 154.513 17.0024C154.419 18.3067 155.368 19.2381 156.509 19.2381ZM154.418 20.7285V23.8026C154.418 24.4547 153.848 25.0135 153.183 25.0135C152.517 25.0135 151.946 24.4547 151.946 23.8026V13.649C151.946 13.0902 152.422 12.7175 152.897 12.7175C153.373 12.7175 153.848 13.1833 153.848 13.7422C154.798 12.8107 155.844 12.6244 156.7 12.6244C159.076 12.6244 160.787 14.5806 160.787 17.0024C160.787 19.4244 159.076 21.4737 156.795 21.4737C156.13 21.3806 155.084 21.1943 154.418 20.7285Z" fill="#9A98A4"/>
</g>
</svg>
