<svg width="150" height="34" viewBox="0 0 150 34" fill="none" xmlns="http://www.w3.org/2000/svg">
<g clip-path="url(#clip0_2469_191529)">
<path d="M42.3789 26.819V31.5487H41.5979V26.819H42.3789ZM45.3092 27.7377C45.6059 27.7377 45.871 27.799 46.104 27.9215C46.341 28.044 46.526 28.2257 46.6589 28.4659C46.7911 28.7061 46.8576 28.9967 46.8576 29.337V31.5487H46.0834V29.4527C46.0834 29.1172 45.9984 28.8606 45.8299 28.6837C45.6607 28.502 45.4298 28.4115 45.1379 28.4115C44.8454 28.4115 44.6124 28.502 44.4391 28.6837C44.2699 28.8606 44.1856 29.1172 44.1856 29.4527V31.5487H43.4046V27.799H44.1856V28.2277C44.313 28.0732 44.4754 27.9535 44.672 27.867C44.8732 27.7808 45.0901 27.7368 45.3092 27.7377ZM49.4364 28.4319H48.7376V31.5487H47.9497V28.4319H47.5043V27.799H47.9497V27.5336C47.9497 27.1028 48.0634 26.7898 48.2922 26.5945C48.5252 26.3951 48.8883 26.295 49.3816 26.295V26.9415C49.1439 26.9415 48.9774 26.9871 48.8815 27.0776C48.7855 27.1641 48.7376 27.3158 48.7376 27.5336V27.799H49.4364V28.4319ZM51.7658 31.6099C51.4096 31.6099 51.0876 31.5303 50.7998 31.3718C50.512 31.2084 50.286 30.9818 50.1215 30.6912C49.9571 30.3966 49.8749 30.0563 49.8749 29.6704C49.8749 29.2894 49.9592 28.9511 50.1284 28.6565C50.2896 28.3692 50.5295 28.1332 50.8204 27.9759C51.1212 27.815 51.4584 27.733 51.8001 27.7377C52.1611 27.7377 52.488 27.8174 52.7798 27.9759C53.0724 28.1345 53.3033 28.3618 53.4718 28.6565C53.641 28.9511 53.7253 29.2894 53.7253 29.6704C53.7253 30.0515 53.6383 30.3898 53.4649 30.6844C53.2916 30.9791 53.0539 31.2084 52.7524 31.3718C52.4557 31.5303 52.1269 31.6099 51.7658 31.6099ZM51.7658 30.9362C51.9673 30.9362 52.1543 30.8886 52.3276 30.7933C52.5058 30.698 52.6496 30.5551 52.7593 30.3646C52.8689 30.174 52.9237 29.9427 52.9237 29.6704C52.9237 29.3982 52.8716 29.1689 52.7661 28.9831C52.6714 28.8031 52.5262 28.6542 52.3482 28.5544C52.1764 28.4596 51.9829 28.4103 51.7864 28.4115C51.5856 28.4115 51.3979 28.4591 51.2246 28.5544C51.0554 28.6497 50.9211 28.7926 50.8204 28.9831C50.7203 29.1689 50.6696 29.3982 50.6696 29.6704C50.6696 30.074 50.7724 30.387 50.9779 30.6096C51.1883 30.8273 51.4507 30.9362 51.7658 30.9362ZM55.2785 28.3434C55.3929 28.1529 55.5436 28.0052 55.7306 27.9011C55.9225 27.7922 56.1486 27.7377 56.4089 27.7377V28.5408H56.2102C55.904 28.5408 55.671 28.6177 55.5114 28.7721C55.3559 28.9266 55.2785 29.1941 55.2785 29.5752V31.5487H54.4974V27.799H55.2785V28.3434ZM61.6967 27.7377C61.9934 27.7377 62.2585 27.799 62.4915 27.9215C62.7292 28.044 62.9142 28.2257 63.0464 28.4659C63.1834 28.7061 63.252 28.9967 63.252 29.337V31.5487H62.4778V29.4527C62.4778 29.1172 62.3935 28.8606 62.2243 28.6837C62.055 28.502 61.8248 28.4115 61.5323 28.4115C61.2397 28.4115 61.0068 28.502 60.8335 28.6837C60.6642 28.8606 60.58 29.1172 60.58 29.4527V31.5487H59.8058V29.4527C59.8058 29.1172 59.7215 28.8606 59.5523 28.6837C59.3831 28.502 59.1529 28.4115 58.8603 28.4115C58.5678 28.4115 58.3348 28.502 58.1615 28.6837C57.9923 28.8606 57.908 29.1172 57.908 29.4527V31.5487H57.1269V27.799H57.908V28.2277C58.0361 28.0732 58.1978 27.9535 58.3944 27.867C58.593 27.7804 58.8078 27.7363 59.0247 27.7377C59.3262 27.7377 59.5954 27.801 59.8332 27.9283C60.0709 28.0556 60.2532 28.2393 60.3813 28.4795C60.4987 28.2494 60.6855 28.0615 60.9157 27.9419C61.1575 27.8058 61.4179 27.7377 61.6967 27.7377ZM63.985 29.6568C63.985 29.2805 64.0631 28.947 64.218 28.6565C64.3669 28.3774 64.59 28.1443 64.863 27.9823C65.136 27.8203 65.4484 27.7358 65.7664 27.7377C66.0637 27.7377 66.3213 27.797 66.5406 27.9147C66.7646 28.0283 66.9427 28.1712 67.075 28.3434V27.799H67.8629V31.5487H67.075V30.9907C66.9427 31.1676 66.7625 31.3153 66.5337 31.433C66.3056 31.5507 66.0452 31.6099 65.7527 31.6099C65.4286 31.6099 65.1319 31.5283 64.862 31.365C64.5896 31.1939 64.3674 30.9545 64.218 30.6708C64.0592 30.3564 63.9793 30.0085 63.985 29.6568ZM67.075 29.6704C67.075 29.4118 67.0201 29.1873 66.9105 28.9967C66.8147 28.8158 66.67 28.6649 66.4926 28.5612C66.3222 28.4622 66.1282 28.4105 65.9308 28.4115C65.7301 28.4115 65.543 28.4611 65.369 28.5612C65.1957 28.6565 65.0538 28.7994 64.9442 28.9899C64.8394 29.1757 64.7866 29.3982 64.7866 29.6568C64.7866 29.9154 64.8394 30.1421 64.9442 30.3374C65.0538 30.5327 65.1957 30.6824 65.369 30.7865C65.5399 30.8841 65.7336 30.9355 65.9308 30.9355C66.128 30.9355 66.3217 30.8841 66.4926 30.7865C66.6666 30.6865 66.8057 30.5415 66.9105 30.351C67.0201 30.1557 67.075 29.929 67.075 29.6704ZM69.8004 28.4319V30.5075C69.8004 30.6484 69.8326 30.7504 69.8963 30.8137C69.9648 30.8729 70.0792 30.9022 70.2389 30.9022H70.7185V31.5487H70.1018C69.7504 31.5487 69.4804 31.467 69.2934 31.3037C69.1064 31.1404 69.0125 30.875 69.0125 30.5075V28.4319H68.5672V27.799H69.0125V26.8667H69.8004V27.799H70.7185V28.4319H69.8004ZM71.8352 27.3022C71.7691 27.3038 71.7035 27.292 71.6422 27.2674C71.5809 27.2428 71.5254 27.206 71.4789 27.1593C71.4319 27.1132 71.3949 27.058 71.3701 26.9972C71.3454 26.9363 71.3334 26.871 71.3351 26.8054C71.3351 26.6646 71.383 26.5468 71.4789 26.4515C71.5749 26.3563 71.6941 26.3086 71.8352 26.3086C71.9722 26.3086 72.0887 26.3563 72.1846 26.4515C72.2805 26.5468 72.3285 26.6646 72.3285 26.8054C72.3285 26.9463 72.2805 27.064 72.1846 27.1593C72.0887 27.2546 71.9722 27.3022 71.8352 27.3022ZM72.2189 27.799V31.5487H71.4378V27.799H72.2189ZM74.882 31.6099C74.5257 31.6099 74.2037 31.5303 73.9159 31.3718C73.6282 31.2084 73.4021 30.9818 73.2377 30.6912C73.0732 30.3966 72.991 30.0563 72.991 29.6704C72.991 29.2894 73.076 28.9511 73.2445 28.6565C73.4058 28.3692 73.6457 28.1332 73.9365 27.9759C74.229 27.8174 74.5558 27.7377 74.9162 27.7377C75.2773 27.7377 75.6041 27.8174 75.8959 27.9759C76.1885 28.1345 76.4194 28.3618 76.5879 28.6565C76.7572 28.9511 76.8414 29.2894 76.8414 29.6704C76.8414 30.0515 76.7551 30.3898 76.5811 30.6844C76.4077 30.9791 76.17 31.2084 75.8685 31.3718C75.5719 31.5303 75.243 31.6099 74.882 31.6099ZM74.882 30.9362C75.0834 30.9362 75.2704 30.8886 75.4438 30.7933C75.6219 30.698 75.7658 30.5551 75.8754 30.3646C75.985 30.174 76.0398 29.9427 76.0398 29.6704C76.0398 29.3982 75.9878 29.1689 75.8822 28.9831C75.7876 28.8031 75.6424 28.6542 75.4643 28.5544C75.2925 28.4596 75.099 28.4103 74.9025 28.4115C74.7018 28.4115 74.5147 28.4591 74.3407 28.5544C74.1722 28.6497 74.0372 28.7926 73.9365 28.9831C73.8365 29.1689 73.7858 29.3982 73.7858 29.6704C73.7858 30.074 73.8885 30.387 74.0941 30.6096C74.3044 30.8273 74.5668 30.9362 74.882 30.9362ZM79.5182 27.7377C79.8156 27.7377 80.08 27.799 80.313 27.9215C80.5507 28.044 80.7357 28.2257 80.8679 28.4659C81.0008 28.7061 81.0666 28.9967 81.0666 29.337V31.5487H80.2924V29.4527C80.2924 29.1172 80.2081 28.8606 80.0389 28.6837C79.8704 28.502 79.6395 28.4115 79.3469 28.4115C79.0551 28.4115 78.8221 28.502 78.6481 28.6837C78.4796 28.8606 78.3946 29.1172 78.3946 29.4527V31.5487H77.6136V27.799H78.3946V28.2277C78.5227 28.0732 78.6851 27.9535 78.881 27.867C79.0822 27.7808 79.2991 27.7368 79.5182 27.7377ZM84.2401 27.3022C84.174 27.3038 84.1083 27.292 84.0471 27.2674C83.9858 27.2428 83.9302 27.206 83.8838 27.1593C83.8368 27.1132 83.7997 27.058 83.775 26.9972C83.7503 26.9363 83.7383 26.871 83.74 26.8054C83.74 26.6646 83.7879 26.5468 83.8838 26.4515C83.9797 26.3563 84.0983 26.3086 84.2401 26.3086C84.3771 26.3086 84.4936 26.3563 84.5895 26.4515C84.6854 26.5468 84.7334 26.6646 84.7334 26.8054C84.7334 26.9463 84.6854 27.064 84.5895 27.1593C84.4936 27.2546 84.3771 27.3022 84.2401 27.3022ZM84.6238 27.799V31.5487H83.8427V27.799H84.6238ZM87.0196 31.6099C86.723 31.6099 86.4558 31.5575 86.218 31.4534C85.9851 31.3445 85.8001 31.1996 85.6631 31.0179C85.5283 30.8384 85.4518 30.6224 85.4439 30.3986H86.2523C86.266 30.5572 86.3414 30.6912 86.4784 30.8001C86.6202 30.9042 86.7956 30.9566 87.0059 30.9566C87.2252 30.9566 87.3944 30.9158 87.5129 30.8341C87.6363 30.7477 87.6979 30.6388 87.6979 30.5075C87.6979 30.3666 87.6294 30.2625 87.4924 30.1945C87.3601 30.1264 87.1478 30.0515 86.8552 29.9699C86.6203 29.9086 86.3893 29.8336 86.1632 29.7453C85.9838 29.6719 85.8242 29.5577 85.6973 29.4118C85.5692 29.2621 85.5055 29.0648 85.5055 28.8198C85.5055 28.6204 85.5651 28.4387 85.6837 28.2754C85.8022 28.1073 85.9714 27.9759 86.1906 27.8807C86.4147 27.7854 86.6702 27.7377 86.958 27.7377C87.3876 27.7377 87.7322 27.8466 87.9925 28.0644C88.2577 28.2774 88.3988 28.57 88.4173 28.9423H87.6363C87.6323 28.8648 87.612 28.789 87.5765 28.7198C87.5411 28.6506 87.4914 28.5896 87.4307 28.5408C87.3074 28.4407 87.1409 28.3911 86.9306 28.3911C86.725 28.3911 86.5675 28.4298 86.4578 28.5067C86.4065 28.5397 86.3645 28.5852 86.3358 28.6387C86.307 28.6923 86.2924 28.7523 86.2934 28.813C86.2934 28.913 86.3297 28.9967 86.403 29.0648C86.4763 29.1328 86.5654 29.1873 86.6702 29.2281C86.7751 29.2642 86.9306 29.3118 87.1361 29.371C87.4102 29.4438 87.6342 29.5187 87.8075 29.5956C87.9857 29.6684 88.1385 29.7773 88.2666 29.9222C88.3947 30.0672 88.4605 30.2605 88.4653 30.5007C88.4653 30.7137 88.4057 30.9042 88.2871 31.0723C88.1686 31.2404 87.9994 31.3718 87.7801 31.467C87.5657 31.5623 87.3122 31.6099 87.0196 31.6099ZM91.9998 28.4319V30.5075C91.9998 30.6484 92.032 30.7504 92.0957 30.8137C92.1643 30.8729 92.2787 30.9022 92.4383 30.9022H92.9179V31.5487H92.3013C91.9498 31.5487 91.6805 31.467 91.4928 31.3037C91.3058 31.1404 91.2119 30.875 91.2119 30.5075V28.4319H90.7666V27.799H91.2119V26.8667H91.9998V27.799H92.9179V28.4319H91.9998ZM95.5906 27.7377C95.8783 27.7377 96.1339 27.799 96.3579 27.9215C96.5861 28.044 96.7642 28.2257 96.8923 28.4659C97.0245 28.7061 97.091 28.9967 97.091 29.337V31.5487H96.3168V29.4527C96.3168 29.1172 96.2325 28.8606 96.0633 28.6837C95.8941 28.502 95.6639 28.4115 95.3713 28.4115C95.0788 28.4115 94.8458 28.502 94.6725 28.6837C94.5033 28.8606 94.419 29.1172 94.419 29.4527V31.5487H93.638V26.5128H94.419V28.2345C94.5537 28.0741 94.7252 27.9481 94.9191 27.867C95.1247 27.7806 95.3487 27.7377 95.5906 27.7377ZM101.547 29.582C101.547 29.7228 101.538 29.8494 101.52 29.9631H98.6353C98.6586 30.2625 98.7702 30.5027 98.971 30.6844C99.1724 30.8661 99.419 30.9566 99.7109 30.9566C100.132 30.9566 100.428 30.7817 100.602 30.4326H101.444C101.331 30.7777 101.122 31.0608 100.821 31.2833C100.524 31.5011 100.154 31.6099 99.7109 31.6099C99.3505 31.6099 99.0258 31.5303 98.738 31.3718C98.4562 31.2097 98.2241 30.9744 98.0666 30.6912C97.907 30.3966 97.8268 30.0563 97.8268 29.6704C97.8268 29.2846 97.9049 28.947 98.0598 28.6565C98.2201 28.3618 98.4414 28.1345 98.7243 27.9759C99.0121 27.8174 99.3409 27.7377 99.7109 27.7377C100.067 27.7377 100.385 27.8146 100.663 27.9691C100.942 28.1236 101.159 28.3414 101.314 28.6224C101.47 28.8994 101.547 29.2193 101.547 29.582ZM100.732 29.337C100.728 29.0512 100.625 28.8218 100.423 28.6497C100.223 28.4775 99.974 28.3911 99.6767 28.3911C99.4074 28.3911 99.1765 28.4775 98.9847 28.6497C98.7928 28.8177 98.6791 29.0464 98.6421 29.337H100.732ZM103.835 29.6568C103.835 29.2805 103.913 28.947 104.068 28.6565C104.217 28.377 104.44 28.1435 104.713 27.9815C104.986 27.8195 105.299 27.7352 105.617 27.7377C105.913 27.7377 106.172 27.797 106.391 27.9147C106.614 28.0283 106.792 28.1712 106.925 28.3434V27.799H107.713V31.5487H106.925V30.9907C106.792 31.1676 106.612 31.3153 106.384 31.433C106.155 31.5507 105.895 31.6099 105.603 31.6099C105.278 31.6099 104.982 31.5283 104.712 31.365C104.44 31.1941 104.218 30.9546 104.068 30.6708C103.909 30.3565 103.829 30.0086 103.835 29.6568ZM106.925 29.6704C106.925 29.4118 106.87 29.1873 106.761 28.9967C106.665 28.8159 106.52 28.6651 106.343 28.5612C106.173 28.4623 105.978 28.4106 105.781 28.4115C105.58 28.4115 105.393 28.4611 105.219 28.5612C105.045 28.6565 104.904 28.7994 104.795 28.9899C104.689 29.1757 104.637 29.3982 104.637 29.6568C104.637 29.9154 104.689 30.1421 104.795 30.3374C104.904 30.5327 105.045 30.6824 105.219 30.7865C105.39 30.8842 105.584 30.9356 105.781 30.9356C105.978 30.9356 106.172 30.8842 106.343 30.7865C106.516 30.6865 106.655 30.5415 106.761 30.351C106.87 30.1557 106.925 29.929 106.925 29.6704ZM110.109 31.6099C109.812 31.6099 109.545 31.5575 109.307 31.4534C109.075 31.3445 108.89 31.1996 108.753 31.0179C108.618 30.8384 108.541 30.6224 108.533 30.3986H109.342C109.355 30.5572 109.431 30.6912 109.568 30.8001C109.71 30.9042 109.885 30.9566 110.095 30.9566C110.315 30.9566 110.484 30.9158 110.602 30.8341C110.726 30.7477 110.787 30.6388 110.787 30.5075C110.787 30.3666 110.719 30.2625 110.582 30.1945C110.45 30.1264 110.237 30.0515 109.945 29.9699C109.71 29.9086 109.479 29.8336 109.253 29.7453C109.073 29.6719 108.914 29.5577 108.787 29.4118C108.659 29.2621 108.595 29.0648 108.595 28.8198C108.595 28.6204 108.655 28.4387 108.773 28.2754C108.892 28.1073 109.061 27.9759 109.28 27.8807C109.504 27.7854 109.76 27.7377 110.047 27.7377C110.477 27.7377 110.822 27.8466 111.082 28.0644C111.347 28.2774 111.488 28.57 111.507 28.9423H110.726C110.722 28.8648 110.701 28.789 110.666 28.7198C110.631 28.6506 110.581 28.5896 110.52 28.5408C110.397 28.4407 110.23 28.3911 110.02 28.3911C109.814 28.3911 109.657 28.4298 109.547 28.5067C109.496 28.5397 109.454 28.5852 109.425 28.6387C109.396 28.6923 109.382 28.7523 109.383 28.813C109.383 28.913 109.419 28.9967 109.492 29.0648C109.566 29.1328 109.655 29.1873 109.76 29.2281C109.864 29.2642 110.02 29.3118 110.226 29.371C110.5 29.4438 110.724 29.5187 110.897 29.5956C111.075 29.6684 111.228 29.7773 111.356 29.9222C111.484 30.0672 111.55 30.2605 111.555 30.5007C111.555 30.7137 111.495 30.9042 111.377 31.0723C111.258 31.2404 111.089 31.3718 110.87 31.467C110.655 31.5623 110.402 31.6099 110.109 31.6099ZM113.769 31.6099C113.472 31.6099 113.205 31.5575 112.967 31.4534C112.734 31.3445 112.549 31.1996 112.412 31.0179C112.278 30.8384 112.201 30.6224 112.193 30.3986H113.002C113.015 30.5572 113.091 30.6912 113.228 30.8001C113.37 30.9042 113.545 30.9566 113.755 30.9566C113.975 30.9566 114.144 30.9158 114.262 30.8341C114.386 30.7477 114.447 30.6388 114.447 30.5075C114.447 30.3666 114.379 30.2625 114.242 30.1945C114.11 30.1264 113.897 30.0515 113.605 29.9699C113.37 29.9086 113.139 29.8336 112.913 29.7453C112.733 29.6719 112.574 29.5577 112.447 29.4118C112.319 29.2621 112.255 29.0648 112.255 28.8198C112.255 28.6204 112.314 28.4387 112.433 28.2754C112.552 28.1073 112.721 27.9759 112.94 27.8807C113.164 27.7854 113.42 27.7377 113.707 27.7377C114.137 27.7377 114.482 27.8466 114.742 28.0644C115.007 28.2774 115.148 28.57 115.167 28.9423H114.386C114.382 28.8648 114.361 28.789 114.326 28.7198C114.29 28.6506 114.241 28.5896 114.18 28.5408C114.057 28.4407 113.89 28.3911 113.68 28.3911C113.474 28.3911 113.317 28.4298 113.207 28.5067C113.156 28.5397 113.114 28.5852 113.085 28.6387C113.056 28.6923 113.042 28.7523 113.043 28.813C113.043 28.913 113.079 28.9967 113.152 29.0648C113.226 29.1328 113.315 29.1873 113.42 29.2281C113.524 29.2642 113.68 29.3118 113.885 29.371C114.16 29.4438 114.384 29.5187 114.557 29.5956C114.735 29.6684 114.888 29.7773 115.016 29.9222C115.144 30.0672 115.21 30.2605 115.215 30.5007C115.215 30.7137 115.155 30.9042 115.036 31.0723C114.918 31.2404 114.749 31.3718 114.529 31.467C114.315 31.5623 114.062 31.6099 113.769 31.6099ZM119.519 29.582C119.519 29.7228 119.509 29.8494 119.491 29.9631H116.607C116.629 30.2625 116.741 30.5027 116.942 30.6844C117.143 30.8661 117.39 30.9566 117.682 30.9566C118.102 30.9566 118.399 30.7817 118.573 30.4326H119.416C119.304 30.7745 119.085 31.0723 118.792 31.2833C118.495 31.5011 118.125 31.6099 117.682 31.6099C117.321 31.6099 116.997 31.5303 116.71 31.3718C116.428 31.2099 116.195 30.9746 116.038 30.6912C115.878 30.3966 115.798 30.0563 115.798 29.6704C115.798 29.2846 115.876 28.947 116.031 28.6565C116.191 28.3618 116.412 28.1345 116.696 27.9759C116.984 27.8174 117.312 27.7377 117.682 27.7377C118.039 27.7377 118.356 27.8146 118.635 27.9691C118.91 28.1205 119.136 28.3473 119.286 28.6224C119.44 28.8994 119.519 29.2193 119.519 29.582ZM118.703 29.337C118.698 29.0512 118.596 28.8218 118.395 28.6497C118.194 28.4775 117.945 28.3911 117.648 28.3911C117.378 28.3911 117.148 28.4775 116.956 28.6497C116.764 28.8177 116.65 29.0464 116.614 29.337H118.703ZM121.199 28.4319V30.5075C121.199 30.6484 121.23 30.7504 121.294 30.8137C121.363 30.8729 121.477 30.9022 121.637 30.9022H122.117V31.5487H121.5C121.148 31.5487 120.879 31.467 120.692 31.3037C120.504 31.1404 120.411 30.875 120.411 30.5075V28.4319H119.965V27.799H120.411V26.8667H121.199V27.799H122.117V28.4319H121.199ZM68.4329 2.96655C69.0111 2.96655 69.5085 3.17207 69.9265 3.58243C70.3437 3.97714 70.552 4.45078 70.552 5.00405C70.552 5.54099 70.3437 6.01463 69.9258 6.42499C69.5085 6.83603 69.0111 7.04087 68.4329 7.04087C67.8553 7.04087 67.3572 6.83603 66.94 6.42499C66.5385 6.01463 66.3378 5.54031 66.3378 5.00405C66.3378 4.45078 66.5385 3.97714 66.9407 3.58243C67.3565 3.17207 67.8553 2.96655 68.4329 2.96655ZM70.2156 9.19678V21.1605H67.1565V11.7556H65.2059V9.19678H70.2156ZM49.681 9.31587C49.1027 9.03073 48.3642 8.88918 47.4653 8.88918C46.55 8.88918 45.6997 9.06272 44.9125 9.40979C44.1525 9.75016 43.4657 10.2331 42.89 10.8321C42.3154 11.4115 41.8577 12.0948 41.5417 12.8451C41.236 13.6061 41.0807 14.4185 41.084 15.2378C41.084 16.3593 41.3567 17.4019 41.9028 18.3648C42.4561 19.3035 43.2335 20.0925 44.1664 20.6623C45.1297 21.2312 46.2286 21.5157 47.4653 21.5157C48.3642 21.5157 49.1027 21.3891 49.681 21.1366C50.2586 20.8678 50.7155 20.5915 51.0533 20.3071V17.5591C50.6354 17.8592 50.1626 18.1124 49.6323 18.3172C49.1185 18.5071 48.4848 18.6017 47.7304 18.6017C46.7507 18.6017 45.9402 18.2859 45.2982 17.6537C44.6556 17.0222 44.335 16.2171 44.335 15.2378C44.335 14.59 44.4877 14.0136 44.7926 13.5086C45.0919 13.0087 45.5144 12.5927 46.0204 12.3C46.5404 12.0026 47.1304 11.8473 47.7304 11.8502C48.4841 11.8502 49.1185 11.9522 49.6323 12.1578C50.1365 12.3494 50.6141 12.6041 51.0533 12.9159V10.1448C50.7162 9.87595 50.2586 9.60033 49.681 9.31587Z" fill="#9A98A4"/>
<path fill-rule="evenodd" clip-rule="evenodd" d="M61.4051 9.74186C60.4254 9.17294 59.3415 8.88916 58.1535 8.88916C56.9819 8.88916 55.8981 9.17294 54.9026 9.74186C53.9324 10.286 53.1197 11.0693 52.543 12.0162C51.949 12.9635 51.6523 14.0292 51.6523 15.214C51.6523 16.3981 51.949 17.4645 52.543 18.4125C53.1288 19.352 53.9394 20.133 54.9026 20.6861C55.8981 21.2387 56.9819 21.5157 58.1535 21.5157C59.3415 21.5157 60.4254 21.2387 61.4044 20.6861C62.3679 20.1329 63.1788 19.3516 63.7647 18.4118C64.3744 17.4645 64.6793 16.3981 64.6793 15.214C64.6793 14.0299 64.3744 12.9635 63.7647 12.0155C63.1877 11.0688 62.3748 10.2857 61.4044 9.74186H61.4051ZM56.5407 12.2054C57.0353 11.9377 57.5902 11.799 58.1535 11.8025C58.7317 11.8025 59.2696 11.9372 59.767 12.2054C60.2673 12.4763 60.6838 12.8777 60.9714 13.3663C61.2763 13.8713 61.4284 14.4879 61.4284 15.214C61.4284 15.9401 61.2763 16.5567 60.9714 17.0616C60.6838 17.5503 60.2673 17.9517 59.767 18.2226C59.2676 18.4757 58.7142 18.6057 58.1535 18.6016C57.5929 18.6057 57.0394 18.4757 56.54 18.2226C56.0399 17.9516 55.6237 17.5502 55.3363 17.0616C55.0471 16.5567 54.9026 15.9401 54.9026 15.214C54.9026 14.4879 55.0471 13.8713 55.3363 13.3663C55.6239 12.8777 56.0403 12.4763 56.5407 12.2054Z" fill="#9A98A4"/>
<path d="M74.576 10.9028V9.19671H71.5176V21.1604H74.576V13.5793C74.9099 13.1087 75.3161 12.6931 75.7797 12.3475C76.2614 12.0005 76.7752 11.8263 77.3213 11.8263C78.0112 11.8263 78.549 12.0236 78.9341 12.4183C79.3355 12.813 79.537 13.4133 79.537 14.219L79.5603 21.1604H82.6187V13.8154C82.6187 12.1733 82.2014 10.9416 81.3663 10.1202C80.5318 9.29879 79.4959 8.88843 78.2599 8.88843C77.4412 8.88843 76.7115 9.10143 76.0689 9.52812C75.4427 9.95413 74.9453 10.4128 74.5753 10.9014L74.576 10.9028Z" fill="#9A98A4"/>
<path fill-rule="evenodd" clip-rule="evenodd" d="M91.1571 8.88895C92.1203 8.88895 93.011 9.13394 93.8297 9.62324C94.6649 10.0969 95.3308 10.7999 95.8289 11.7315C96.3421 12.6475 96.599 13.769 96.599 15.0954C96.599 16.4224 96.3421 17.567 95.8289 18.53C95.3308 19.4936 94.6485 20.2361 93.7818 20.7574C92.9309 21.2623 91.984 21.5155 90.9406 21.5155C90.2664 21.5155 89.5922 21.3569 88.9174 21.0411C88.2597 20.7097 87.7054 20.2994 87.256 19.8094V24.1226H84.1982V9.19655H87.256V11.2102C87.6095 10.5624 88.1233 10.0179 88.7975 9.57561C89.4717 9.11761 90.2582 8.88827 91.1571 8.88827V8.88895ZM90.3863 11.8969C89.8409 11.8969 89.3271 12.0398 88.8454 12.3236C88.3638 12.5924 87.9705 12.9789 87.6657 13.4846C87.3765 13.9895 87.2402 14.5979 87.256 15.3084V17.0376C87.6896 17.4799 88.1548 17.8515 88.6529 18.1516C89.1668 18.4354 89.7204 18.5776 90.3144 18.5776C90.9406 18.5776 91.4859 18.4116 91.9518 18.0808C92.4155 17.7515 92.7883 17.3115 93.0357 16.8014C93.2916 16.2688 93.4232 15.6856 93.4207 15.0954C93.4207 14.195 93.1398 13.4369 92.578 12.821C92.032 12.2052 91.3016 11.8969 90.3863 11.8969ZM114.451 24.1226V19.8094C114.9 20.2994 115.454 20.7097 116.112 21.0411C116.786 21.3576 117.46 21.5155 118.135 21.5155C119.178 21.5155 120.126 21.2623 120.976 20.7574C121.843 20.2361 122.526 19.4936 123.023 18.53C123.537 17.567 123.794 16.4217 123.794 15.0954C123.794 13.7683 123.537 12.6475 123.023 11.7315C122.526 10.7992 121.86 10.0969 121.024 9.62324C120.219 9.13712 119.294 8.88268 118.352 8.88827C117.453 8.88827 116.666 9.11761 115.991 9.57561C115.317 10.0179 114.803 10.5624 114.451 11.2102V9.19655H111.392V24.1239H114.451V24.1226ZM117.581 11.8969C117.035 11.8969 116.522 12.0398 116.04 12.3236C115.558 12.5924 115.165 12.9789 114.86 13.4846C114.571 13.9895 114.434 14.5979 114.451 15.3084V17.0376C114.884 17.4799 115.35 17.8515 115.847 18.1516C116.361 18.4354 116.915 18.5776 117.509 18.5776C118.135 18.5776 118.681 18.4116 119.146 18.0808C119.61 17.7513 119.982 17.3114 120.23 16.8014C120.486 16.2688 120.618 15.6856 120.615 15.0954C120.615 14.195 120.335 13.4369 119.772 12.821C119.227 12.2052 118.496 11.8969 117.581 11.8969ZM105.103 9.33878C104.429 9.03935 103.763 8.88895 103.104 8.88895C102.061 8.88895 101.106 9.1496 100.239 9.6702C99.3882 10.1758 98.7058 10.902 98.1919 11.8499C97.6945 12.7972 97.4458 13.9344 97.4458 15.2614C97.4458 16.5878 97.6945 17.7168 98.1919 18.6484C98.69 19.5807 99.3477 20.2912 100.166 20.7805C100.989 21.267 101.93 21.5211 102.888 21.5155C103.787 21.5155 104.573 21.2861 105.247 20.8281C105.922 20.3545 106.435 19.7937 106.789 19.1465V21.1595H109.847V9.19655H106.789V10.5467C106.339 10.0418 105.778 9.6389 105.103 9.33878ZM102.069 12.3236C102.534 11.9922 103.089 11.8268 103.73 11.8268C104.324 11.8268 104.871 11.9602 105.368 12.2283C105.899 12.5105 106.38 12.879 106.789 13.3185V15.0239C106.789 15.7507 106.636 16.3748 106.331 16.8954C106.058 17.3847 105.659 17.7935 105.175 18.0802C104.72 18.3615 104.195 18.5094 103.659 18.5068C102.743 18.5068 102.005 18.1911 101.443 17.5589C100.897 16.9273 100.624 16.1611 100.624 15.2614C100.624 14.6612 100.752 14.1004 101.009 13.5791C101.249 13.0779 101.614 12.6458 102.069 12.3236ZM133.863 9.64706C133.012 9.14143 131.993 8.88895 130.805 8.88895C129.617 8.88895 128.557 9.18839 127.626 9.78861C126.705 10.3614 125.951 11.1615 125.435 12.1106C124.905 13.0735 124.64 14.1399 124.64 15.309C124.64 16.5088 124.929 17.5752 125.507 18.5068C126.091 19.4295 126.904 20.1879 127.867 20.7097C128.862 21.2473 129.962 21.5155 131.166 21.5155C132.081 21.5155 132.915 21.3494 133.67 21.018C134.441 20.6702 135.019 20.3307 135.404 19.9992L135.428 17.2036C134.995 17.567 134.417 17.9223 133.694 18.27C132.972 18.6171 132.169 18.7906 131.286 18.7906C130.355 18.7906 129.569 18.5456 128.926 18.0563C128.284 17.5664 127.883 16.9199 127.722 16.1141H136.536V14.8347C136.536 13.6663 136.303 12.6393 135.838 11.7553C135.405 10.8733 134.717 10.1393 133.863 9.64706ZM128.83 12.2058C129.344 11.7472 129.978 11.5185 130.732 11.5185C131.423 11.5185 132.057 11.7315 132.635 12.1582C133.213 12.5686 133.533 13.2001 133.598 14.0528H127.77C127.963 13.279 128.316 12.6638 128.83 12.2058Z" fill="#9A98A4"/>
<g clip-path="url(#clip1_2469_191529)">
<path d="M144.149 12.5607C143.661 12.2824 143.109 12.1356 142.547 12.1347C141.846 12.1347 141.263 12.3634 140.801 12.822C140.338 13.2637 139.932 13.8163 139.581 14.4798V21.1599H136.544V9.19687H139.581V11.4474C139.995 10.7369 140.482 10.1448 141.04 9.6712C141.614 9.19687 142.26 8.96004 142.977 8.96004C143.408 8.96004 143.799 9.03082 144.149 9.17305V12.5607ZM24.4792 31.3079V7.0498C17.7161 7.0498 12.2324 12.4804 12.2324 19.1788C12.2324 25.8773 17.7161 31.3079 24.4792 31.3079ZM26.2281 27.0104C31.5621 27.0104 35.8848 22.7285 35.8848 17.4462C35.8848 12.164 31.5621 7.88141 26.2281 7.88141V7.0498C32.0262 7.0498 36.7253 11.7046 36.7253 17.4462C36.7253 23.1878 32.0256 27.8426 26.2281 27.8426V27.0104Z" fill="#9A98A4"/>
</g>
<g clip-path="url(#clip2_2469_191529)">
<path d="M167.996 9.83112C167.384 9.48231 166.693 9.29835 165.988 9.29725C165.109 9.29725 164.379 9.5838 163.8 10.1586C163.22 10.7121 162.711 11.4046 162.271 12.2361V20.6076H158.465V5.61552H162.271V8.43587C162.79 7.54551 163.4 6.80353 164.099 6.20996C164.819 5.61552 165.629 5.31873 166.527 5.31873C167.067 5.31873 167.557 5.40743 167.996 5.58567V9.83112ZM18.0245 33.3252V2.9248C9.54897 2.9248 2.67676 9.73049 2.67676 18.125C2.67676 26.5196 9.54897 33.3252 18.0245 33.3252ZM20.2163 27.9395C26.9009 27.9395 32.3182 22.5735 32.3182 15.9537C32.3182 9.33392 26.9009 3.96698 20.2163 3.96698V2.9248C27.4825 2.9248 33.3714 8.75825 33.3714 15.9537C33.3714 23.1491 27.4817 28.9826 20.2163 28.9826V27.9395Z" fill="#9A98A4"/>
</g>
<path d="M20.2158 18.5189V17.4758C21.0883 17.4758 21.7953 16.7765 21.7953 15.9126C21.7943 15.7063 21.7526 15.5022 21.6728 15.312C21.5929 15.1218 21.4763 14.9491 21.3297 14.804C21.1832 14.6588 21.0094 14.544 20.8184 14.4659C20.6274 14.3879 20.423 14.3483 20.2167 14.3493V13.3071C21.6691 13.3071 22.8477 14.4738 22.8477 15.9126C22.8477 17.3522 21.6691 18.5189 20.2158 18.5189Z" fill="#9A98A4"/>
<path d="M24.4255 15.8725C24.4255 18.1752 22.5407 20.042 20.2158 20.042V21.0842C23.1223 21.0842 25.4779 18.7508 25.4779 15.8733C25.4779 12.995 23.1223 10.6616 20.2158 10.6616V11.7038C22.5407 11.7038 24.4255 13.5707 24.4255 15.8725Z" fill="#9A98A4"/>
<path d="M20.2158 22.8094C23.9939 22.8094 27.0565 19.7759 27.0565 16.0344C27.0565 12.293 23.9948 9.25946 20.2167 9.25946V8.21729C24.5747 8.21729 28.1089 11.7174 28.1089 16.0344C28.1089 20.3515 24.5756 23.8516 20.2158 23.8516V22.8094Z" fill="#9A98A4"/>
<path d="M29.6914 15.9936C29.6914 21.1747 25.4511 25.3749 20.2197 25.3749V26.4171C26.0319 26.4171 30.7438 21.7503 30.7438 15.9936C30.7438 10.2369 26.0319 5.57104 20.2197 5.57104V6.61322C25.4511 6.61322 29.6914 10.8135 29.6914 15.9945V15.9936Z" fill="#9A98A4"/>
</g>
<defs>
<clipPath id="clip0_2469_191529">
<rect width="149" height="34" fill="white" transform="translate(0.885742)"/>
</clipPath>
<clipPath id="clip1_2469_191529">
<rect width="8.28642" height="23.9386" fill="white" transform="translate(135.713 7.10986)"/>
</clipPath>
<clipPath id="clip2_2469_191529">
<rect width="165.319" height="30.4004" fill="white" transform="translate(2.67676 2.9248)"/>
</clipPath>
</defs>
</svg>
