<svg width="134" height="28" viewBox="0 0 134 28" fill="none" xmlns="http://www.w3.org/2000/svg">
<g clip-path="url(#clip0_2469_191490)">
<mask id="mask0_2469_191490" style="mask-type:luminance" maskUnits="userSpaceOnUse" x="2" y="4" width="21" height="21">
<path d="M2 4H22.3931V24.4445H2V4Z" fill="white"/>
</mask>
<g mask="url(#mask0_2469_191490)">
<path d="M21.7755 15.007C21.2102 19.9097 16.9808 23.7778 11.879 23.7778C6.38292 23.7778 2 19.368 2 13.8993C2 8.43055 6.38292 4 11.8441 4C15.4209 4 18.5895 5.84028 20.3203 8.63542L17.2216 10.8681C15.8327 8.82292 13.8646 7.81597 11.879 7.81597C8.66162 7.81597 6.11073 10.5417 6.11073 13.9167C6.11073 17.2709 8.66162 19.9618 11.879 19.9618C14.7719 19.9618 17.1867 17.8855 17.7345 15.007H21.7755Z" fill="#9A98A4"/>
</g>
<path d="M36.3024 16.8611C36.3024 20.5556 33.1863 23.6042 29.4524 23.6042C25.722 23.6042 22.707 20.5556 22.707 16.8611C22.707 13.1111 25.722 10.0972 29.4524 10.0972C33.1863 10.0972 36.3024 13.1285 36.3024 16.8611ZM32.5686 16.8611C32.5686 15.0382 31.2321 13.7257 29.4524 13.7257C27.7739 13.7257 26.406 15.0382 26.406 16.8611C26.406 18.7014 27.7739 19.9931 29.4524 19.9931C31.2181 19.9931 32.5686 18.7153 32.5686 16.8611Z" fill="#9A98A4"/>
<path d="M38.0293 6.02773C38.0293 5.00342 39.0064 4.03467 40.1335 4.03467C41.3688 4.03467 42.325 4.98606 42.325 6.02773C42.325 7.14925 41.3688 8.10412 40.1335 8.10412C39.0064 8.10412 38.0293 7.14925 38.0293 6.02773ZM42.0004 23.3332H38.3364V10.3853H42.0004V23.3332Z" fill="#9A98A4"/>
<path d="M57.6997 23.3332H54.0705V16.8784C54.0705 14.7985 52.8561 13.743 51.3661 13.743C49.7399 13.743 48.2499 14.7985 48.2499 16.8784V23.3332H44.5684V10.3853H48.2324V11.2881C48.9513 10.4721 50.4762 10.1145 51.6557 10.1145C55.2186 10.1145 57.6822 13.1457 57.6822 16.8784V23.3332H57.6997Z" fill="#9A98A4"/>
<path d="M60.6289 23.3332V4.22217H67.3045C71.806 4.22217 75.2642 7.57634 75.2642 11.7325C75.2642 16.6388 71.9945 20.0103 66.9102 20.0103H64.6175V23.3159H60.6289V23.3332ZM66.809 16.4339C69.6495 16.4339 71.2407 14.7152 71.2407 12.0555C71.2407 9.72217 69.8205 7.83328 67.0462 7.83328H64.6175V16.4513H66.809V16.4339Z" fill="#9A98A4"/>
<path d="M89.268 20.9132C88.1548 22.5486 85.8621 23.6042 83.552 23.6042C79.6297 23.6042 76.4961 20.5556 76.4961 16.8611C76.4961 13.1111 79.5111 10.0972 83.2415 10.0972C86.4623 10.0972 88.9434 12.2431 89.7321 14.6632L82.4563 19.8403C82.7983 19.9757 83.1577 19.9931 83.5346 19.9931C84.6478 19.9931 85.7435 19.6042 86.3402 18.684L89.268 20.9132ZM80.2997 17.7118L85.0386 14.3576C84.5256 13.9653 83.9289 13.7431 83.2415 13.7431C81.5665 13.7431 80.1951 15.0556 80.1951 16.8785C80.1951 17.1667 80.2125 17.4549 80.2997 17.7118Z" fill="#9A98A4"/>
<path d="M104.231 4.22217V23.3332H100.567V22.4131C100.001 23.1631 98.581 23.6214 97.3981 23.6214C93.8387 23.6214 91.0156 20.5728 91.0156 16.8784C91.0156 13.1284 93.9259 10.1145 97.3981 10.1145C98.5636 10.1145 100.001 10.677 100.567 11.2881V4.23606H104.231V4.22217ZM100.738 16.861C100.738 15.0381 99.4709 13.7256 97.7749 13.7256C96.0999 13.7256 94.7285 15.0381 94.7285 16.861C94.7285 18.7013 96.0999 19.993 97.7749 19.993C99.4709 19.993 100.738 18.7152 100.738 16.861Z" fill="#9A98A4"/>
<path d="M106.506 6.02773C106.506 5.00342 107.483 4.03467 108.614 4.03467C109.845 4.03467 110.805 4.98606 110.805 6.02773C110.805 7.14925 109.845 8.10412 108.614 8.10412C107.483 8.10412 106.506 7.14925 106.506 6.02773ZM110.48 23.3332H106.816V10.3853H110.48V23.3332Z" fill="#9A98A4"/>
<path d="M125.732 10.3853V23.3332H122.068V22.4131C121.503 23.1631 120.083 23.6214 118.9 23.6214C115.34 23.6214 112.514 20.5728 112.514 16.8784C112.514 13.1284 115.424 10.1145 118.9 10.1145C120.065 10.1145 121.503 10.677 122.068 11.2881V10.3853H125.732ZM122.222 16.861C122.222 15.0381 120.955 13.7256 119.259 13.7256C117.581 13.7256 116.213 15.0381 116.213 16.861C116.213 18.7013 117.581 19.993 119.259 19.993C120.955 19.993 122.222 18.7152 122.222 16.861Z" fill="#9A98A4"/>
<path d="M127.531 19.6875H131.195V23.3333H127.531V19.6875Z" fill="#9A98A4"/>
</g>
<defs>
<clipPath id="clip0_2469_191490">
<rect width="134" height="28" fill="white"/>
</clipPath>
</defs>
</svg>
