<svg width="134" height="34" viewBox="0 0 134 34" fill="none" xmlns="http://www.w3.org/2000/svg">
<g clip-path="url(#clip0_2469_191506)">
<mask id="mask0_2469_191506" style="mask-type:luminance" maskUnits="userSpaceOnUse" x="0" y="0" width="134" height="34">
<path d="M134 0H0V34H134V0Z" fill="white"/>
</mask>
<g mask="url(#mask0_2469_191506)">
<path d="M47.3309 13.508C47.1812 11.5517 45.5595 8.81543 41.5552 8.81543C38.1123 8.81543 35.4053 11.1803 35.4053 15.8233C35.4053 20.4044 37.9626 22.794 41.5178 22.794C44.8734 22.794 46.7695 20.7758 47.3309 17.891H44.5366C44.1998 19.5253 43.127 20.392 41.5802 20.392C39.21 20.392 38.262 18.25 38.262 15.8604C38.262 12.1089 40.2329 11.2174 41.5802 11.2174C43.8879 11.2174 44.312 12.7156 44.5366 13.508H47.3309ZM90.1805 17.5195C90.1805 13.9661 87.773 12.3441 85.1159 12.3441C82.4589 12.3441 80.0513 13.9661 80.0513 17.5195C80.0513 21.073 82.4589 22.6949 85.1159 22.6949C87.7855 22.6949 90.1805 21.0606 90.1805 17.5195ZM87.4985 17.5195C87.4985 18.7701 87.1243 20.5158 85.1159 20.5158C83.1076 20.5158 82.7334 18.7824 82.7334 17.5195C82.7334 16.2566 83.1076 14.5233 85.1159 14.5233C87.1368 14.5233 87.4985 16.2566 87.4985 17.5195ZM78.2301 9.92975H75.6229V12.5918H74.2881V14.4366H75.6229V20.4044C75.6229 21.6797 76.0346 22.534 78.2799 22.534H78.6167C79.0284 22.534 79.4401 22.5216 79.8518 22.4968V20.5406C79.6646 20.553 79.4775 20.5777 79.3154 20.5777C78.2549 20.5777 78.2301 20.3549 78.2301 19.7853V14.4366H79.8518V12.5918H78.2301V9.92975ZM48.0918 22.4349H50.699V17.3091C50.699 16.2195 51.0732 14.9566 53.1066 14.9566C53.3435 14.9566 53.6305 14.9566 53.855 14.9937V12.3689C53.6928 12.3565 53.5181 12.3318 53.356 12.3318C51.7718 12.3318 51.1729 13.2975 50.6366 14.288H50.5992V12.5918H48.1042V22.4349H48.0918Z" fill="#9A98A4"/>
<path d="M64.0726 12.6042H61.3157L59.2824 19.8472H59.245L57.1244 12.6042H54.2178L57.8728 22.8435C57.6233 24.1931 57.1119 24.3293 56.1638 24.3293C55.9392 24.3293 55.7771 24.3045 55.6648 24.2921V26.3598C56.0391 26.3722 56.4881 26.397 56.8374 26.397C59.1078 26.397 59.4446 25.9141 60.6795 22.274L64.0726 12.6042Z" fill="#9A98A4"/>
<path d="M67.0906 17.7425C67.0906 16.1701 67.5147 14.5853 69.311 14.5853C70.9702 14.5853 71.5315 16.0463 71.5315 17.5939C71.5315 18.7578 71.0699 20.5655 69.3858 20.5655C67.7143 20.5655 67.0906 19.1911 67.0906 17.7425ZM67.0906 12.6043H64.5957V26.2856H67.1904V21.1845H67.2277C67.5397 21.7169 68.2008 22.6951 70.0221 22.6951C72.9661 22.6951 74.1885 20.1073 74.1885 17.4082C74.1885 14.0033 72.255 12.3442 70.072 12.3442C68.3255 12.3442 67.5895 13.2481 67.103 14.0281H67.0656V12.6043H67.0906Z" fill="#9A98A4"/>
<path d="M3.49512 20.974C6.26443 26.6941 10.9049 30.2971 15.1837 32.5505C15.1962 32.5629 15.5579 32.7486 15.5579 32.7486C15.5579 32.7486 15.9197 32.5629 15.9322 32.5505C23.1798 28.7618 31.4503 21.0606 29.9284 5.86871L26.735 4.49438C26.1362 9.19929 23.2172 13.1613 19.1505 16.0338C18.6017 16.4176 18.0278 16.7891 17.429 17.1357L18.0029 21.4197C18.0778 21.9892 17.5289 22.4721 16.955 22.4721H14.0485C13.4746 22.4721 12.9133 21.9892 13.0006 21.4197L13.3 19.1167C10.5057 20.1815 7.49941 20.813 4.51802 20.9616C4.16873 20.9616 3.83192 20.974 3.49512 20.974Z" fill="#9A98A4"/>
<path d="M1.18701 5.86876C0.638137 11.428 1.3866 15.9844 2.93344 19.7235C3.44488 19.7359 3.94387 19.7235 4.45531 19.6988C7.53651 19.5502 10.6426 18.8445 13.4993 17.6806L13.7363 15.8729C12.8381 15.2786 12.2393 14.2634 12.2393 13.1119C12.2393 11.2918 13.7363 9.80603 15.5701 9.80603C17.4038 9.80603 18.9007 11.2918 18.9007 13.1119C18.9007 13.8919 18.6263 14.6224 18.1523 15.192C18.2396 15.13 18.3269 15.0681 18.4142 15.0062C22.1565 12.369 24.851 8.75362 25.4623 4.5192C21.9569 5.43542 18.7635 4.23443 16.7925 1.64673H15.6324H15.5201H14.3601C12.2393 4.43253 8.7091 5.60875 4.9044 4.28395L1.18701 5.86876Z" fill="#9A98A4"/>
<path d="M28.2188 0C28.4309 0 28.6305 0.086672 28.7677 0.222867C28.9049 0.359061 28.9922 0.557162 28.9922 0.767645C28.9922 0.978128 28.9049 1.17623 28.7677 1.31242C28.6305 1.44862 28.4309 1.53528 28.2188 1.53528C28.0067 1.53528 27.8071 1.44862 27.6699 1.31242C27.5327 1.17623 27.4453 0.978128 27.4453 0.767645C27.4453 0.557162 27.5327 0.359061 27.6699 0.222867C27.8071 0.099053 28.0067 0 28.2188 0ZM27.9318 1.2629V0.260009H28.2936C28.3685 0.260009 28.4184 0.272392 28.4682 0.284773C28.5056 0.297155 28.5306 0.334296 28.5556 0.371441C28.5805 0.420966 28.593 0.470493 28.593 0.520018C28.593 0.594306 28.5681 0.656213 28.5306 0.705738C28.4932 0.755264 28.4309 0.780024 28.356 0.792406C28.3934 0.804787 28.4184 0.829553 28.4309 0.841934C28.4682 0.879078 28.4932 0.928603 28.5181 0.965747L28.6678 1.25052C28.6803 1.23813 28.6928 1.23813 28.7053 1.22575C28.83 1.10194 28.9049 0.940983 28.9049 0.755263C28.9049 0.569543 28.83 0.408587 28.7053 0.284773C28.5805 0.16096 28.4184 0.086671 28.2313 0.086671C28.0441 0.086671 27.882 0.16096 27.7572 0.284773C27.6325 0.408587 27.5577 0.569543 27.5577 0.755263C27.5577 0.940983 27.6325 1.10194 27.7572 1.22575C27.882 1.34956 28.0441 1.42385 28.2313 1.42385C28.356 1.42385 28.4682 1.38671 28.5681 1.33718L28.4184 1.04003C28.3809 0.953363 28.3435 0.903839 28.3185 0.879076C28.2936 0.854314 28.2812 0.829551 28.2562 0.81717C28.2313 0.804788 28.2063 0.804788 28.1689 0.804788H28.0441V1.25052H27.9318V1.2629ZM28.0317 0.705738H28.2687C28.3185 0.705738 28.356 0.693356 28.3809 0.693356C28.4059 0.680975 28.4309 0.656212 28.4433 0.63145C28.4558 0.606687 28.4682 0.569541 28.4682 0.544779C28.4682 0.495253 28.4558 0.45811 28.4184 0.433347C28.3934 0.396203 28.3435 0.383823 28.2936 0.383823H28.0317V0.705738Z" fill="#9A98A4"/>
<path d="M91.3916 22.4351H97.1797C101.596 22.4351 102.731 18.3369 102.731 15.4768C102.731 12.9634 101.795 9.14993 97.292 9.14993H91.3916V22.4351ZM130.574 12.6044H127.817L125.784 19.8474H125.747L123.626 12.6044H120.719L124.374 22.8437C124.137 24.1933 123.613 24.3295 122.665 24.3295C122.441 24.3295 122.279 24.3047 122.154 24.2923V26.36C122.528 26.3724 122.977 26.3972 123.327 26.3972C125.596 26.3972 125.933 25.9143 127.168 22.2742L130.574 12.6044ZM119.846 9.16231H117.239V22.4351H119.846V9.16231ZM113.06 12.6044V22.4351H115.666V12.6044H113.06ZM115.666 9.02612H113.06V11.4281H115.666V9.02612ZM111.662 15.1797C111.662 12.7529 109.105 12.332 107.708 12.332C105.675 12.332 103.579 12.7529 103.28 15.774H105.8C105.874 15.2044 106.099 14.3996 107.397 14.3996C108.07 14.3996 109.105 14.4615 109.105 15.5387C109.105 16.0959 108.607 16.2568 108.195 16.3188L105.849 16.6654C104.191 16.9007 102.968 17.8912 102.968 19.8103C102.968 21.8408 104.49 22.6828 105.987 22.6828C107.758 22.6828 108.594 21.8656 109.193 21.2589C109.255 21.8161 109.293 21.9646 109.442 22.4228H112.249V22.0513C111.937 21.9399 111.675 21.6799 111.675 20.516V15.1797H111.662ZM109.105 18.9065C109.105 20.1074 107.933 20.8503 106.773 20.8503C106.273 20.8503 105.563 20.5779 105.563 19.6617C105.563 18.5845 106.361 18.3493 107.334 18.1883C108.407 18.015 108.843 17.854 109.105 17.6559V18.9065ZM94.1235 11.4529H96.8055C98.003 11.4529 99.8742 11.7748 99.8742 15.6873C99.8742 17.8664 99.1132 20.1446 96.8429 20.1446H94.1235V11.4529Z" fill="#9A98A4"/>
<path d="M132.194 7.93651V9.01369C132.194 9.03845 132.182 9.06321 132.169 9.08798C132.157 9.11274 132.132 9.11274 132.106 9.11274H131.932C131.907 9.11274 131.882 9.10036 131.858 9.08798C131.832 9.0756 131.832 9.05084 131.832 9.01369V6.25265C131.832 6.22789 131.845 6.20312 131.858 6.17836C131.87 6.1536 131.895 6.1536 131.932 6.1536H132.93C133.205 6.1536 133.441 6.22789 133.616 6.37646C133.766 6.52504 133.866 6.73552 133.866 7.00791V7.06982C133.866 7.26792 133.816 7.44126 133.691 7.58984C133.592 7.71365 133.441 7.8127 133.254 7.87461L133.828 8.96416C133.84 8.97654 133.84 8.98893 133.854 9.00131C133.854 9.01369 133.854 9.02607 133.854 9.03845C133.854 9.06321 133.84 9.0756 133.828 9.08798C133.816 9.10036 133.791 9.11274 133.778 9.11274H133.541C133.516 9.11274 133.492 9.10036 133.479 9.08798C133.467 9.0756 133.454 9.06321 133.441 9.03845L132.868 7.93651H132.194ZM132.743 5.16309C133.441 5.16309 134.078 5.44786 134.54 5.90597C135.001 6.36408 135.288 6.99553 135.288 7.68889C135.288 8.38224 135.001 9.01369 134.54 9.4718C134.078 9.92991 133.441 10.2147 132.743 10.2147C132.044 10.2147 131.408 9.92991 130.947 9.4718C130.485 9.01369 130.198 8.38224 130.198 7.68889C130.198 6.99553 130.485 6.36408 130.947 5.90597C131.396 5.44786 132.044 5.16309 132.743 5.16309ZM134.29 6.14122C133.891 5.74501 133.342 5.49739 132.73 5.49739C132.12 5.49739 131.57 5.74501 131.172 6.14122C130.773 6.53742 130.523 7.0822 130.523 7.68889C130.523 8.29557 130.773 8.84035 131.172 9.23655C131.57 9.63276 132.12 9.88039 132.73 9.88039C133.342 9.88039 133.891 9.63276 134.29 9.23655C134.689 8.84035 134.939 8.29557 134.939 7.68889C134.939 7.0822 134.689 6.53742 134.29 6.14122ZM132.194 6.51266V7.58984H132.905C133.068 7.58984 133.217 7.54031 133.33 7.45364C133.416 7.36697 133.479 7.25554 133.479 7.09458V7.02029C133.479 6.84696 133.416 6.72314 133.33 6.63647C133.217 6.53742 133.068 6.50028 132.905 6.50028H132.194V6.51266Z" fill="#9A98A4"/>
</g>
</g>
<defs>
<clipPath id="clip0_2469_191506">
<rect width="134" height="34" fill="white"/>
</clipPath>
</defs>
</svg>
