<svg width="116" height="17" viewBox="0 0 116 17" fill="none" xmlns="http://www.w3.org/2000/svg">
<path d="M2.09545 14.8726C0.723886 13.5736 0 11.691 0 9.28124V0H5.52439V9.09299C5.52439 10.2602 5.71489 11.1638 6.17209 11.691C6.62928 12.2181 7.21982 12.4629 8.01991 12.4629C8.81999 12.4629 9.46767 12.1993 9.86771 11.691C10.3249 11.1638 10.5154 10.2602 10.5154 9.09299V0H15.9636V9.20594C15.9636 11.6157 15.2397 13.4983 13.8681 14.8537C12.4204 16.2092 10.5154 16.8681 7.96276 16.8681C5.44821 16.887 3.48609 16.2469 2.09545 14.8726ZM30.1556 4.63121H25.3551V0H40.4614V4.5559H35.6609V16.8681H30.1366L30.1556 4.63121ZM45.5286 15.8515C44.1952 15.155 43.0523 14.1384 42.2522 12.8582C41.4711 11.5592 41.071 10.1284 41.071 8.50936C41.071 6.89032 41.4711 5.45955 42.2522 4.16057C43.033 2.86156 44.157 1.88261 45.5286 1.1672C46.9002 0.32004 48.4813 0 50.253 0C52.0246 0 53.6057 0.395347 54.9773 1.11074C56.3108 1.80729 57.4538 2.8239 58.2539 4.10408C59.035 5.3466 59.4349 6.83386 59.4349 8.4529C59.4349 10.0719 59.035 11.5027 58.2539 12.8017C57.4728 14.1007 56.3489 15.0797 54.9773 15.7951C53.6057 16.5104 52.0246 16.9058 50.253 16.9058C48.4813 16.887 46.9002 16.5669 45.5286 15.8515ZM52.0818 12.0298C52.6533 11.691 53.1105 11.1827 53.3961 10.5991C53.72 10.0154 53.8533 9.30007 53.8533 8.4529C53.8533 7.60573 53.72 6.89034 53.3961 6.30672C53.0722 5.72312 52.6151 5.19599 52.0818 4.87595C51.5483 4.5559 50.9006 4.34882 50.234 4.34882C48.9005 4.34882 47.6812 5.10186 47.0717 6.28789C46.7478 6.87151 46.6145 7.5869 46.6145 8.43407C46.6145 9.28124 46.8051 9.99662 47.0717 10.5802C47.3956 11.1638 47.8528 11.691 48.386 12.011C48.9195 12.3311 49.5672 12.5381 50.234 12.5381C50.9006 12.4817 51.5674 12.3499 52.0818 12.0298ZM61.4923 0.037648H69.5694C71.4172 0.037648 72.9793 0.357695 74.4269 1.01661C75.7605 1.63787 76.8844 2.59799 77.7035 3.80285C78.4846 5.04537 78.8846 6.75856 78.8846 8.39641C78.8846 10.0154 78.4846 11.9357 77.7035 13.1782C76.9225 14.4208 75.8558 15.3244 74.4269 15.9645C73.0554 16.6046 71.3981 16.9435 69.5694 16.9435H61.4923V0.037648ZM69.3598 12.7641C70.96 12.7641 71.5695 12.2369 72.2935 11.578C73.0173 10.9191 73.3412 9.63893 73.3412 8.39641C73.3412 7.15389 73.0173 6.17494 72.2935 5.45955C71.5695 4.81946 70.6741 4.29233 69.3598 4.29233C68.0453 4.29233 66.9976 4.29233 66.9976 4.29233V12.7452C66.9976 12.7452 67.7596 12.7641 69.3598 12.7641ZM91.7622 13.7054H85.5328L84.2946 16.9435H78.7132L85.9276 0H91.3757L98.4105 16.9999H92.6956C92.6956 17.0187 91.7622 13.7054 91.7622 13.7054ZM90.2573 9.80837L88.6761 5.72312L87.095 9.80837H90.2573ZM108.126 10.6555V16.9435H102.601V10.5238L96.4294 0H102.278L105.63 5.8549L108.983 0H114.298C114.298 0.018825 108.126 10.6555 108.126 10.6555Z" fill="#9A98A4"/>
<path fill-rule="evenodd" clip-rule="evenodd" d="M20.5734 6.40085C22.3619 6.40085 23.8118 4.96797 23.8118 3.20042C23.8118 1.43288 22.3619 0 20.5734 0C18.7849 0 17.335 1.43288 17.335 3.20042C17.335 4.96797 18.7849 6.40085 20.5734 6.40085ZM20.5734 4.70651C21.415 4.70651 22.0973 4.03221 22.0973 3.20042C22.0973 2.36863 21.415 1.69434 20.5734 1.69434C19.7317 1.69434 19.0494 2.36863 19.0494 3.20042C19.0494 4.03221 19.7317 4.70651 20.5734 4.70651Z" fill="#9A98A4"/>
</svg>
