<svg width="123" height="32" viewBox="0 0 123 32" fill="none" xmlns="http://www.w3.org/2000/svg">
<path d="M114.548 25.24C113.316 25.24 112.244 25.032 111.332 24.616C110.42 24.2 109.716 23.616 109.22 22.864C108.724 22.112 108.476 21.224 108.476 20.2H112.076C112.076 20.792 112.3 21.264 112.748 21.616C113.212 21.952 113.836 22.12 114.62 22.12C115.372 22.12 115.956 21.952 116.372 21.616C116.804 21.28 117.02 20.816 117.02 20.224C117.02 19.712 116.86 19.272 116.54 18.904C116.22 18.536 115.772 18.288 115.196 18.16L113.42 17.752C111.932 17.4 110.772 16.752 109.94 15.808C109.124 14.848 108.716 13.68 108.716 12.304C108.716 11.28 108.948 10.392 109.412 9.63999C109.892 8.87199 110.564 8.27999 111.428 7.86399C112.292 7.44799 113.316 7.23999 114.5 7.23999C116.292 7.23999 117.708 7.68799 118.748 8.58399C119.804 9.46399 120.332 10.656 120.332 12.16H116.732C116.732 11.6 116.532 11.16 116.132 10.84C115.748 10.52 115.188 10.36 114.452 10.36C113.764 10.36 113.236 10.52 112.868 10.84C112.5 11.144 112.316 11.584 112.316 12.16C112.316 12.672 112.46 13.112 112.748 13.48C113.052 13.832 113.476 14.072 114.02 14.2L115.892 14.632C117.444 14.984 118.62 15.624 119.42 16.552C120.22 17.464 120.62 18.632 120.62 20.056C120.62 21.08 120.364 21.984 119.852 22.768C119.356 23.552 118.652 24.16 117.74 24.592C116.844 25.024 115.78 25.24 114.548 25.24Z" fill="#9A98A4"/>
<path d="M95.5166 25V7.47998H101.157C102.405 7.47998 103.485 7.69598 104.397 8.12798C105.309 8.55998 106.013 9.17598 106.509 9.97598C107.021 10.776 107.277 11.72 107.277 12.808C107.277 13.944 106.997 14.96 106.437 15.856C105.893 16.752 105.149 17.4 104.205 17.8L107.517 25H103.605L100.773 18.376H99.0926V25H95.5166ZM99.0926 15.256H101.157C101.957 15.256 102.573 15.056 103.005 14.656C103.453 14.256 103.677 13.696 103.677 12.976C103.677 12.224 103.453 11.64 103.005 11.224C102.573 10.808 101.957 10.6 101.157 10.6H99.0926V15.256Z" fill="#9A98A4"/>
<path d="M82.4863 25V7.47998H93.2863V10.552H86.0143V14.488H92.4463V17.56H86.0143V21.928H93.2863V25H82.4863Z" fill="#9A98A4"/>
<path d="M69.0957 25V7.47998H79.8957V10.552H72.6237V14.488H79.0557V17.56H72.6237V21.928H79.8957V25H69.0957Z" fill="#9A98A4"/>
<path d="M55.3691 25V7.47998H61.3451C62.5771 7.47998 63.6491 7.71198 64.5611 8.17598C65.4891 8.63998 66.2011 9.28798 66.6971 10.12C67.2091 10.952 67.4651 11.928 67.4651 13.048C67.4651 14.152 67.2091 15.128 66.6971 15.976C66.1851 16.808 65.4731 17.456 64.5611 17.92C63.6491 18.384 62.5771 18.616 61.3451 18.616H58.9691V25H55.3691ZM58.9691 15.376H61.3451C62.1131 15.376 62.7211 15.168 63.1691 14.752C63.6331 14.32 63.8651 13.752 63.8651 13.048C63.8651 12.344 63.6331 11.784 63.1691 11.368C62.7211 10.936 62.1131 10.72 61.3451 10.72H58.9691V15.376Z" fill="#9A98A4"/>
<path d="M34.3003 25.24C33.1323 25.24 32.1083 25.024 31.2283 24.592C30.3483 24.144 29.6603 23.528 29.1643 22.744C28.6843 21.944 28.4443 21.016 28.4443 19.96V12.52C28.4443 11.448 28.6843 10.52 29.1643 9.73599C29.6603 8.95199 30.3483 8.34399 31.2283 7.91199C32.1083 7.46399 33.1323 7.23999 34.3003 7.23999C35.4843 7.23999 36.5083 7.46399 37.3723 7.91199C38.2523 8.34399 38.9323 8.95199 39.4123 9.73599C39.9083 10.52 40.1563 11.448 40.1563 12.52H36.5563C36.5563 11.816 36.3563 11.28 35.9563 10.912C35.5723 10.544 35.0203 10.36 34.3003 10.36C33.5803 10.36 33.0203 10.544 32.6203 10.912C32.2363 11.28 32.0443 11.816 32.0443 12.52V19.96C32.0443 20.648 32.2363 21.184 32.6203 21.568C33.0203 21.936 33.5803 22.12 34.3003 22.12C35.0203 22.12 35.5723 21.936 35.9563 21.568C36.3563 21.184 36.5563 20.648 36.5563 19.96H40.1563C40.1563 21.016 39.9083 21.944 39.4123 22.744C38.9323 23.528 38.2523 24.144 37.3723 24.592C36.5083 25.024 35.4843 25.24 34.3003 25.24Z" fill="#9A98A4"/>
<path d="M19.0132 25V10.84H14.5732V7.47998H27.0532V10.84H22.6132V25H19.0132Z" fill="#9A98A4"/>
<path d="M1.80664 25V7.47998H7.44664C9.22264 7.47998 10.6386 7.88798 11.6946 8.70398C12.7506 9.50398 13.2786 10.592 13.2786 11.968C13.2786 12.736 13.0946 13.408 12.7266 13.984C12.3746 14.56 11.8946 15.008 11.2866 15.328C10.6946 15.648 10.0466 15.808 9.34264 15.808V15.88C10.1266 15.864 10.8386 16.008 11.4786 16.312C12.1346 16.616 12.6626 17.072 13.0626 17.68C13.4626 18.288 13.6626 19.04 13.6626 19.936C13.6626 20.96 13.4146 21.856 12.9186 22.624C12.4386 23.376 11.7506 23.96 10.8546 24.376C9.95864 24.792 8.89464 25 7.66264 25H1.80664ZM5.28664 22.096H7.51864C8.30264 22.096 8.91864 21.888 9.36664 21.472C9.81464 21.056 10.0386 20.48 10.0386 19.744C10.0386 19.008 9.81464 18.432 9.36664 18.016C8.91864 17.584 8.30264 17.368 7.51864 17.368H5.28664V22.096ZM5.28664 14.536H7.39864C8.10264 14.536 8.65464 14.352 9.05464 13.984C9.45464 13.6 9.65464 13.088 9.65464 12.448C9.65464 11.792 9.45464 11.288 9.05464 10.936C8.65464 10.568 8.10264 10.384 7.39864 10.384H5.28664V14.536Z" fill="#9A98A4"/>
</svg>
