<svg width="20" height="20" viewBox="0 0 20 20" fill="none" xmlns="http://www.w3.org/2000/svg">
    <path d="M10 1.87109C5.51992 1.87109 1.875 5.51602 1.875 9.99609C1.875 14.4762 5.51992 18.1211 10 18.1211C14.4801 18.1211 18.125 14.4762 18.125 9.99609C18.125 5.51602 14.4801 1.87109 10 1.87109ZM10 14.3676C9.84548 14.3676 9.69443 14.3218 9.56596 14.2359C9.43748 14.1501 9.33735 14.0281 9.27822 13.8853C9.21908 13.7425 9.20361 13.5855 9.23376 13.4339C9.2639 13.2824 9.33831 13.1432 9.44757 13.0339C9.55683 12.9246 9.69603 12.8502 9.84758 12.8201C9.99913 12.7899 10.1562 12.8054 10.299 12.8645C10.4417 12.9237 10.5637 13.0238 10.6496 13.1523C10.7354 13.2808 10.7812 13.4318 10.7812 13.5863C10.7812 13.7935 10.6989 13.9922 10.5524 14.1388C10.4059 14.2853 10.2072 14.3676 10 14.3676ZM10.8484 6.51016L10.6242 11.2758C10.6242 11.4415 10.5584 11.6005 10.4412 11.7177C10.3239 11.8349 10.165 11.9008 9.99921 11.9008C9.83345 11.9008 9.67448 11.8349 9.55727 11.7177C9.44006 11.6005 9.37422 11.4415 9.37422 11.2758L9.15 6.5125V6.51055C9.14508 6.39606 9.16339 6.28177 9.20381 6.17455C9.24423 6.06733 9.30594 5.9694 9.3852 5.88666C9.46447 5.80391 9.55967 5.73807 9.66506 5.69308C9.77044 5.6481 9.88385 5.62491 9.99843 5.62491C10.113 5.62491 10.2264 5.6481 10.3318 5.69308C10.4372 5.73807 10.5324 5.80391 10.6117 5.88666C10.6909 5.9694 10.7526 6.06733 10.7931 6.17455C10.8335 6.28177 10.8518 6.39606 10.8469 6.51055L10.8484 6.51016Z" fill="#656565"/>
</svg>