<svg xmlns="http://www.w3.org/2000/svg" viewBox="0 0 24 24">
    <path d="M18.645 13.916a.987.987 0 0 1-.988.07c-.353-.211-.542-.682-.542-1.34v-2c0-.965-.376-1.647-1.011-1.835-1.082-.306-1.882 1.011-2.188 1.505l-1.906 3.082V9.634c-.023-.87-.306-1.388-.847-1.552-.353-.095-.87-.071-1.388.729l-4.258 6.822a7.58 7.58 0 0 1-.87-3.505c0-4.117 3.293-7.458 7.34-7.458 4.046 0 7.363 3.341 7.363 7.458v.047c.047.8-.211 1.435-.705 1.74Zm2.352-1.788v-.047C20.974 7.07 16.927 3 11.987 3 7.047 3 3 7.093 3 12.128s4.023 9.128 8.987 9.128c2.282 0 4.47-.87 6.117-2.447a.846.846 0 0 0 .047-1.176.79.79 0 0 0-1.13-.047 7.28 7.28 0 0 1-10.28-.282 1.516 1.516 0 0 1-.189-.212l3.835-6.164v2.847c0 1.364.541 1.811.965 1.929.447.141 1.129.047 1.835-1.106l2.117-3.435c.07-.117.118-.211.188-.282v1.764c0 1.27.518 2.306 1.412 2.8.823.447 1.835.4 2.635-.117.964-.636 1.505-1.788 1.458-3.2Z"/>
</svg>