<svg xmlns="http://www.w3.org/2000/svg" viewBox="0 0 24 24">
    <path
            d="M20 8.251h-3.289a2.768 2.768 0 0 0 1.039-2.103 3.057 3.057 0 0 0-3.146-3.147 2.768 2.768 0 0 0-2.01.93 5.15 5.15 0 0 0-.844 1.357 5.15 5.15 0 0 0-.844-1.358 2.768 2.768 0 0 0-2.01-.929A3.058 3.058 0 0 0 5.75 6.15a2.768 2.768 0 0 0 .93 2.009c.035.03.072.06.109.093H3.5a1.5 1.5 0 0 0-1.5 1.5v3a1.5 1.5 0 0 0 1.5 1.5v6a1.5 1.5 0 0 0 1.5 1.5h13.5a1.5 1.5 0 0 0 1.5-1.5v-6a1.5 1.5 0 0 0 1.5-1.5v-3a1.5 1.5 0 0 0-1.5-1.5Zm-6.281-3.327a1.283 1.283 0 0 1 .937-.422h.046a1.558 1.558 0 0 1 1.548 1.6 1.283 1.283 0 0 1-.422.938c-.89.788-2.366 1.065-3.281 1.163.112-.993.422-2.436 1.172-3.279Zm-6.009.034A1.56 1.56 0 0 1 8.805 4.5h.046a1.284 1.284 0 0 1 .938.422c.786.889 1.064 2.363 1.161 3.274-.91-.094-2.385-.375-3.273-1.162a1.284 1.284 0 0 1-.422-.937 1.556 1.556 0 0 1 .452-1.14h.003ZM3.5 9.75H11v3H3.5v-3Zm1.5 4.5h6v6H5v-6Zm13.5 6h-6v-6h6v6Zm1.5-7.5h-7.5v-3H20v3Z"/>
</svg>