<svg width="24" height="24" viewBox="0 0 24 24" fill="none" xmlns="http://www.w3.org/2000/svg">
<path d="M4.372 7.264C4.38457 7.14224 4.36831 7.01923 4.32453 6.90492C4.28075 6.79061 4.21069 6.68821 4.12 6.606L2.252 4.339V4H8.05L12.532 13.905L16.472 4H22V4.339L20.403 5.88C20.3352 5.9321 20.2828 6.00173 20.2516 6.08138C20.2204 6.16103 20.2116 6.24768 20.226 6.332V17.666C20.2116 17.7503 20.2204 17.837 20.2516 17.9166C20.2828 17.9963 20.3352 18.0659 20.403 18.118L21.963 19.66V20H14.119V19.661L15.735 18.081C15.894 17.921 15.894 17.874 15.894 17.63V8.468L11.402 19.962H10.796L5.566 8.468V16.172C5.523 16.495 5.63 16.822 5.856 17.056L7.957 19.624V19.962H2V19.624L4.1 17.056C4.21111 16.9401 4.29358 16.7997 4.3408 16.6462C4.38803 16.4928 4.39871 16.3304 4.372 16.172V7.264Z" fill="black"/>
</svg>
