<svg width="18" height="18" viewBox="0 0 18 18" fill="none" xmlns="http://www.w3.org/2000/svg">
    <path d="M5.72727 16.3636H2.45455C2.23755 16.3636 2.02944 16.2774 1.876 16.124C1.72256 15.9706 1.63636 15.7625 1.63636 15.5455V12.2727C1.63636 12.0557 1.55016 11.8476 1.39672 11.6942C1.24328 11.5407 1.03518 11.4545 0.818182 11.4545C0.601187 11.4545 0.393079 11.5407 0.23964 11.6942C0.086201 11.8476 0 12.0557 0 12.2727V15.5455C0 16.1964 0.258603 16.8208 0.71892 17.2811C1.17924 17.7414 1.80356 18 2.45455 18H5.72727C5.94427 18 6.15238 17.9138 6.30581 17.7604C6.45925 17.6069 6.54545 17.3988 6.54545 17.1818C6.54545 16.9648 6.45925 16.7567 6.30581 16.6033C6.15238 16.4498 5.94427 16.3636 5.72727 16.3636ZM17.1818 11.4545C16.9648 11.4545 16.7567 11.5407 16.6033 11.6942C16.4498 11.8476 16.3636 12.0557 16.3636 12.2727V15.5455C16.3636 15.7625 16.2774 15.9706 16.124 16.124C15.9706 16.2774 15.7625 16.3636 15.5455 16.3636H12.2727C12.0557 16.3636 11.8476 16.4498 11.6942 16.6033C11.5407 16.7567 11.4545 16.9648 11.4545 17.1818C11.4545 17.3988 11.5407 17.6069 11.6942 17.7604C11.8476 17.9138 12.0557 18 12.2727 18H15.5455C16.1964 18 16.8208 17.7414 17.2811 17.2811C17.7414 16.8208 18 16.1964 18 15.5455V12.2727C18 12.0557 17.9138 11.8476 17.7604 11.6942C17.6069 11.5407 17.3988 11.4545 17.1818 11.4545ZM15.5455 0H12.2727C12.0557 0 11.8476 0.086201 11.6942 0.23964C11.5407 0.393079 11.4545 0.601187 11.4545 0.818182C11.4545 1.03518 11.5407 1.24328 11.6942 1.39672C11.8476 1.55016 12.0557 1.63636 12.2727 1.63636H15.5455C15.7625 1.63636 15.9706 1.72256 16.124 1.876C16.2774 2.02944 16.3636 2.23755 16.3636 2.45455V5.72727C16.3636 5.94427 16.4498 6.15238 16.6033 6.30581C16.7567 6.45925 16.9648 6.54545 17.1818 6.54545C17.3988 6.54545 17.6069 6.45925 17.7604 6.30581C17.9138 6.15238 18 5.94427 18 5.72727V2.45455C18 1.80356 17.7414 1.17924 17.2811 0.71892C16.8208 0.258603 16.1964 0 15.5455 0ZM0.818182 6.54545C1.03518 6.54545 1.24328 6.45925 1.39672 6.30581C1.55016 6.15238 1.63636 5.94427 1.63636 5.72727V2.45455C1.63636 2.23755 1.72256 2.02944 1.876 1.876C2.02944 1.72256 2.23755 1.63636 2.45455 1.63636H5.72727C5.94427 1.63636 6.15238 1.55016 6.30581 1.39672C6.45925 1.24328 6.54545 1.03518 6.54545 0.818182C6.54545 0.601187 6.45925 0.393079 6.30581 0.23964C6.15238 0.086201 5.94427 0 5.72727 0H2.45455C1.80356 0 1.17924 0.258603 0.71892 0.71892C0.258603 1.17924 0 1.80356 0 2.45455V5.72727C0 5.94427 0.086201 6.15238 0.23964 6.30581C0.393079 6.45925 0.601187 6.54545 0.818182 6.54545ZM7.36364 3.27273H4.09091C3.87391 3.27273 3.66581 3.35893 3.51237 3.51237C3.35893 3.66581 3.27273 3.87391 3.27273 4.09091V7.36364C3.27273 7.58063 3.35893 7.78874 3.51237 7.94218C3.66581 8.09562 3.87391 8.18182 4.09091 8.18182H7.36364C7.58063 8.18182 7.78874 8.09562 7.94218 7.94218C8.09562 7.78874 8.18182 7.58063 8.18182 7.36364V4.09091C8.18182 3.87391 8.09562 3.66581 7.94218 3.51237C7.78874 3.35893 7.58063 3.27273 7.36364 3.27273ZM6.54545 6.54545H4.90909V4.90909H6.54545V6.54545ZM10.6364 8.18182H13.9091C14.1261 8.18182 14.3342 8.09562 14.4876 7.94218C14.6411 7.78874 14.7273 7.58063 14.7273 7.36364V4.09091C14.7273 3.87391 14.6411 3.66581 14.4876 3.51237C14.3342 3.35893 14.1261 3.27273 13.9091 3.27273H10.6364C10.4194 3.27273 10.2113 3.35893 10.0578 3.51237C9.90438 3.66581 9.81818 3.87391 9.81818 4.09091V7.36364C9.81818 7.58063 9.90438 7.78874 10.0578 7.94218C10.2113 8.09562 10.4194 8.18182 10.6364 8.18182ZM11.4545 4.90909H13.0909V6.54545H11.4545V4.90909ZM7.36364 9.81818H4.09091C3.87391 9.81818 3.66581 9.90438 3.51237 10.0578C3.35893 10.2113 3.27273 10.4194 3.27273 10.6364V13.9091C3.27273 14.1261 3.35893 14.3342 3.51237 14.4876C3.66581 14.6411 3.87391 14.7273 4.09091 14.7273H7.36364C7.58063 14.7273 7.78874 14.6411 7.94218 14.4876C8.09562 14.3342 8.18182 14.1261 8.18182 13.9091V10.6364C8.18182 10.4194 8.09562 10.2113 7.94218 10.0578C7.78874 9.90438 7.58063 9.81818 7.36364 9.81818ZM6.54545 13.0909H4.90909V11.4545H6.54545V13.0909ZM10.6364 12.2727C10.8534 12.2727 11.0615 12.1865 11.2149 12.0331C11.3683 11.8796 11.4545 11.6715 11.4545 11.4545C11.6715 11.4545 11.8796 11.3683 12.0331 11.2149C12.1865 11.0615 12.2727 10.8534 12.2727 10.6364C12.2727 10.4194 12.1865 10.2113 12.0331 10.0578C11.8796 9.90438 11.6715 9.81818 11.4545 9.81818H10.6364C10.4194 9.81818 10.2113 9.90438 10.0578 10.0578C9.90438 10.2113 9.81818 10.4194 9.81818 10.6364V11.4545C9.81818 11.6715 9.90438 11.8796 10.0578 12.0331C10.2113 12.1865 10.4194 12.2727 10.6364 12.2727ZM13.9091 9.81818C13.6921 9.81818 13.484 9.90438 13.3305 10.0578C13.1771 10.2113 13.0909 10.4194 13.0909 10.6364V13.0909C12.8739 13.0909 12.6658 13.1771 12.5124 13.3305C12.3589 13.484 12.2727 13.6921 12.2727 13.9091C12.2727 14.1261 12.3589 14.3342 12.5124 14.4876C12.6658 14.6411 12.8739 14.7273 13.0909 14.7273H13.9091C14.1261 14.7273 14.3342 14.6411 14.4876 14.4876C14.6411 14.3342 14.7273 14.1261 14.7273 13.9091V10.6364C14.7273 10.4194 14.6411 10.2113 14.4876 10.0578C14.3342 9.90438 14.1261 9.81818 13.9091 9.81818ZM10.6364 13.0909C10.4745 13.0909 10.3164 13.1389 10.1818 13.2288C10.0473 13.3187 9.94239 13.4465 9.88046 13.596C9.81854 13.7455 9.80233 13.91 9.8339 14.0687C9.86547 14.2274 9.9434 14.3732 10.0578 14.4876C10.1722 14.6021 10.318 14.68 10.4767 14.7116C10.6355 14.7431 10.8 14.7269 10.9495 14.665C11.099 14.6031 11.2268 14.4982 11.3167 14.3636C11.4066 14.2291 11.4545 14.0709 11.4545 13.9091C11.4545 13.6921 11.3683 13.484 11.2149 13.3305C11.0615 13.1771 10.8534 13.0909 10.6364 13.0909Z" fill="#5F6368"/>
</svg>