<svg xmlns="http://www.w3.org/2000/svg" viewBox=" 0 0 17 16">
    <path fill-rule="evenodd"
          d="M4.283 9.086.425 7.616c-.391-.15-.395-.714-.004-.868L16.25.513c.336-.132.682.168.61.528l-2.842 13.951a.452.452 0 0 1-.712.28L9.43 12.399a.631.631 0 0 0-.782.022l-2.15 1.79a.45.45 0 0 1-.721-.222L4.283 9.086Zm8.792-5.523-7.539 4.74a.782.782 0 0 0-.331.873L6.02 12.1c.058.207.352.185.38-.029l.212-1.603c.04-.302.181-.58.4-.788l6.221-5.904c.117-.11-.023-.297-.158-.212Z"
          clip-rule="evenodd"/>
</svg>