<svg width="80" height="21" viewBox="0 0 80 21" fill="none" xmlns="http://www.w3.org/2000/svg">
<g clip-path="url(#clip0_2245_10624)">
<path fill-rule="evenodd" clip-rule="evenodd" d="M19.4288 6.24604C20.2599 6.29989 21.0391 6.13835 21.8184 5.70758C22.5456 5.33066 23.169 4.73835 23.5846 3.9845C24.156 3.17681 24.4158 2.15373 24.3119 1.1845C24.2599 0.592195 24.0521 0.430656 23.7924 0.592195C23.0651 1.02296 22.2339 1.29219 21.3508 1.34604C20.4158 1.45373 19.5326 1.50758 18.5976 1.45373C17.8184 1.39989 16.5716 1.29219 14.9093 1.13066C13.2469 0.969118 12.1041 0.915271 11.4288 0.915271C10.9612 0.861425 10.5456 0.861425 10.1301 0.861425C9.71447 0.861425 9.03914 0.861425 8.10408 0.915271C7.27291 0.969118 6.38979 1.07681 5.55862 1.23835C4.83135 1.45373 4.05213 1.77681 3.27291 2.15373C2.49369 2.53066 1.81836 3.06912 1.29888 3.71527C0.519662 4.57681 0.05213 5.70758 0.000181923 6.8922C-0.0517661 7.43066 0.00018193 7.96912 0.207974 8.50758C0.415766 8.9922 0.727455 9.47681 1.14304 9.79989C1.81836 10.3383 2.59758 10.6076 3.42875 10.6076C4.20797 10.6076 4.98719 10.4999 5.66252 10.1768C6.182 9.96143 6.70148 9.5845 7.11706 9.20758C7.32486 8.9922 7.53265 8.72296 7.63654 8.45373C7.68849 8.39989 7.68849 8.34604 7.68849 8.23835C7.68849 8.1845 7.68849 8.07681 7.63654 8.02296C7.53265 7.91527 7.3768 7.80758 7.27291 7.69989C7.11706 7.5922 6.96122 7.43066 6.90927 7.21527C6.75343 6.94604 6.70148 6.62296 6.75343 6.35373C6.80538 5.92296 6.90927 5.54604 7.11706 5.16912C7.3768 4.73835 7.74044 4.36143 8.20797 4.14604C8.83135 3.82296 9.45473 3.71527 10.0781 3.76912L7.01317 13.6768C6.44174 15.6153 6.49369 17.2307 7.16901 18.523C7.89629 19.8691 9.24693 20.5691 11.221 20.6768C12.208 20.7307 13.195 20.623 14.1301 20.2999C14.9612 20.0307 15.7924 19.5999 16.4677 19.0614C17.0391 18.6307 17.5586 18.146 18.0262 17.6076C18.3898 17.2307 18.6495 16.7999 18.9093 16.3153C18.9612 16.2076 19.0132 16.0999 19.0651 15.9922C19.0651 15.8845 19.0651 15.7768 19.0651 15.6691C19.0132 15.5614 18.8054 15.5614 18.5456 15.723C17.6106 16.2076 16.6236 16.5307 15.5846 16.6922C14.7015 16.8537 13.7664 16.6922 12.9872 16.2614C12.3119 15.8307 12.1041 15.1845 12.3638 14.2153C12.3638 14.2153 12.5716 13.5691 12.9352 12.3307H17.143C17.195 12.3307 17.2469 12.3307 17.2469 12.2768C17.2989 12.2768 17.2989 12.223 17.2989 12.1691L18.1301 9.5845V9.53066L18.0262 9.47681H13.9223C14.0262 9.15373 14.2339 8.50758 14.5456 7.4845C14.8573 6.46143 15.0651 5.76143 15.221 5.33066C16.5716 5.81527 17.9742 6.13835 19.4288 6.24604ZM28.6755 12.6537C28.6755 12.5999 28.6755 12.5999 28.6755 12.6537C28.6755 12.5999 28.6755 12.5999 28.6755 12.5999C28.6755 12.5999 28.6755 12.5999 28.6236 12.5999C28.6236 12.5999 28.6236 12.5999 28.5716 12.5999H21.195C21.143 12.5999 21.143 12.5999 21.0911 12.6537C21.0391 12.6537 21.0391 12.7076 21.0391 12.7614L20.3638 14.9691L20.4677 15.0768H27.8963H27.9482L28.0002 15.023L28.6755 12.6537ZM49.2469 15.023L50.4937 10.9845C50.9093 9.74604 50.9093 8.72296 50.4417 7.91527C50.2339 7.53835 49.9223 7.21527 49.5586 6.99989C49.195 6.7845 48.7794 6.67681 48.3638 6.73066C47.4807 6.7845 46.6495 6.99989 45.8703 7.4845C44.8833 8.07681 44.0002 8.8845 43.3249 9.79989C43.3768 9.42297 43.3768 8.9922 43.2729 8.61527C43.169 8.23835 43.0132 7.86143 42.8054 7.53835C42.5976 7.26912 42.2859 7.05373 41.9742 6.8922C41.6625 6.73066 41.2989 6.67681 40.9352 6.73066C40.1041 6.7845 39.2729 6.99989 38.4937 7.43066C37.5067 7.96912 36.6755 8.77681 36.0002 9.69219C36.0521 9.31527 36.0521 8.93835 36.0002 8.56143C35.8963 8.1845 35.7404 7.80758 35.5326 7.53835C35.2729 7.26912 34.9612 7.05373 34.6495 6.8922C34.2859 6.73066 33.9223 6.67681 33.5586 6.73066C32.8313 6.73066 32.1041 6.94604 31.4807 7.32296C30.9093 7.5922 30.3898 8.02296 29.9742 8.56143L29.9223 8.61527C29.9223 8.66912 29.9223 8.66912 29.9223 8.72297C29.9223 8.77681 29.9223 8.77681 29.9742 8.83066C29.9742 8.8845 30.0262 8.8845 30.0262 8.8845C30.13 8.9922 30.2859 9.09989 30.4417 9.20758C30.5456 9.36912 30.5976 9.53066 30.6495 9.69219C30.7015 9.85373 30.7015 10.0153 30.6495 10.2307C30.5976 10.9845 30.4417 11.7383 30.2339 12.4922C29.8703 13.6768 29.0391 16.2614 27.7404 20.1922V20.246L27.7924 20.2999H32.7794C32.8313 20.2999 32.8313 20.246 32.8833 20.246C32.9352 20.246 32.9352 20.1922 32.9352 20.1383L35.0651 13.1922C35.2729 12.4922 35.6365 11.7922 36.1041 11.1999C36.6755 10.5537 37.143 10.2307 37.5586 10.3383C38.0262 10.446 38.1301 10.9307 37.8184 11.846C37.5586 12.7076 37.4028 13.3537 37.2989 13.6768C36.9352 14.8076 36.2599 16.9614 35.3249 20.1383L35.3768 20.1922H40.4158C40.4677 20.1922 40.4677 20.1383 40.5197 20.1383C40.5716 20.1383 40.5716 20.0845 40.5716 20.0307L42.3378 13.5691L42.4937 13.0845C42.7015 12.3307 43.0651 11.6845 43.5326 11.0922C44.1041 10.446 44.5716 10.123 44.9872 10.2307C45.4547 10.3383 45.5586 10.823 45.2469 11.7383L43.6885 16.746C43.3249 17.9307 43.3768 18.8999 43.8963 19.5999C44.156 19.9768 44.5197 20.246 44.8833 20.4614C45.2989 20.623 45.7145 20.7307 46.1301 20.6768C46.8573 20.6768 47.5846 20.4614 48.208 20.0845C48.7794 19.8153 49.2989 19.3845 49.6625 18.846C49.7145 18.7922 49.7145 18.7383 49.7145 18.6845C49.7145 18.6307 49.7145 18.5768 49.6625 18.523C49.5586 18.4153 49.4547 18.3614 49.3508 18.3076C49.195 18.1999 49.0391 18.0383 48.9872 17.823C48.8313 17.6614 48.8313 17.3384 48.8313 16.9614C48.8833 16.3153 49.0391 15.6691 49.2469 15.023ZM64.8313 14.323C65.4028 12.3845 65.2989 10.6614 64.3638 9.20758C63.4807 7.75373 62.0261 6.94604 60.0521 6.7845C58.0781 6.67681 56.1041 7.26912 54.4937 8.45373C52.8313 9.5845 51.5846 11.2537 51.0132 13.246C50.3898 15.1845 50.5456 16.9076 51.4807 18.3614C52.3638 19.8153 53.8184 20.623 55.7924 20.7845C57.7664 20.946 59.7404 20.3537 61.3508 19.1153C63.0132 17.9307 64.208 16.2614 64.8313 14.323ZM55.8963 13.623C56.208 12.5999 56.6755 11.5768 57.2989 10.7153C57.5067 10.3922 57.7664 10.123 58.1301 9.96143C58.4417 9.79989 58.8054 9.69219 59.221 9.69219C59.5326 9.69219 59.8443 9.85373 60.0521 10.0691C60.2599 10.2845 60.4158 10.6076 60.4158 10.9307C60.5197 11.9537 60.3638 12.9768 60.0002 13.8922C59.6885 14.9691 59.221 15.9383 58.5976 16.7999C58.3898 17.123 58.13 17.3922 57.7664 17.5537C57.4547 17.7153 57.0911 17.823 56.7274 17.823C56.4158 17.823 56.1041 17.6614 55.8963 17.446C55.6885 17.2307 55.5326 16.9076 55.5846 16.5845C55.4287 15.6153 55.5846 14.5922 55.8963 13.623ZM78.2859 15.023C78.4937 14.323 78.7534 13.5691 79.0132 12.7076C79.2729 11.846 79.4807 11.3076 79.5326 10.9845C79.8963 9.74604 79.8963 8.72296 79.4807 7.91527C79.2729 7.53835 78.9612 7.21527 78.5976 6.99989C78.2339 6.7845 77.8184 6.67681 77.4028 6.73066C76.5197 6.7845 75.6365 6.99989 74.8573 7.4845C73.8184 8.02296 72.9352 8.83066 72.2599 9.74604C72.3638 9.36912 72.3119 8.9922 72.2599 8.56143C72.156 8.1845 72.0002 7.80758 71.7924 7.53835C71.5326 7.26912 71.221 7.05373 70.8573 6.8922C70.4937 6.73066 70.1301 6.67681 69.7664 6.73066C69.0391 6.73066 68.3119 6.94604 67.6885 7.32296C67.1171 7.5922 66.5976 8.02296 66.182 8.56143C66.1301 8.61527 66.1301 8.66912 66.1301 8.72297C66.1301 8.77681 66.1301 8.83066 66.182 8.8845C66.2859 8.9922 66.3378 9.04604 66.4417 9.09989C66.5976 9.20758 66.7015 9.36912 66.7534 9.5845C66.8573 9.90758 66.9093 10.2845 66.8573 10.6076C66.8054 11.2537 66.6495 11.8999 66.4417 12.546C66.0781 13.7307 65.195 16.3153 63.8963 20.246V20.2999V20.3537C63.8963 20.3537 63.8963 20.3537 63.9482 20.4076C63.9482 20.4076 63.9482 20.4076 64.0002 20.4076H68.9872C69.0391 20.4076 69.0391 20.4076 69.0911 20.3537C69.143 20.2999 69.143 20.2999 69.143 20.246L71.2729 13.2999C71.4807 12.5999 71.8443 11.8999 72.3638 11.3614C72.9352 10.6614 73.5067 10.3922 73.9742 10.446C74.4417 10.5537 74.5456 11.0383 74.2859 11.9537L72.7274 16.9614C72.3638 18.146 72.4158 19.1153 72.8833 19.8153C73.143 20.1922 73.5067 20.4614 73.8703 20.6768C74.2859 20.8384 74.7015 20.946 75.1171 20.8922C75.8443 20.8922 76.5716 20.6768 77.195 20.2999C77.7664 20.0307 78.2859 19.5999 78.7015 19.0614C78.7534 19.0076 78.7534 18.9537 78.7534 18.8999C78.7534 18.846 78.7534 18.7922 78.7015 18.7383C78.5976 18.6307 78.4937 18.5768 78.3898 18.523C78.2339 18.4153 78.0781 18.2537 78.0261 18.0383C77.9222 17.7153 77.8703 17.3384 77.8703 17.0153C77.9222 16.3153 78.0781 15.6691 78.2859 15.023Z" fill="#828282"/>
</g>
<defs>
<clipPath id="clip0_2245_10624">
<rect width="80" height="21" fill="white"/>
</clipPath>
</defs>
</svg>
