<svg width="80" height="7" viewBox="0 0 80 7" fill="none" xmlns="http://www.w3.org/2000/svg">
<g clip-path="url(#clip0_2245_10627)">
<path d="M1.66047 4.92601C1.62828 5.04809 1.62828 5.17662 1.66047 5.2987C1.68977 5.39125 1.74531 5.47297 1.82015 5.53365C1.89471 5.59745 1.9818 5.64441 2.07564 5.67138C2.18159 5.68615 2.28904 5.68615 2.395 5.67138C2.54063 5.69254 2.68849 5.69254 2.83412 5.67138C2.94727 5.63443 3.05281 5.57676 3.1455 5.50124L3.32913 5.39592C3.38441 5.38412 3.44151 5.38412 3.4968 5.39592H4.7423C4.87803 5.39592 4.93392 5.46073 4.90199 5.60657C4.86387 5.73468 4.80447 5.85524 4.72634 5.96305C4.59716 6.15063 4.43794 6.31494 4.25528 6.44916C4.01132 6.63122 3.74231 6.7759 3.45688 6.87856C3.05512 7.01187 2.63394 7.07488 2.21137 7.0649C1.86824 7.07072 1.52789 7.00164 1.21336 6.86236C0.910231 6.73948 0.64358 6.53911 0.439324 6.28073C0.235068 6.02236 0.100154 5.71475 0.0476938 5.38782C-0.0315229 5.0222 -0.0315229 4.64348 0.0476938 4.27786C0.128048 3.91601 0.256997 3.56707 0.430927 3.24083C0.737911 2.62014 1.27477 2.14819 1.92394 1.92833C2.29965 1.80194 2.69388 1.74166 3.08961 1.75009C3.46221 1.74015 3.83175 1.82071 4.16745 1.98504C4.45108 2.13412 4.69698 2.34761 4.88602 2.60888C5.05912 2.84927 5.17647 3.12622 5.22933 3.41907C5.28854 3.72673 5.28854 4.04312 5.22933 4.35078L5.16546 4.62624C5.16439 4.67122 5.15386 4.71545 5.13458 4.75597C5.11531 4.79649 5.08772 4.83237 5.05368 4.8612C4.99728 4.90787 4.92686 4.9336 4.85408 4.93411L1.66047 4.92601ZM2.90598 3.06259C2.66474 3.05312 2.42954 3.14044 2.25129 3.30564C2.08618 3.45268 1.95993 3.63928 1.88402 3.84847H3.60857C3.62835 3.65691 3.58023 3.46446 3.47284 3.30564C3.40569 3.22053 3.3187 3.15374 3.21973 3.11131C3.12076 3.06887 3.01292 3.05213 2.90598 3.06259Z" fill="#828282"/>
<path d="M6.38673 2.63315C6.46726 2.28141 6.59063 1.94122 6.75399 1.62042C6.93323 1.31321 7.16272 1.03923 7.43264 0.81023C7.72728 0.551415 8.06531 0.348352 8.43064 0.210693C8.86824 0.0637759 9.32706 -0.00743279 9.78792 4.50166e-05C10.1783 -0.00433144 10.5658 0.0671719 10.9296 0.210693C11.2513 0.345753 11.5401 0.550348 11.7759 0.81023C11.9969 1.03918 12.1635 1.31628 12.263 1.62042C12.365 1.9505 12.3869 2.30072 12.3268 2.64125C12.2789 2.92481 12.231 3.21648 12.1672 3.51625C12.1033 3.81602 12.0314 4.10768 11.9596 4.37504C11.867 4.73145 11.7302 5.07448 11.5524 5.39588C11.1833 6.06217 10.5826 6.56483 9.86776 6.8056C9.42981 6.95022 8.97092 7.0187 8.51048 7.00815C8.12326 7.01507 7.73835 6.94631 7.37675 6.8056C7.05619 6.68357 6.7669 6.48971 6.53044 6.23847C6.30029 5.99416 6.13095 5.69761 6.03652 5.3735C5.94209 5.04939 5.92529 4.70708 5.98753 4.37504C5.98753 4.10768 6.07535 3.82412 6.13922 3.51625C6.20309 3.20838 6.27495 2.91671 6.38673 2.63315ZM10.243 4.31833C10.275 4.1941 10.3069 4.06447 10.3388 3.92944C10.3388 3.78361 10.4107 3.63778 10.4426 3.49194C10.4746 3.34611 10.4985 3.20028 10.5304 3.05444C10.5624 2.90861 10.5304 2.79518 10.5863 2.68176C10.6066 2.53393 10.6066 2.38398 10.5863 2.23616C10.5596 2.10687 10.505 1.98516 10.4266 1.87967C10.3286 1.76225 10.202 1.67288 10.0594 1.62042C9.90501 1.56902 9.74259 1.54704 9.58034 1.5556C9.40088 1.55344 9.22246 1.58362 9.05339 1.64472C8.90112 1.70013 8.75833 1.77941 8.63024 1.87967C8.51044 1.98072 8.40792 2.10117 8.32685 2.23616C8.24544 2.37627 8.18109 2.5259 8.13523 2.68176L7.98353 3.05444C7.98353 3.20028 7.91966 3.33801 7.88772 3.49194C7.85579 3.64588 7.82385 3.78361 7.7999 3.92944C7.7746 4.058 7.75595 4.1878 7.74401 4.31833C7.69334 4.59918 7.75048 4.88905 7.90369 5.12852C8.00103 5.24402 8.12453 5.33384 8.26358 5.39028C8.40264 5.44673 8.55311 5.46811 8.7021 5.45259C9.05076 5.47449 9.3942 5.35832 9.66018 5.12852C9.91695 4.91965 10.1061 4.63743 10.2031 4.31833H10.243Z" fill="#828282"/>
<path d="M12.8141 6.90286C12.7817 6.90489 12.7493 6.89852 12.72 6.88434C12.6906 6.87017 12.6653 6.84866 12.6465 6.82185C12.6265 6.79739 12.6125 6.76852 12.6055 6.73755C12.5986 6.70659 12.599 6.67441 12.6065 6.6436L13.9239 0.356568C13.9426 0.287058 13.9815 0.224914 14.0357 0.178327C14.0894 0.126138 14.1609 0.0970986 14.2353 0.0973083H17.2213C17.5588 0.0879234 17.8941 0.154321 18.2033 0.291753C18.4505 0.408753 18.6687 0.580383 18.8421 0.794068C18.9998 0.99229 19.1092 1.22545 19.1614 1.47462C19.2094 1.72069 19.2094 1.97392 19.1614 2.21999C19.1276 2.38902 19.0712 2.55256 18.9938 2.7061C18.929 2.83183 18.857 2.95357 18.7782 3.07069C18.7071 3.15742 18.6297 3.23866 18.5466 3.31374L18.363 3.45147C18.5563 3.60584 18.6961 3.81867 18.7622 4.05911C18.8216 4.32582 18.8216 4.60259 18.7622 4.8693C18.7066 5.13036 18.6264 5.3854 18.5227 5.63087C18.4263 5.87337 18.2792 6.09174 18.0916 6.27092C17.8831 6.4698 17.6355 6.62167 17.365 6.71652C16.9956 6.83282 16.61 6.88755 16.2233 6.87856L12.8141 6.90286ZM14.6345 5.39592H16.2313C16.4131 5.399 16.5906 5.33898 16.7343 5.22578C16.8668 5.12128 16.9576 4.97163 16.9898 4.80448C17.0104 4.73287 17.0139 4.65731 17 4.58405C16.9861 4.51079 16.9552 4.44194 16.9099 4.38319C16.8552 4.3239 16.788 4.27783 16.7134 4.24838C16.6388 4.21893 16.5586 4.20686 16.4788 4.21305H14.882L14.6345 5.39592ZM17.389 2.15518C17.4085 2.0884 17.4129 2.01801 17.4019 1.94926C17.3908 1.88051 17.3646 1.81519 17.3251 1.75819C17.2725 1.70468 17.2082 1.66437 17.1376 1.64046C17.0669 1.61655 16.9917 1.6097 16.9179 1.62046H15.4329L15.1694 2.71421H16.6864C16.8567 2.72332 17.0244 2.66853 17.1574 2.56027C17.2805 2.45823 17.3628 2.31425 17.389 2.15518Z" fill="#828282"/>
<path d="M22.4668 5.18515C22.4138 5.14428 22.3747 5.08763 22.355 5.02311L21.876 3.40274L21.1973 6.64348C21.1787 6.71299 21.1397 6.77514 21.0855 6.82173C21.0318 6.87391 20.9603 6.90295 20.8859 6.90274H19.6564C19.624 6.90477 19.5916 6.8984 19.5622 6.88422C19.5329 6.87005 19.5076 6.84854 19.4887 6.82173C19.4688 6.79727 19.4548 6.7684 19.4478 6.73743C19.4409 6.70647 19.4412 6.67429 19.4488 6.64348L20.7582 0.356447C20.7736 0.285515 20.8132 0.222382 20.87 0.178207C20.9237 0.126018 20.9952 0.0969784 21.0696 0.0971881H22.2193C22.2717 0.0841404 22.3265 0.0841404 22.379 0.0971881C22.4216 0.111722 22.46 0.136778 22.4907 0.170105L22.5546 0.251123C22.5523 0.27537 22.5523 0.299793 22.5546 0.32404L23.353 3.02196L25.341 0.356447C25.3873 0.300936 25.438 0.249445 25.4927 0.202512C25.5339 0.165422 25.5819 0.13701 25.634 0.118928C25.6861 0.100846 25.7412 0.0934562 25.7961 0.0971881H27.2253C27.2577 0.0951636 27.2901 0.101537 27.3194 0.115709C27.3487 0.129882 27.374 0.151388 27.3929 0.178207C27.4063 0.205949 27.4133 0.236433 27.4133 0.267327C27.4133 0.298221 27.4063 0.328705 27.3929 0.356447L26.1155 6.64348C26.1001 6.71442 26.0605 6.77755 26.0037 6.82173C25.95 6.87391 25.8785 6.90295 25.8041 6.90274H24.5506C24.5182 6.90477 24.4858 6.8984 24.4565 6.88422C24.4271 6.87005 24.4018 6.84854 24.3829 6.82173C24.363 6.79727 24.349 6.7684 24.342 6.73743C24.3351 6.70647 24.3354 6.67429 24.343 6.64348L25.0217 3.40274L23.9518 5.02311C23.9021 5.08574 23.8459 5.14278 23.7841 5.19325C23.7109 5.2426 23.6245 5.26804 23.5366 5.26617H22.7382C22.6904 5.28367 22.6383 5.28525 22.5895 5.27068C22.5407 5.25612 22.4977 5.22616 22.4668 5.18515Z" fill="#828282"/>
<path d="M32.5339 5.34705C32.5652 5.34484 32.5965 5.35118 32.6246 5.36543C32.6527 5.37968 32.6765 5.40131 32.6935 5.42806C32.7069 5.45581 32.7139 5.48629 32.7139 5.51718C32.7139 5.54808 32.7069 5.57856 32.6935 5.60631L32.5099 6.64334C32.4943 6.71429 32.4561 6.77808 32.4013 6.82491C32.3465 6.87174 32.2781 6.89904 32.2065 6.9026H27.6636C27.6312 6.90463 27.5988 6.89825 27.5695 6.88408C27.5401 6.86991 27.5148 6.8484 27.4959 6.82158C27.4825 6.79384 27.4756 6.76336 27.4756 6.73246C27.4756 6.70157 27.4825 6.67108 27.4959 6.64334L28.7415 0.356306C28.7601 0.286796 28.7991 0.224653 28.8532 0.178065C28.9069 0.125877 28.9785 0.0968371 29.0528 0.0970468H33.5319C33.5643 0.0950223 33.5967 0.101396 33.626 0.115568C33.6554 0.12974 33.6806 0.151246 33.6995 0.178065C33.7195 0.202521 33.7335 0.231394 33.7404 0.262356C33.7474 0.293318 33.747 0.3255 33.7395 0.356306L33.5319 1.39334C33.5132 1.46489 33.4709 1.52779 33.4121 1.57158C33.3584 1.62377 33.2869 1.65281 33.2125 1.6526H30.2744L30.0508 2.70584H32.7894C32.8209 2.70424 32.8524 2.70997 32.8815 2.72261C32.9106 2.73525 32.9364 2.75445 32.957 2.77876C32.9767 2.80509 32.9911 2.83511 32.9993 2.86709C33.0075 2.89906 33.0094 2.93237 33.0049 2.9651L32.7814 3.99404C32.7685 4.06819 32.7286 4.13472 32.6696 4.18038C32.6109 4.22949 32.538 4.25792 32.462 4.2614H29.7235L29.5399 5.34705H32.5339Z" fill="#828282"/>
<path d="M38.1074 6.90288C38.0641 6.9066 38.0206 6.90133 37.9794 6.8874C37.9382 6.87348 37.9002 6.85117 37.8678 6.82186C37.8248 6.77033 37.7848 6.71622 37.7481 6.65982L36.0714 3.35426L35.3768 6.64362C35.3707 6.67933 35.3576 6.71346 35.3384 6.74404C35.3193 6.77463 35.2943 6.80107 35.265 6.82186C35.2402 6.84783 35.2104 6.8684 35.1774 6.88232C35.1445 6.89625 35.1091 6.90324 35.0734 6.90288H33.8199C33.7875 6.9049 33.7551 6.89853 33.7258 6.88435C33.6965 6.87018 33.6712 6.84868 33.6523 6.82186C33.6309 6.79813 33.6155 6.76959 33.6071 6.7386C33.5988 6.70761 33.5979 6.67505 33.6044 6.64362L34.9297 0.35658C34.9359 0.320868 34.9489 0.28674 34.9681 0.256153C34.9873 0.225566 35.0122 0.199123 35.0415 0.178339C35.0664 0.152371 35.0962 0.1318 35.1291 0.117873C35.1621 0.103946 35.1974 0.096954 35.2331 0.0973206H36.0315C36.0766 0.0945114 36.1217 0.100957 36.1642 0.11627C36.2068 0.131584 36.2458 0.155451 36.279 0.186441C36.3186 0.226339 36.351 0.27295 36.3748 0.324172L38.0834 3.64593L38.77 0.35658C38.7854 0.285647 38.825 0.222514 38.8818 0.178339C38.9326 0.126639 39.0015 0.0974994 39.0734 0.0973206H40.3349C40.3671 0.0966886 40.3991 0.103681 40.4282 0.117743C40.4573 0.131806 40.4827 0.152552 40.5026 0.178339C40.5225 0.202795 40.5365 0.231668 40.5435 0.26263C40.5504 0.293592 40.5501 0.325774 40.5425 0.35658L39.2171 6.64362C39.2015 6.71457 39.1634 6.77835 39.1086 6.82518C39.0537 6.87202 38.9853 6.89931 38.9138 6.90288H38.1074Z" fill="#828282"/>
<path d="M41.0855 4.73149C41.0552 4.73245 41.0251 4.72638 40.9974 4.71375C40.9697 4.70111 40.9453 4.68224 40.9259 4.65857C40.9023 4.59876 40.9023 4.53205 40.9259 4.47223L41.1255 3.49191C41.1418 3.41711 41.1844 3.35089 41.2452 3.30556C41.3012 3.25706 41.3713 3.22859 41.4448 3.22455H44.4628C44.494 3.22315 44.525 3.22986 44.553 3.24404C44.5809 3.25822 44.6048 3.27939 44.6225 3.30556C44.6366 3.33454 44.6439 3.36642 44.6439 3.39874C44.6439 3.43105 44.6366 3.46293 44.6225 3.49191L44.4229 4.47223C44.408 4.54559 44.3685 4.61143 44.3111 4.65857C44.2516 4.70529 44.1787 4.73091 44.1035 4.73149H41.0855Z" fill="#828282"/>
<path d="M45.804 2.63324C45.8972 2.27962 46.034 1.93936 46.2112 1.62051C46.388 1.31157 46.6179 1.03719 46.8899 0.810322C47.1884 0.548635 47.5322 0.345358 47.9038 0.210785C48.3362 0.0650632 48.7896 -0.00613794 49.2451 0.00013725C49.6329 -0.00420692 50.0178 0.0673132 50.3789 0.210785C50.7023 0.346847 50.9936 0.551221 51.2332 0.810322C51.4514 1.04144 51.6175 1.31787 51.7202 1.62051C51.8184 1.95131 51.8402 2.3006 51.7841 2.64134C51.7362 2.92761 51.6803 3.21927 51.6164 3.51634C51.5525 3.82421 51.4887 4.10778 51.4168 4.37514C51.325 4.73305 51.1853 5.07652 51.0016 5.39597C50.8244 5.70461 50.5946 5.97892 50.323 6.20615C50.0277 6.45611 49.6893 6.6484 49.325 6.77328C48.8869 6.9173 48.4281 6.98577 47.9677 6.97583C47.5779 6.98279 47.1903 6.91404 46.826 6.77328C46.5231 6.64408 46.2509 6.45073 46.0276 6.20615C45.8052 5.97829 45.6385 5.70085 45.5406 5.39597C45.4424 5.06517 45.4205 4.71588 45.4767 4.37514C45.5166 4.10778 45.5725 3.82421 45.6364 3.51634C45.7002 3.20847 45.7322 2.9168 45.804 2.63324ZM49.6523 4.31842C49.6523 4.1969 49.7162 4.06727 49.7561 3.92953L49.8519 3.49203C49.8519 3.3381 49.9158 3.20037 49.9398 3.05453C49.9637 2.9087 49.9877 2.79528 49.9956 2.68185C50.0198 2.53432 50.0198 2.38377 49.9956 2.23625C49.9719 2.10596 49.9171 1.98356 49.836 1.87977C49.7491 1.76442 49.6333 1.67488 49.5006 1.62051C49.3431 1.55782 49.1748 1.52753 49.0056 1.53139C48.8236 1.52994 48.6427 1.56008 48.4707 1.62051C48.3209 1.67595 48.1807 1.75526 48.0555 1.85546C47.9357 1.95651 47.8332 2.07696 47.7521 2.21194C47.6641 2.34855 47.5994 2.49918 47.5605 2.65754C47.5605 2.77097 47.4887 2.8925 47.4567 3.03023C47.4248 3.16796 47.3849 3.31379 47.3529 3.46773C47.321 3.62166 47.297 3.7594 47.2731 3.90523C47.2453 4.03368 47.224 4.16348 47.2092 4.29412C47.1617 4.57599 47.2216 4.86564 47.3769 5.1043C47.4733 5.22091 47.5967 5.31151 47.736 5.36805C47.8753 5.42459 48.0262 5.44531 48.1753 5.42838C48.5236 5.44776 48.8662 5.3319 49.1334 5.1043C49.3754 4.8968 49.5552 4.62451 49.6523 4.31842Z" fill="#828282"/>
<path d="M52.2705 6.90255C52.2381 6.90458 52.2057 6.8982 52.1763 6.88403C52.147 6.86986 52.1217 6.84835 52.1028 6.82153C52.0834 6.79665 52.0691 6.76803 52.0609 6.73739C52.0527 6.70676 52.0506 6.67475 52.0549 6.64329L53.3803 0.356256C53.3957 0.285324 53.4352 0.22219 53.4921 0.178015C53.5428 0.126315 53.6117 0.0971757 53.6837 0.0969969H56.6857C57.0206 0.0866354 57.3536 0.153101 57.6597 0.291441C57.9035 0.413973 58.1165 0.591311 58.2825 0.80996C58.4397 1.00746 58.5467 1.24118 58.5939 1.49052C58.6509 1.7356 58.6509 1.9908 58.5939 2.23589C58.5625 2.40448 58.5087 2.568 58.4342 2.722C58.3699 2.84966 58.2951 2.97162 58.2106 3.08658C58.1438 3.17716 58.066 3.25882 57.9791 3.32964L57.8034 3.46737C57.9973 3.6197 58.135 3.83369 58.1947 4.07501C58.254 4.34171 58.254 4.61849 58.1947 4.88519C58.1381 5.14505 58.0607 5.39977 57.9631 5.64677C57.8667 5.88926 57.7196 6.10763 57.532 6.28681C57.3204 6.48569 57.0702 6.63748 56.7974 6.73241C56.4283 6.85 56.0425 6.90475 55.6557 6.89445L52.2705 6.90255ZM54.0909 5.39561H55.6877C55.8668 5.39686 56.0412 5.33693 56.1827 5.22547C56.3199 5.12395 56.4141 4.97339 56.4461 4.80417C56.4657 4.73193 56.4679 4.656 56.4526 4.58272C56.4373 4.50943 56.405 4.44091 56.3583 4.38288C56.3007 4.31594 56.2272 4.26514 56.1447 4.23535C56.0622 4.20555 55.9736 4.19777 55.8873 4.21274H54.2905L54.0909 5.39561ZM56.8374 2.15487C56.8588 2.08834 56.8642 2.01756 56.8531 1.94848C56.8419 1.8794 56.8147 1.81404 56.7735 1.75788C56.7209 1.70437 56.6566 1.66405 56.586 1.64015C56.5153 1.61624 56.4401 1.60939 56.3663 1.62014H54.8813L54.6577 2.7301H56.1428C56.3106 2.73873 56.4756 2.68388 56.6058 2.57616C56.7349 2.47232 56.8181 2.32084 56.8374 2.15487Z" fill="#828282"/>
<path d="M61.9155 5.1852C61.8772 5.13678 61.8475 5.08194 61.8277 5.02317L61.3486 3.4028L60.678 6.64354C60.6718 6.67925 60.6588 6.71338 60.6396 6.74396C60.6204 6.77455 60.5955 6.80099 60.5662 6.82178C60.5413 6.84775 60.5115 6.86832 60.4786 6.88224C60.4457 6.89617 60.4103 6.90316 60.3746 6.9028H59.0812C59.0487 6.90482 59.0164 6.89845 58.987 6.88427C58.9577 6.8701 58.9324 6.8486 58.9135 6.82178C58.8922 6.79805 58.8767 6.76951 58.8684 6.73852C58.86 6.70753 58.8591 6.67497 58.8656 6.64354L60.2229 0.3565C60.229 0.320788 60.2421 0.28666 60.2613 0.256074C60.2805 0.225487 60.3054 0.199044 60.3347 0.17826C60.3595 0.152292 60.3893 0.131721 60.4223 0.117794C60.4552 0.103867 60.4906 0.0968747 60.5263 0.0972412H61.676C61.7311 0.0841227 61.7885 0.0841227 61.8436 0.0972412C61.884 0.111691 61.9199 0.136871 61.9474 0.170158C61.9756 0.190795 61.9976 0.218798 62.0113 0.251176V0.324093L62.8097 3.02201L64.7898 0.3565L64.9414 0.202565C65.0283 0.12867 65.1396 0.0910225 65.2528 0.0972412H66.682C66.7142 0.0966093 66.7461 0.103602 66.7752 0.117664C66.8043 0.131727 66.8298 0.152473 66.8496 0.17826C66.863 0.206002 66.87 0.236486 66.87 0.26738C66.87 0.298274 66.863 0.328758 66.8496 0.3565L65.5642 6.64354C65.5486 6.71449 65.5104 6.77827 65.4556 6.82511C65.4008 6.87194 65.3324 6.89923 65.2608 6.9028H64.0073C63.9749 6.90482 63.9425 6.89845 63.9132 6.88427C63.8838 6.8701 63.8585 6.8486 63.8397 6.82178C63.8202 6.79689 63.8059 6.76827 63.7977 6.73764C63.7895 6.707 63.7875 6.67499 63.7918 6.64354L64.4784 3.4028L63.3606 5.02317C63.3151 5.08953 63.2584 5.14715 63.1929 5.19331C63.1231 5.24355 63.039 5.26916 62.9534 5.26622H62.155C62.1116 5.27414 62.0669 5.27088 62.0251 5.25672C61.9832 5.24257 61.9456 5.21798 61.9155 5.1852Z" fill="#828282"/>
<path d="M71.9834 5.34721C72.0158 5.34518 72.0482 5.35156 72.0775 5.36573C72.1068 5.3799 72.1321 5.40141 72.151 5.42823C72.1629 5.4564 72.169 5.48671 72.169 5.51735C72.169 5.54798 72.1629 5.5783 72.151 5.60647L71.9674 6.6435C71.952 6.71444 71.9124 6.77757 71.8556 6.82174C71.8048 6.87344 71.7359 6.90258 71.664 6.90276H67.1211C67.0887 6.90479 67.0563 6.89841 67.0269 6.88424C66.9976 6.87007 66.9723 6.84856 66.9534 6.82174C66.934 6.79686 66.9197 6.76824 66.9115 6.7376C66.9032 6.70697 66.9012 6.67496 66.9055 6.6435L68.2309 0.356467C68.2462 0.285534 68.2858 0.222401 68.3426 0.178226C68.3934 0.126525 68.4623 0.0973861 68.5343 0.0972073H73.0053C73.0375 0.0965754 73.0695 0.103568 73.0986 0.11763C73.1277 0.131693 73.1531 0.152439 73.173 0.178226C73.1864 0.205968 73.1933 0.236453 73.1933 0.267346C73.1933 0.29824 73.1864 0.328724 73.173 0.356467L72.9494 1.3935C72.9433 1.42922 72.9302 1.46334 72.911 1.49393C72.8919 1.52452 72.8669 1.55096 72.8377 1.57174C72.7836 1.60858 72.7189 1.62572 72.654 1.62036H69.6999L69.4844 2.6736H72.2229C72.2545 2.67199 72.286 2.67773 72.315 2.69036C72.3441 2.703 72.3699 2.72221 72.3905 2.74651C72.4041 2.77566 72.4111 2.80747 72.4111 2.83968C72.4111 2.8719 72.4041 2.90371 72.3905 2.93286L72.175 3.96179C72.1586 4.03658 72.1161 4.10281 72.0552 4.14813C71.9992 4.19664 71.9291 4.22511 71.8556 4.22915H69.181L68.9574 5.34721H71.9834Z" fill="#828282"/>
<path d="M77.5645 6.90263C77.5212 6.90737 77.4774 6.90259 77.436 6.88861C77.3947 6.87462 77.3568 6.85178 77.325 6.82161C77.2771 6.77211 77.2343 6.71782 77.1972 6.65957L75.5206 3.35402L74.834 6.64337C74.8186 6.7143 74.779 6.77744 74.7222 6.82161C74.6685 6.8738 74.5969 6.90284 74.5226 6.90263H73.2691C73.2367 6.90466 73.2043 6.89828 73.1749 6.88411C73.1456 6.86994 73.1203 6.84843 73.1014 6.82161C73.088 6.79387 73.0811 6.76339 73.0811 6.73249C73.0811 6.7016 73.088 6.67111 73.1014 6.64337L74.3789 0.356335C74.3975 0.286825 74.4365 0.224682 74.4906 0.178094C74.5443 0.125905 74.6159 0.0968659 74.6902 0.0970756H75.4886C75.5324 0.0949051 75.5762 0.101675 75.6173 0.116984C75.6585 0.132292 75.6961 0.155828 75.7282 0.186196C75.7753 0.225092 75.8158 0.27163 75.8479 0.323927L77.5405 3.64569L78.2431 0.356335C78.2551 0.286041 78.292 0.222629 78.3469 0.178094C78.4006 0.125905 78.4722 0.0968659 78.5465 0.0970756H79.8C79.8324 0.0950512 79.8648 0.101425 79.8942 0.115597C79.9235 0.129769 79.9488 0.151275 79.9677 0.178094C79.9871 0.202977 80.0014 0.231601 80.0096 0.262236C80.0179 0.292871 80.0199 0.324882 80.0156 0.356335L78.6743 6.64337C78.6589 6.7143 78.6193 6.77744 78.5625 6.82161C78.5117 6.87331 78.4428 6.90245 78.3709 6.90263H77.5645Z" fill="#828282"/>
</g>
<defs>
<clipPath id="clip0_2245_10627">
<rect width="80" height="7" fill="white"/>
</clipPath>
</defs>
</svg>
