<svg width="418" height="124" viewBox="0 0 418 124" fill="none" xmlns="http://www.w3.org/2000/svg">
<path d="M18.5142 83.6537V45.8371L53.2289 26.0967L87.5424 45.7749V83.7159L53.2289 103.394L18.5142 83.6537ZM79.1562 50.9209L53.4945 36.5528C52.9181 36.3887 52.2908 36.8925 51.7879 37.1416C43.3508 41.3535 35.5014 46.8505 26.9739 50.9209L27.0699 78.3322L53.1159 92.9889L79.1562 78.5699V50.9209Z" fill="#828282"/>
<path d="M183.747 46.9132C190.828 45.6677 204.339 44.5978 209.454 50.7401C212.353 54.2217 212.833 60.4547 210.64 64.3665C209.109 67.0952 207.397 67.9331 204.735 69.2125C204.464 69.3427 204.266 69.1389 204.407 69.6654C208.182 74.6642 211.85 79.8724 214.268 85.6864H206.074C203.571 80.4555 200.271 75.485 196.609 70.9674H190.816V85.6864H183.752V46.9075L183.747 46.9132ZM190.811 65.0289H196.321C197.739 65.0289 201 64.1288 202.209 63.2852C205.238 61.1567 205.063 55.9597 202.096 53.8707C201.096 53.1631 198.626 52.2969 197.451 52.2969H191.235L190.811 52.7215V65.0345V65.0289Z" fill="#828282"/>
<path d="M312.592 46.3467V61.9149H329.545V46.3467H336.609V85.6917H329.545V68.4252H312.592V85.6917H305.246V46.3467H312.592Z" fill="#828282"/>
<path d="M385.491 41.8184V56.8204C398.342 51.6801 406.519 60.5285 405.236 73.3453C403.812 87.6058 389.306 87.9341 378.456 84.8148L378.467 43.1261C378.518 42.8713 378.687 42.7977 378.908 42.7185C380.586 42.0901 383.672 41.9655 385.497 41.8184H385.491ZM385.491 80.0312C390.385 80.7558 395.426 80.7615 397.37 75.372C400.552 66.5406 394.968 57.1997 385.491 63.1892V80.0312Z" fill="#828282"/>
<path d="M145.319 46.3467V52.574H127.518V62.1979H143.341V68.1421H127.518V79.4644H146.732V85.6917H120.172V46.3467H145.319Z" fill="#828282"/>
<path d="M278.403 72.9549C278.765 81.6844 288.954 81.2824 295.074 78.8991L295.944 84.6621C287.264 87.8663 275.171 87.4361 271.921 77.0479C269.276 68.5901 272.311 57.7037 281.782 55.5411C290.423 53.5654 297.899 59.3398 297.899 68.2901V72.5359L297.475 72.9605H278.403V72.9549ZM290.835 67.8598C290.79 58.5529 279.092 59.0737 278.403 67.8598H290.835Z" fill="#828282"/>
<path d="M241.388 85.1263C234.33 86.1963 219.095 89.0551 217.501 78.916C215.806 68.1428 226.39 66.303 234.607 67.8654C235.229 59.3171 226.712 60.7154 221.05 62.2043L220.23 56.5714C229.527 54.1258 240.428 53.5484 241.388 65.7425C241.88 71.9811 241.032 78.8198 241.388 85.1263ZM234.607 72.9548C231.973 72.1509 225.215 71.9471 224.503 75.4231C223.197 81.7749 230.612 80.8295 234.607 80.3143V72.9548Z" fill="#828282"/>
<path d="M352.15 55.9707C352.336 60.8733 351.901 65.957 352.139 70.8426C352.218 72.5409 352.382 75.3205 352.947 76.8264C354.58 81.1855 359.112 80.4495 362.887 80.0306V55.9707H369.951V84.8426C362.328 86.3881 349.443 88.9979 346.205 79.3343C345.951 78.5814 345.369 76.3056 345.369 75.6432V55.9707H352.15Z" fill="#828282"/>
<path d="M158.034 55.9707L164.109 65.306L170.326 55.9707H177.531L168.014 69.9821L178.378 85.6918H170.891L164.104 74.9299C162.725 74.9243 157.882 84.2199 156.763 85.6918H149.84C152.349 80.0986 156.39 75.3658 159.718 70.2651L150.123 55.9707H158.034Z" fill="#828282"/>
<path d="M256.364 55.9711H266.818V61.4907L266.394 61.9153H256.364V76.4928C256.364 76.8777 257.166 78.6723 257.494 79.0403C259.591 81.401 264.264 80.0933 266.818 79.1762L267.971 84.6618C259.845 88.1887 249.305 86.7621 249.294 75.9323L249.306 48.0455C251.317 48.1474 253.9 47.0151 255.787 47.0265C256.115 47.0265 256.155 47.0434 256.364 47.3378V55.9711Z" fill="#828282"/>
<path d="M53.2063 85.6922V80.0311L67.2889 72.3432L67.1984 57.0977L53.2063 49.4608V43.5166L72.0019 54.2671L72.081 74.7379L71.5667 75.355L53.2063 85.6922Z" fill="#828282"/>
</svg>
