<svg width="80" height="12" viewBox="0 0 80 12" fill="none" xmlns="http://www.w3.org/2000/svg">
<path d="M50.6181 8.40588C50.6181 7.8982 50.4538 7.49748 50.1252 7.20375C49.7963 6.90584 49.1952 6.62473 48.3213 6.36038C47.4477 6.09185 46.8099 5.80025 46.4077 5.48554C45.8356 5.04077 45.5495 4.45757 45.5495 3.73586C45.5495 3.03514 45.8141 2.46661 46.3438 2.03024C46.8774 1.58967 47.5577 1.36938 48.3852 1.36938C48.9459 1.36938 49.4466 1.48687 49.8874 1.72184C50.332 1.95681 50.6759 2.28409 50.9195 2.70367C51.1631 3.12328 51.2849 3.59109 51.2849 4.1072H50.5659C50.5659 3.482 50.3688 2.9806 49.9741 2.60299C49.5799 2.22115 49.0502 2.03024 48.3852 2.03024C47.7395 2.03024 47.2252 2.18758 46.8427 2.50226C46.4599 2.81275 46.2684 3.21979 46.2684 3.72328C46.2684 4.18904 46.4406 4.56874 46.7845 4.86247C47.1288 5.15616 47.6795 5.41633 48.4374 5.64289C49.1952 5.86528 49.7695 6.09816 50.1599 6.34153C50.5502 6.58068 50.8441 6.8681 51.0413 7.20375C51.2384 7.53944 51.337 7.93594 51.337 8.3933C51.337 9.115 51.0702 9.69402 50.537 10.1304C50.007 10.5668 49.3074 10.7849 48.4374 10.7849C47.842 10.7849 47.2949 10.6696 46.7963 10.4388C46.3013 10.208 45.9245 9.88493 45.6652 9.46954C45.4102 9.05415 45.2827 8.5779 45.2827 8.04084H45.9959C45.9959 8.68702 46.2181 9.19679 46.6627 9.57022C47.1074 9.94366 47.6991 10.1304 48.4374 10.1304C49.0949 10.1304 49.6224 9.97304 50.0206 9.65837C50.4188 9.34366 50.6181 8.92617 50.6181 8.40588Z" fill="#828282"/>
<path d="M53.5931 6.92692V10.6592H52.8799V1.49536H55.7563C56.6342 1.49536 57.326 1.73873 57.8324 2.22545C58.3427 2.71217 58.5981 3.38142 58.5981 4.23319C58.5981 5.09332 58.3524 5.75839 57.8617 6.22832C57.3745 6.69408 56.667 6.92692 55.7388 6.92692H53.5931ZM53.5931 6.27238H55.7563C56.4485 6.27238 56.9763 6.09404 57.3395 5.73741C57.7031 5.38074 57.8849 4.88355 57.8849 4.24577C57.8849 3.61217 57.7031 3.10867 57.3395 2.73524C56.9799 2.35763 56.4677 2.16461 55.8027 2.15621H53.5931V6.27238Z" fill="#828282"/>
<path d="M63.9568 8.0913H60.1236L59.2536 10.6592H58.5054L61.7007 1.49536H62.3793L65.575 10.6592H64.8325L63.9568 8.0913ZM60.3439 7.43045H63.7307L62.0372 2.43942L60.3439 7.43045Z" fill="#828282"/>
<path d="M72.7311 7.80169C72.6343 8.76673 72.3154 9.50519 71.7743 10.0171C71.2368 10.529 70.5197 10.7849 69.6225 10.7849C68.9961 10.7849 68.4415 10.615 67.9583 10.2752C67.4786 9.9353 67.1075 9.45487 66.8447 8.83385C66.5818 8.20869 66.4483 7.49539 66.4443 6.69398V5.50443C66.4443 4.69044 66.5761 3.96874 66.839 3.33936C67.1018 2.70998 67.4786 2.22535 67.9697 1.88548C68.4647 1.54142 69.0329 1.36938 69.6747 1.36938C70.5793 1.36938 71.2929 1.63582 71.8147 2.1687C72.3404 2.6974 72.6461 3.42955 72.7311 4.36524H72.0118C71.834 2.80857 71.055 2.03024 69.6747 2.03024C68.9093 2.03024 68.2983 2.34073 67.8422 2.96171C67.3897 3.58273 67.1636 4.44077 67.1636 5.5359V6.6562C67.1636 7.71355 67.384 8.55692 67.8247 9.1863C68.2693 9.81568 68.8686 10.1304 69.6225 10.1304C70.3686 10.1304 70.9315 9.93739 71.31 9.55137C71.689 9.16114 71.9229 8.5779 72.0118 7.80169H72.7311Z" fill="#828282"/>
<path d="M79.1282 6.26607H75.1785V10.0046H79.7196V10.6592H74.4653V1.49536H79.6907V2.15621H75.1785V5.61152H79.1282V6.26607Z" fill="#828282"/>
<path d="M50.6181 8.40588C50.6181 7.8982 50.4538 7.49748 50.1252 7.20375C49.7963 6.90584 49.1952 6.62473 48.3213 6.36038C47.4477 6.09185 46.8099 5.80025 46.4077 5.48554C45.8356 5.04077 45.5495 4.45757 45.5495 3.73586C45.5495 3.03514 45.8141 2.46661 46.3438 2.03024C46.8774 1.58967 47.5577 1.36938 48.3852 1.36938C48.9459 1.36938 49.4466 1.48687 49.8874 1.72184C50.332 1.95681 50.6759 2.28409 50.9195 2.70367C51.1631 3.12328 51.2849 3.59109 51.2849 4.1072H50.5659C50.5659 3.482 50.3688 2.9806 49.9741 2.60299C49.5799 2.22115 49.0502 2.03024 48.3852 2.03024C47.7395 2.03024 47.2252 2.18758 46.8427 2.50226C46.4599 2.81275 46.2684 3.21979 46.2684 3.72328C46.2684 4.18904 46.4406 4.56874 46.7845 4.86247C47.1288 5.15616 47.6795 5.41633 48.4374 5.64289C49.1952 5.86528 49.7695 6.09816 50.1599 6.34153C50.5502 6.58068 50.8441 6.8681 51.0413 7.20375C51.2384 7.53944 51.337 7.93594 51.337 8.3933C51.337 9.115 51.0702 9.69402 50.537 10.1304C50.007 10.5668 49.3074 10.7849 48.4374 10.7849C47.842 10.7849 47.2949 10.6696 46.7963 10.4388C46.3013 10.208 45.9245 9.88493 45.6652 9.46954C45.4102 9.05415 45.2827 8.5779 45.2827 8.04084H45.9959C45.9959 8.68702 46.2181 9.19679 46.6627 9.57022C47.1074 9.94366 47.6991 10.1304 48.4374 10.1304C49.0949 10.1304 49.6224 9.97304 50.0206 9.65837C50.4188 9.34366 50.6181 8.92617 50.6181 8.40588Z" fill="#828282"/>
<path d="M16.8012 8.25459C16.8012 7.89795 16.6852 7.62521 16.4532 7.43638C16.2212 7.24337 15.8037 7.04197 15.2005 6.8322C14.5974 6.61817 14.1199 6.40841 13.7681 6.20282C12.8092 5.64056 12.3298 4.88321 12.3298 3.93072C12.3298 3.43562 12.4574 2.99506 12.7126 2.60901C12.9716 2.21881 13.3408 1.91461 13.8202 1.69642C14.3035 1.47824 14.8448 1.36914 15.4441 1.36914C16.0472 1.36914 16.5847 1.48873 17.0563 1.72789C17.528 1.96286 17.8934 2.29643 18.1524 2.72862C18.4153 3.16078 18.5468 3.6517 18.5468 4.20137H16.807C16.807 3.78176 16.6852 3.4566 16.4416 3.22581C16.198 2.99084 15.8558 2.87336 15.4151 2.87336C14.9898 2.87336 14.6592 2.97195 14.4234 3.16918C14.1876 3.36219 14.0696 3.61813 14.0696 3.93702C14.0696 4.23493 14.2069 4.48457 14.4814 4.68598C14.7598 4.88739 15.1677 5.07621 15.7051 5.25242C16.6948 5.57553 17.4159 5.97621 17.8682 6.45455C18.3206 6.93288 18.5468 7.5287 18.5468 8.24201C18.5468 9.03501 18.2703 9.65812 17.7175 10.1113C17.1646 10.5602 16.4203 10.7847 15.4847 10.7847C14.8352 10.7847 14.2436 10.6567 13.7101 10.4008C13.1765 10.1406 12.7686 9.7861 12.4864 9.33714C12.208 8.88815 12.0688 8.36789 12.0688 7.77625H13.8145C13.8145 8.78746 14.3712 9.29305 15.4847 9.29305C15.8984 9.29305 16.2212 9.20286 16.4532 9.02243C16.6852 8.83782 16.8012 8.58188 16.8012 8.25459Z" fill="#828282"/>
<path d="M26.3067 8.01554L27.4434 1.49512H29.1774L27.3042 10.6589H25.5528L24.1783 4.52873L22.8038 10.6589H21.0524L19.1792 1.49512H20.9132L22.0557 8.00292L23.4476 1.49512H24.9206L26.3067 8.01554Z" fill="#828282"/>
<path d="M34.6348 8.77076H31.5843L31.0043 10.6589H29.1543L32.2977 1.49512H33.9098L37.0705 10.6589H35.2205L34.6348 8.77076ZM32.0541 7.24138H34.1652L33.1037 3.81124L32.0541 7.24138Z" fill="#828282"/>
<path d="M39.5989 7.43021V10.6589H37.8589V1.49512H41.1532C41.7871 1.49512 42.3439 1.621 42.8232 1.87275C43.3067 2.1245 43.6778 2.48327 43.9367 2.94898C44.196 3.41056 44.3253 3.93712 44.3253 4.52873C44.3253 5.42667 44.0414 6.13576 43.4728 6.65605C42.9085 7.17213 42.1253 7.43021 41.1242 7.43021H39.5989ZM39.5989 5.90079H41.1532C41.6132 5.90079 41.9632 5.78331 42.2028 5.54834C42.4464 5.31337 42.5682 4.97772 42.5682 4.54134C42.5682 4.09239 42.4464 3.72941 42.2028 3.45248C41.9592 3.17559 41.6228 3.03291 41.1935 3.02451H39.5989V5.90079Z" fill="#828282"/>
<path d="M16.8012 8.25459C16.8012 7.89795 16.6852 7.62521 16.4532 7.43638C16.2212 7.24337 15.8037 7.04197 15.2005 6.8322C14.5974 6.61817 14.1199 6.40841 13.7681 6.20282C12.8092 5.64056 12.3298 4.88321 12.3298 3.93072C12.3298 3.43562 12.4574 2.99506 12.7126 2.60901C12.9716 2.21881 13.3408 1.91461 13.8202 1.69642C14.3035 1.47824 14.8448 1.36914 15.4441 1.36914C16.0472 1.36914 16.5847 1.48873 17.0563 1.72789C17.528 1.96286 17.8934 2.29643 18.1524 2.72862C18.4153 3.16078 18.5468 3.6517 18.5468 4.20137H16.807C16.807 3.78176 16.6852 3.4566 16.4416 3.22581C16.198 2.99084 15.8558 2.87336 15.4151 2.87336C14.9898 2.87336 14.6592 2.97195 14.4234 3.16918C14.1876 3.36219 14.0696 3.61813 14.0696 3.93702C14.0696 4.23493 14.2069 4.48457 14.4814 4.68598C14.7598 4.88739 15.1677 5.07621 15.7051 5.25242C16.6948 5.57553 17.4159 5.97621 17.8682 6.45455C18.3206 6.93288 18.5468 7.5287 18.5468 8.24201C18.5468 9.03501 18.2703 9.65812 17.7175 10.1113C17.1646 10.5602 16.4203 10.7847 15.4847 10.7847C14.8352 10.7847 14.2436 10.6567 13.7101 10.4008C13.1765 10.1406 12.7686 9.7861 12.4864 9.33714C12.208 8.88815 12.0688 8.36789 12.0688 7.77625H13.8145C13.8145 8.78746 14.3712 9.29305 15.4847 9.29305C15.8984 9.29305 16.2212 9.20286 16.4532 9.02243C16.6852 8.83782 16.8012 8.58188 16.8012 8.25459Z" fill="#828282"/>
<path d="M26.3067 8.01554L27.4434 1.49512H29.1774L27.3042 10.6589H25.5528L24.1783 4.52873L22.8038 10.6589H21.0524L19.1792 1.49512H20.9132L22.0557 8.00292L23.4476 1.49512H24.9206L26.3067 8.01554Z" fill="#828282"/>
<path d="M34.6348 8.77076H31.5843L31.0043 10.6589H29.1543L32.2977 1.49512H33.9098L37.0705 10.6589H35.2205L34.6348 8.77076ZM32.0541 7.24138H34.1652L33.1037 3.81124L32.0541 7.24138Z" fill="#828282"/>
<path d="M39.5989 7.43021V10.6589H37.8589V1.49512H41.1532C41.7871 1.49512 42.3439 1.621 42.8232 1.87275C43.3067 2.1245 43.6778 2.48327 43.9367 2.94898C44.196 3.41056 44.3253 3.93712 44.3253 4.52873C44.3253 5.42667 44.0414 6.13576 43.4728 6.65605C42.9085 7.17213 42.1253 7.43021 41.1242 7.43021H39.5989ZM39.5989 5.90079H41.1532C41.6132 5.90079 41.9632 5.78331 42.2028 5.54834C42.4464 5.31337 42.5682 4.97772 42.5682 4.54134C42.5682 4.09239 42.4464 3.72941 42.2028 3.45248C41.9592 3.17559 41.6228 3.03291 41.1935 3.02451H39.5989V5.90079Z" fill="#828282"/>
<path fill-rule="evenodd" clip-rule="evenodd" d="M8.93101 5.96308C8.93101 8.62239 6.93198 10.7782 4.46601 10.7782C2.00005 10.7782 0.000976562 8.62239 0.000976562 5.96308C0.000976562 3.30376 2.00005 1.14795 4.46601 1.14795C6.93198 1.14795 8.93101 3.30376 8.93101 5.96308ZM7.14494 4.00595C7.14494 4.34912 6.88698 4.62728 6.5688 4.62728C6.25062 4.62728 5.99265 4.34912 5.99265 4.00595C5.99265 3.66283 6.25062 3.38466 6.5688 3.38466C6.88698 3.38466 7.14494 3.66283 7.14494 4.00595ZM4.43733 4.00595C5.01008 4.00595 5.47437 3.67216 5.47437 3.26041C5.47437 2.84861 5.01008 2.51482 4.43733 2.51482C3.86462 2.51482 3.4003 2.84861 3.4003 3.26041C3.4003 3.67216 3.86462 4.00595 4.43733 4.00595Z" fill="#828282"/>
</svg>
