<svg width="80" height="13" viewBox="0 0 80 13" fill="none" xmlns="http://www.w3.org/2000/svg">
<path fill-rule="evenodd" clip-rule="evenodd" d="M45.3018 3.04116C45.3102 3.67531 45.3321 4.28467 45.3505 4.39533C45.3685 4.50598 45.3911 4.64267 45.4004 4.69906C45.4163 4.79758 45.4073 4.79149 45.1673 4.54346C44.9899 4.3602 44.8599 4.2566 44.7198 4.18634C44.6109 4.13189 44.435 4.06426 44.3288 4.03609C44.2088 4.00424 44.0157 3.98484 43.8196 3.98484C43.6224 3.98484 43.4305 4.00424 43.3084 4.03662C43.2007 4.06513 43.0416 4.12196 42.9547 4.16294C42.8678 4.20389 42.7144 4.30247 42.6139 4.38195C42.5135 4.46147 42.3712 4.60494 42.2978 4.7008C42.2242 4.79666 42.1234 4.94885 42.0735 5.03901C42.0239 5.12918 41.9433 5.3247 41.8948 5.47355C41.8464 5.6224 41.7833 5.87596 41.7547 6.03701C41.7171 6.24866 41.703 6.49291 41.7033 6.91795C41.7033 7.34385 41.718 7.58714 41.7559 7.80009C41.7851 7.96181 41.8425 8.1986 41.884 8.32628C41.9255 8.45396 42.0088 8.65592 42.0693 8.77509C42.1448 8.92422 42.2587 9.074 42.4353 9.25562C42.6175 9.4432 42.749 9.54812 42.8894 9.61854C42.9983 9.67302 43.1742 9.74093 43.2804 9.76943C43.4004 9.80166 43.5935 9.82156 43.7896 9.82202C43.9923 9.82252 44.1742 9.80404 44.2975 9.77052C44.4031 9.74176 44.5721 9.67391 44.6735 9.61972C44.7905 9.55698 44.9481 9.42676 45.1072 9.26107C45.2449 9.11801 45.3637 9.00739 45.3712 9.01522C45.379 9.02308 45.4443 9.18118 45.5168 9.36659L45.6485 9.70366L46.2377 9.71205L46.8272 9.72044V5.80431V1.88818H46.0566H45.2861L45.3018 3.04116ZM13.6912 3.01021L13.6993 3.66795L14.6693 3.67612L15.6392 3.68429V6.70171V9.71914H16.4061H17.173V6.70171V3.68429L18.143 3.67612L19.1129 3.66795L19.121 3.01021L19.1291 2.35247H16.4061H13.6831L13.6912 3.01021ZM22.9024 3.99332C22.8031 4.00728 22.6455 4.0482 22.5521 4.08422C22.4587 4.12025 22.2965 4.20683 22.1916 4.27656C22.0868 4.34633 21.9264 4.48348 21.8351 4.58135C21.7439 4.67922 21.6354 4.81631 21.5941 4.88601C21.5527 4.95569 21.5025 5.01307 21.4825 5.01354C21.4624 5.014 21.4328 4.96216 21.4168 4.8983C21.4007 4.83448 21.3516 4.62555 21.3077 4.43402L21.2279 4.0858H20.6441H20.0602V6.90247V9.71914H20.8272H21.5941V8.1912C21.5941 7.29844 21.6067 6.594 21.6243 6.49656C21.6409 6.40488 21.6956 6.24352 21.7457 6.13804C21.8011 6.02163 21.8926 5.89562 21.9787 5.81753C22.0566 5.74677 22.1845 5.65534 22.263 5.61436C22.3414 5.57334 22.4971 5.51785 22.6088 5.49104C22.7528 5.4565 22.9197 5.44532 23.1805 5.45272C23.5322 5.46272 23.549 5.46037 23.5494 5.40128C23.5496 5.36723 23.5696 5.10259 23.5939 4.81318C23.6181 4.52378 23.6382 4.22874 23.6386 4.15752C23.639 4.06027 23.6261 4.0243 23.5866 4.01297C23.5576 4.00465 23.4324 3.99112 23.3084 3.98292C23.1843 3.97468 23.0016 3.97939 22.9024 3.99332ZM26.5771 3.99394C26.4479 4.00901 26.2601 4.04296 26.1597 4.06943C26.0594 4.09586 25.8974 4.15071 25.7999 4.19129C25.7023 4.23184 25.545 4.31176 25.4504 4.36886C25.3557 4.42597 25.17 4.58429 25.0377 4.72067C24.8857 4.87729 24.7506 5.05399 24.671 5.20043C24.6016 5.32792 24.5106 5.53806 24.4687 5.66744C24.4269 5.79679 24.3707 6.04054 24.3438 6.20911C24.3064 6.44376 24.2987 6.63888 24.3109 7.04176C24.3226 7.42721 24.3429 7.63004 24.3869 7.80009C24.42 7.92777 24.4668 8.08894 24.491 8.15824C24.5152 8.22754 24.5719 8.35986 24.617 8.45229C24.6621 8.54471 24.7579 8.70588 24.83 8.81044C24.902 8.91499 25.0413 9.07517 25.1394 9.16639C25.2376 9.25761 25.3932 9.37897 25.4852 9.43608C25.5772 9.49318 25.7316 9.57276 25.8282 9.61291C25.9248 9.65308 26.0842 9.70775 26.1824 9.73443C26.2806 9.76111 26.4889 9.79565 26.6452 9.81119C26.813 9.82787 27.0533 9.82824 27.2317 9.81212C27.3979 9.79707 27.5948 9.77061 27.6693 9.75328C27.7437 9.73594 27.8825 9.69403 27.9775 9.66017C28.0729 9.62631 28.2458 9.54716 28.3619 9.48433C28.478 9.4215 28.6684 9.27927 28.7851 9.16825C28.9014 9.05725 29.0512 8.88386 29.118 8.78292C29.1845 8.68198 29.2834 8.49933 29.3375 8.37701C29.3917 8.25466 29.4651 8.0365 29.5005 7.8922C29.536 7.7479 29.5796 7.45689 29.5974 7.24548C29.6202 6.97041 29.6199 6.76256 29.5965 6.51461C29.5784 6.32403 29.5366 6.05824 29.5033 5.92397C29.4702 5.7897 29.3881 5.56146 29.321 5.41676C29.2536 5.27205 29.1475 5.08361 29.0846 4.998C29.0221 4.91242 28.8978 4.76864 28.8085 4.67854C28.7195 4.58847 28.5517 4.45367 28.4359 4.37905C28.3198 4.30439 28.1363 4.20899 28.0278 4.16702C27.9196 4.12505 27.7303 4.06955 27.6073 4.04371C27.4842 4.01786 27.255 3.98994 27.0978 3.98165C26.9407 3.97335 26.7064 3.97889 26.5771 3.99394ZM32.9324 3.98224C32.8744 3.9879 32.7255 4.00811 32.6016 4.02715C32.4774 4.04618 32.2879 4.08949 32.1805 4.12338C32.0729 4.15727 31.8903 4.2336 31.7745 4.293C31.6587 4.3524 31.4894 4.46317 31.3986 4.53913C31.3075 4.61512 31.1685 4.7566 31.0897 4.85355C31.0106 4.95052 30.8855 5.15521 30.8118 5.30842C30.7381 5.46164 30.6512 5.69347 30.619 5.82362C30.5869 5.95375 30.546 6.16716 30.5285 6.29788C30.5108 6.42859 30.4963 6.71908 30.4966 6.94339C30.4966 7.16773 30.5168 7.49056 30.5414 7.6608C30.5661 7.83104 30.6148 8.06724 30.6494 8.18566C30.684 8.30409 30.7571 8.49212 30.8115 8.60352C30.866 8.71492 30.9661 8.88265 31.0344 8.97628C31.1024 9.06991 31.235 9.2122 31.3291 9.29249C31.4233 9.37275 31.5998 9.48842 31.7216 9.54949C31.8431 9.61056 32.0446 9.68735 32.1694 9.72016C32.2942 9.753 32.5472 9.79547 32.7318 9.81456C32.9165 9.83363 33.176 9.84047 33.3084 9.8297C33.4407 9.81893 33.65 9.79519 33.7736 9.77692C33.8972 9.75866 34.0936 9.70889 34.2097 9.66627C34.3261 9.62365 34.4921 9.54744 34.579 9.49693L34.7369 9.40506V8.74188C34.7369 8.3771 34.7324 8.07866 34.727 8.07866C34.7216 8.07866 34.6136 8.13942 34.487 8.21367C34.3604 8.28793 34.1496 8.38515 34.0184 8.42969C33.8876 8.47426 33.6539 8.52561 33.4993 8.54381C33.3448 8.56201 33.1505 8.56833 33.0678 8.55783C32.9851 8.54731 32.8536 8.51781 32.7754 8.49221C32.6939 8.46553 32.5682 8.38543 32.4804 8.30412C32.3923 8.22247 32.2897 8.08572 32.2386 7.98128C32.1896 7.88162 32.127 7.70609 32.0996 7.59116C32.0642 7.44321 32.0497 7.24672 32.05 6.91795C32.05 6.60715 32.066 6.38043 32.0981 6.23213C32.1246 6.11027 32.1817 5.93286 32.2254 5.83786C32.2693 5.74284 32.3649 5.60321 32.4386 5.52756C32.5195 5.44421 32.6356 5.36556 32.733 5.32801C32.8217 5.29391 32.9745 5.25667 33.0729 5.24522C33.1712 5.23376 33.3523 5.2403 33.4756 5.25973C33.5986 5.27914 33.8482 5.34854 34.0302 5.41388C34.2121 5.47925 34.3827 5.54211 34.4088 5.55356C34.4479 5.57059 34.496 5.46826 34.672 4.99203C34.7905 4.6717 34.8873 4.39557 34.8873 4.3784C34.8873 4.36122 34.7757 4.30238 34.6392 4.24768C34.5027 4.19296 34.2828 4.11985 34.1505 4.08521C34.0181 4.05058 33.7541 4.00889 33.564 3.99261C33.3736 3.97629 33.1775 3.965 33.1279 3.96744C33.0783 3.96989 32.9902 3.97654 32.9324 3.98224ZM37.6693 3.99781C37.5369 4.01306 37.2891 4.05996 37.1183 4.10202C36.9478 4.14406 36.6702 4.23431 36.5018 4.30253C36.3333 4.37075 36.1784 4.43789 36.1574 4.45175C36.1291 4.4706 36.1808 4.60893 36.3634 5.001C36.4975 5.28926 36.61 5.52787 36.613 5.53125C36.616 5.53462 36.7484 5.48371 36.9066 5.41809C37.0651 5.35244 37.3339 5.26261 37.5042 5.21847C37.7318 5.15939 37.8906 5.13818 38.106 5.13818C38.2909 5.13818 38.4461 5.15552 38.5282 5.18523C38.5992 5.21108 38.7011 5.26642 38.7544 5.30817C38.8076 5.34996 38.881 5.44789 38.9177 5.52583C38.9634 5.62308 38.9893 5.74884 39.0001 5.92685L39.0157 6.18617L38.9141 6.20223C38.8578 6.21106 38.5616 6.22573 38.2557 6.23483C37.9496 6.24393 37.5586 6.27346 37.3863 6.30041C37.2142 6.32734 36.9637 6.38495 36.8299 6.42837C36.696 6.47183 36.5066 6.54884 36.4088 6.59954C36.3111 6.65024 36.1574 6.76334 36.0675 6.85084C35.9775 6.93834 35.8717 7.06695 35.832 7.13666C35.7923 7.20636 35.7303 7.34583 35.6945 7.44661C35.6389 7.60212 35.629 7.69547 35.629 8.06318C35.629 8.45408 35.6368 8.52085 35.7111 8.74503C35.7622 8.89958 35.8479 9.07019 35.9378 9.19635C36.029 9.32397 36.1508 9.44598 36.2663 9.5255C36.3676 9.59499 36.5351 9.68088 36.6386 9.71638C36.7423 9.75185 36.9381 9.79519 37.0738 9.81267C37.2395 9.83406 37.4217 9.83447 37.6302 9.81385C37.8004 9.79701 38.0142 9.76027 38.1054 9.73223C38.1962 9.70419 38.3499 9.64008 38.4467 9.58979C38.5526 9.53488 38.7297 9.39247 38.89 9.23343L39.1568 8.96854L39.2121 9.10396C39.2422 9.17843 39.3066 9.34734 39.3547 9.47926L39.4425 9.71914H39.9784H40.5144L40.5051 7.60664L40.4954 5.49414L40.4136 5.2441C40.3685 5.10655 40.2795 4.91109 40.2157 4.80969C40.152 4.70829 40.0335 4.56665 39.9523 4.49496C39.8711 4.42325 39.7159 4.31652 39.6076 4.25777C39.4993 4.19906 39.3099 4.12291 39.1866 4.08856C39.0633 4.05423 38.8479 4.0117 38.7078 3.99406C38.5676 3.97642 38.3306 3.96382 38.1814 3.96605C38.032 3.96828 37.8016 3.98258 37.6693 3.99781ZM50.3008 3.99595C50.1685 4.0122 49.9586 4.0537 49.8347 4.08819C49.7108 4.12267 49.5008 4.20488 49.3685 4.27087C49.2362 4.33686 49.0359 4.4693 48.9234 4.56519C48.8109 4.66108 48.6569 4.82575 48.5808 4.93111C48.5048 5.03651 48.3899 5.23714 48.3255 5.37701C48.2611 5.51689 48.182 5.73838 48.1496 5.86925C48.1171 6.00008 48.0753 6.23387 48.0566 6.38875C48.0377 6.54772 48.0302 6.84555 48.0395 7.07271C48.0488 7.29402 48.0768 7.57389 48.102 7.69463C48.127 7.81538 48.1887 8.0296 48.2386 8.17068C48.2885 8.31176 48.3932 8.5323 48.4711 8.66075C48.5487 8.7892 48.6945 8.97947 48.795 9.08356C48.8954 9.18765 49.0578 9.32688 49.1559 9.39299C49.2539 9.45907 49.4251 9.55243 49.536 9.60046C49.6473 9.64847 49.8178 9.70886 49.9156 9.73461C50.0133 9.7604 50.2281 9.7946 50.3926 9.81063C50.5815 9.82905 50.804 9.82889 50.9962 9.81017C51.1637 9.79389 51.4043 9.75325 51.5309 9.71991C51.6578 9.68654 51.8726 9.60251 52.0088 9.53314C52.1448 9.46375 52.339 9.33446 52.4404 9.24581C52.5417 9.15713 52.6741 9.02348 52.7345 8.94876C52.795 8.87404 52.8963 8.72083 52.9601 8.60829C53.0236 8.49574 53.1096 8.30616 53.1508 8.18699C53.1923 8.06783 53.2512 7.85193 53.2816 7.70723C53.3231 7.50901 53.3366 7.31058 53.3369 6.90247C53.3372 6.49579 53.3237 6.29525 53.2828 6.09771C53.253 5.95301 53.1902 5.73315 53.1433 5.60916C53.0966 5.48516 53.0031 5.28781 52.9354 5.17062C52.8678 5.05344 52.721 4.86153 52.6091 4.74416C52.4975 4.62679 52.3183 4.47221 52.2106 4.40065C52.103 4.32909 51.9078 4.22781 51.7766 4.1756C51.6452 4.12338 51.4422 4.06191 51.3255 4.039C51.2085 4.01613 50.9842 3.99044 50.8272 3.9819C50.6702 3.97338 50.4332 3.97973 50.3008 3.99595ZM57.4133 3.99118C57.3222 4.00381 57.1938 4.03195 57.1276 4.05374C57.0617 4.0755 56.9183 4.14102 56.8091 4.19934C56.6999 4.25762 56.5348 4.37468 56.4425 4.45946C56.3502 4.54424 56.21 4.70398 56.1312 4.81445C56.0524 4.92492 55.9736 5.01051 55.9565 5.00459C55.939 4.99868 55.8783 4.78954 55.8214 4.53984L55.7183 4.0858H55.1372H54.5565V6.90247V9.71914H55.3234H56.0903V8.14706C56.0903 6.84453 56.0981 6.54423 56.1357 6.39547C56.1607 6.2967 56.2154 6.15571 56.2572 6.08211C56.2993 6.0085 56.3926 5.89225 56.4648 5.82375C56.5369 5.75525 56.6651 5.66332 56.749 5.61949C56.8332 5.57566 56.9932 5.51794 57.1051 5.49123C57.2464 5.4574 57.4181 5.44554 57.6693 5.4522L58.0302 5.46179L58.0807 4.84342C58.1084 4.50335 58.1318 4.18076 58.1333 4.12657C58.1348 4.05785 58.1195 4.0235 58.0828 4.01297C58.0539 4.00465 57.9285 3.99118 57.8046 3.98304C57.6807 3.9749 57.5045 3.97855 57.4133 3.99118ZM63.7745 3.98344C63.7084 3.98954 63.5087 4.02244 63.3309 4.05658C63.1529 4.09076 62.8867 4.15925 62.7393 4.20881C62.592 4.25836 62.389 4.34172 62.2885 4.394L62.1054 4.48902L62.3595 5.01131L62.6136 5.5336L62.8699 5.42886C63.0109 5.37126 63.2452 5.28691 63.3902 5.24144C63.6196 5.1696 63.7093 5.15843 64.0753 5.15623C64.4518 5.15394 64.509 5.16072 64.6166 5.2203C64.6828 5.25695 64.7658 5.31963 64.801 5.35959C64.8365 5.39955 64.8897 5.48098 64.9192 5.54056C64.9547 5.61117 64.9781 5.74265 64.9866 5.91821C64.9995 6.18147 64.9983 6.18787 64.9285 6.20261C64.8894 6.2109 64.5935 6.22514 64.2708 6.2343C63.9481 6.24343 63.5427 6.27321 63.3691 6.30048C63.1959 6.32775 62.9321 6.39042 62.7826 6.43979C62.6335 6.48916 62.4251 6.58211 62.3198 6.64637C62.2142 6.71063 62.063 6.83636 61.9836 6.92575C61.9042 7.01517 61.8058 7.16142 61.7655 7.25075C61.7249 7.34011 61.6741 7.48979 61.6524 7.58342C61.6305 7.67705 61.6133 7.89991 61.6145 8.07866C61.6154 8.26679 61.6371 8.49355 61.666 8.61714C61.6933 8.73454 61.7565 8.90979 61.8067 9.00655C61.8569 9.10334 61.9724 9.26005 62.0639 9.35483C62.1583 9.45279 62.3111 9.56821 62.4178 9.62235C62.5213 9.67475 62.693 9.74099 62.7992 9.76959C62.933 9.80562 63.1084 9.82103 63.3685 9.81979C63.6106 9.81865 63.8236 9.79915 63.967 9.76501C64.0897 9.73585 64.2377 9.69137 64.2963 9.66615C64.355 9.64095 64.4756 9.57255 64.5643 9.51417C64.653 9.45579 64.8193 9.30849 64.9339 9.18685C65.0488 9.06521 65.1475 8.97154 65.1535 8.97872C65.1595 8.98587 65.2245 9.15193 65.2975 9.34771L65.4311 9.70366L65.9649 9.71211L66.4987 9.72056L66.49 7.59187L66.4813 5.46318L66.3965 5.21556C66.3499 5.07937 66.2708 4.90195 66.2208 4.82129C66.1706 4.74063 66.0545 4.60398 65.9625 4.51759C65.8708 4.4312 65.7035 4.31275 65.5908 4.25437C65.4783 4.19599 65.2873 4.12075 65.1667 4.08716C65.0461 4.05361 64.8329 4.0117 64.6927 3.99406C64.5526 3.97642 64.3156 3.96435 64.1664 3.96719C64.0169 3.97007 63.8407 3.97738 63.7745 3.98344ZM70.7839 3.994C70.669 4.00827 70.493 4.05061 70.3929 4.08809C70.2927 4.12558 70.143 4.20067 70.0602 4.25499C69.9775 4.30931 69.8443 4.42108 69.7646 4.50335C69.6846 4.58565 69.5983 4.68554 69.573 4.72534C69.5478 4.76515 69.5108 4.79771 69.4909 4.79771C69.4711 4.79771 69.4106 4.63951 69.3547 4.44176L69.2545 4.0858H68.6272H68.0001V8.14056V12.1953H68.7697H69.539L69.5249 10.7793C69.5171 10.0004 69.4975 9.30397 69.4813 9.23164C69.4651 9.1593 69.4581 9.10009 69.466 9.10009C69.4738 9.10009 69.5784 9.19459 69.6987 9.3101C69.8187 9.42562 70.0034 9.56471 70.109 9.61922C70.2145 9.67373 70.3887 9.74133 70.4963 9.76943C70.6193 9.80156 70.8145 9.82063 71.0227 9.82072C71.2413 9.82085 71.4196 9.80274 71.549 9.76739C71.6566 9.73796 71.8338 9.66565 71.943 9.60675C72.0521 9.54781 72.2187 9.42896 72.3129 9.3426C72.407 9.25627 72.5357 9.10718 72.5989 9.01132C72.662 8.91543 72.7541 8.75342 72.8037 8.65128C72.8533 8.54914 72.9231 8.37463 72.9586 8.26348C72.9941 8.15236 73.0437 7.95736 73.0687 7.83014C73.0936 7.70296 73.1222 7.38301 73.1324 7.11914C73.1435 6.82561 73.1369 6.50941 73.1153 6.30459C73.0957 6.12046 73.0482 5.84117 73.0094 5.684C72.9706 5.52679 72.8903 5.29248 72.8308 5.16332C72.7709 5.03412 72.6491 4.832 72.5595 4.71414C72.4699 4.59627 72.3195 4.43999 72.2254 4.36685C72.1312 4.29371 71.9709 4.19516 71.8693 4.14786C71.7676 4.1006 71.61 4.04714 71.5189 4.02913C71.4278 4.01111 71.2723 3.98997 71.173 3.98221C71.0738 3.97441 70.8987 3.97973 70.7839 3.994ZM77.1177 3.99477C77.0127 4.00907 76.8386 4.05098 76.7309 4.08788C76.6233 4.12477 76.4521 4.21336 76.3508 4.28473C76.2494 4.35611 76.0987 4.49957 76.0157 4.60354C75.9327 4.70751 75.8491 4.79372 75.8302 4.79514C75.8109 4.79656 75.7664 4.69674 75.7306 4.5733C75.6951 4.44986 75.6488 4.29318 75.6275 4.22509L75.589 4.10128L74.9676 4.09292L74.346 4.08453V8.13995V12.1953H75.1156H75.8855L75.8708 10.8102C75.8617 9.96679 75.8431 9.36557 75.823 9.27293C75.8046 9.18923 75.7962 9.11408 75.804 9.10591C75.8118 9.0977 75.9186 9.1888 76.0407 9.30831C76.1745 9.43923 76.339 9.56382 76.4548 9.62182C76.5604 9.67478 76.7345 9.74105 76.8422 9.76906C76.9598 9.79971 77.1637 9.82057 77.3535 9.82137C77.5553 9.82224 77.7399 9.80398 77.8648 9.7708C77.9724 9.74226 78.1616 9.66673 78.2852 9.60294C78.4419 9.52225 78.5745 9.4206 78.7213 9.26872C78.8455 9.14042 78.9869 8.95142 79.0648 8.81025C79.1375 8.67815 79.2359 8.45114 79.2834 8.30579C79.3306 8.16047 79.3923 7.91409 79.4199 7.75833C79.4557 7.55699 79.4702 7.30501 79.4699 6.88699C79.4699 6.46109 79.4551 6.2178 79.4169 6.00485C79.3881 5.84312 79.3306 5.60634 79.2891 5.47866C79.2476 5.35098 79.1646 5.14902 79.1045 5.02985C79.029 4.87939 78.9171 4.73246 78.7384 4.54897C78.5589 4.3645 78.4223 4.25486 78.2858 4.18569C78.1781 4.13121 78.0091 4.06667 77.9099 4.04231C77.8106 4.01796 77.6347 3.99143 77.5189 3.98338C77.4031 3.97536 77.2226 3.98047 77.1177 3.99477ZM26.6808 5.26246C26.6085 5.27812 26.4907 5.32021 26.4189 5.35596C26.3472 5.39171 26.2472 5.46928 26.1968 5.52834C26.1465 5.5874 26.0713 5.70471 26.0298 5.78905C25.9882 5.8734 25.9314 6.03655 25.9035 6.1516C25.8658 6.30688 25.8527 6.49637 25.8527 6.88699C25.8527 7.28386 25.8656 7.46642 25.9051 7.62985C25.9339 7.74902 25.9894 7.91823 26.0284 8.00586C26.0673 8.09349 26.1519 8.21943 26.2163 8.28573C26.2808 8.35203 26.4005 8.44009 26.4826 8.48141C26.6114 8.54635 26.6747 8.55663 26.9475 8.55703C27.2048 8.5574 27.2886 8.54552 27.4001 8.49277C27.4754 8.45721 27.5861 8.3837 27.6461 8.32947C27.7061 8.27524 27.7906 8.16879 27.8337 8.09296C27.8769 8.01713 27.9401 7.84707 27.9739 7.71509C28.0169 7.54913 28.0407 7.33661 28.0515 7.02628C28.0633 6.68921 28.0548 6.50489 28.0175 6.28599C27.9893 6.11817 27.9301 5.91221 27.8784 5.80063C27.8232 5.68158 27.7358 5.55901 27.652 5.48312C27.577 5.41511 27.452 5.33715 27.3744 5.30985C27.2967 5.28251 27.1384 5.25426 27.0227 5.24704C26.9069 5.23983 26.753 5.24676 26.6808 5.26246ZM50.4103 5.26438C50.3381 5.27895 50.2094 5.33105 50.1246 5.38014C50.0272 5.43626 49.93 5.52778 49.862 5.62698C49.8025 5.71368 49.7255 5.87429 49.6906 5.9839C49.6554 6.09347 49.6118 6.33456 49.5932 6.51959C49.5745 6.70465 49.5682 6.97443 49.579 7.11914C49.5899 7.26384 49.6193 7.4867 49.6443 7.61437C49.6693 7.74205 49.7246 7.91953 49.767 8.00874C49.8094 8.09797 49.8927 8.22175 49.9523 8.28384C50.0115 8.3459 50.1321 8.43096 50.2196 8.47287C50.3273 8.52428 50.4551 8.55437 50.6121 8.56545C50.7823 8.57746 50.8933 8.56758 51.0242 8.52871C51.1225 8.49946 51.2476 8.44093 51.3018 8.39865C51.3559 8.35637 51.4287 8.29143 51.4632 8.25438C51.4981 8.21733 51.5646 8.10342 51.6112 8.00128C51.6578 7.89914 51.7186 7.69925 51.7463 7.55705C51.7854 7.35419 51.7932 7.18432 51.7824 6.76776C51.7706 6.3297 51.7565 6.1996 51.7008 6.02299C51.6639 5.90531 51.6016 5.75655 51.5622 5.69242C51.5228 5.62828 51.453 5.53908 51.407 5.4942C51.361 5.44929 51.2756 5.38692 51.2172 5.35556C51.1589 5.32424 51.0311 5.28338 50.9333 5.26481C50.8359 5.24624 50.7078 5.23256 50.6488 5.23445C50.5896 5.2363 50.4825 5.24977 50.4103 5.26438ZM70.2407 5.27255C70.1745 5.29508 70.0798 5.33547 70.0302 5.36237C69.9805 5.38924 69.9036 5.45077 69.859 5.49912C69.8142 5.54744 69.7439 5.6636 69.7024 5.75723C69.6608 5.85086 69.6058 6.05116 69.5802 6.20236C69.5547 6.35356 69.5342 6.6391 69.5348 6.83688C69.5354 7.03467 69.549 7.30098 69.5649 7.42866C69.5811 7.55634 69.6139 7.73045 69.6383 7.81557C69.6623 7.90068 69.7267 8.04638 69.7808 8.13933C69.8353 8.23231 69.9339 8.34624 70.0001 8.39255C70.0663 8.43885 70.1814 8.49472 70.2557 8.5167C70.33 8.53867 70.4927 8.55573 70.6166 8.55455C70.7854 8.55297 70.878 8.5349 70.9842 8.48281C71.0623 8.44452 71.1754 8.35705 71.2356 8.28849C71.2957 8.2199 71.3766 8.09055 71.4148 8.00106C71.4533 7.91158 71.5084 7.72877 71.5372 7.59481C71.5748 7.41947 71.5893 7.21695 71.5884 6.87152C71.5875 6.55135 71.5712 6.31629 71.539 6.16494C71.5126 6.04017 71.459 5.86606 71.4196 5.77803C71.3802 5.68997 71.3102 5.57198 71.2642 5.51583C71.2181 5.45966 71.1111 5.37711 71.0263 5.33238C70.903 5.26722 70.8214 5.24909 70.6166 5.24132C70.4599 5.23541 70.3144 5.24751 70.2407 5.27255ZM76.5628 5.27329C76.4837 5.2962 76.3688 5.35624 76.3072 5.40676C76.2458 5.45727 76.1535 5.5622 76.1023 5.63995C76.0509 5.71771 75.9845 5.87689 75.9547 5.99368C75.9159 6.14522 75.8963 6.36127 75.8867 6.74786C75.8765 7.16498 75.8846 7.35376 75.9228 7.5681C75.9499 7.72122 76.013 7.933 76.0627 8.03867C76.115 8.15028 76.2046 8.27635 76.2762 8.3394C76.3442 8.39914 76.4687 8.47179 76.5532 8.50088C76.644 8.53208 76.8007 8.55387 76.9357 8.55406C77.1246 8.55431 77.1944 8.53951 77.333 8.46968C77.4254 8.42313 77.5378 8.34046 77.5824 8.28601C77.6272 8.23156 77.7014 8.10342 77.7475 8.00128C77.7935 7.89914 77.8521 7.70819 77.878 7.57698C77.9078 7.42622 77.9249 7.17377 77.9249 6.89102C77.9249 6.62591 77.9069 6.34675 77.8807 6.20586C77.8563 6.07505 77.8016 5.88986 77.7592 5.79431C77.7168 5.69873 77.6503 5.57783 77.6115 5.52561C77.5727 5.47337 77.4684 5.38989 77.3796 5.34009C77.2431 5.26354 77.1784 5.24813 76.9625 5.24061C76.8127 5.23537 76.6473 5.2489 76.5628 5.27329ZM43.9535 5.30304C43.9033 5.32303 43.8151 5.37005 43.758 5.40756C43.7008 5.44505 43.6187 5.52209 43.5754 5.57876C43.5321 5.63543 43.4672 5.74166 43.4308 5.81486C43.3944 5.88807 43.3369 6.05478 43.3027 6.18533C43.2515 6.38015 43.2404 6.51427 43.2404 6.93342C43.2404 7.35728 43.2512 7.4858 43.3045 7.68909C43.3396 7.8238 43.4022 7.9932 43.4434 8.06554C43.4846 8.13787 43.5511 8.2372 43.5914 8.28629C43.6314 8.33538 43.7363 8.41669 43.8248 8.46699C43.9766 8.55362 44.0031 8.55836 44.3309 8.55749C44.6302 8.55669 44.6957 8.54694 44.8181 8.4851C44.896 8.44582 45.0127 8.35454 45.0774 8.28233C45.142 8.21011 45.2254 8.06857 45.2627 7.96782C45.2996 7.86704 45.3502 7.65229 45.3748 7.49056C45.4067 7.28105 45.4145 7.08085 45.4013 6.79414C45.3914 6.57283 45.3631 6.29426 45.3387 6.17509C45.3144 6.05592 45.2503 5.86851 45.1962 5.75859C45.1315 5.62742 45.0536 5.52404 44.9688 5.45761C44.8975 5.40196 44.77 5.3352 44.6849 5.30923C44.598 5.28258 44.4248 5.26301 44.2879 5.26435C44.1544 5.26565 44.004 5.28304 43.9535 5.30304ZM38.361 7.15235C38.109 7.16773 37.8999 7.19884 37.7733 7.23979C37.6527 7.27873 37.5258 7.34797 37.4458 7.41845C37.3736 7.48202 37.2834 7.6036 37.2443 7.69002C37.1944 7.80086 37.1736 7.90236 37.1733 8.03796C37.173 8.14326 37.1875 8.26861 37.2052 8.31653C37.2227 8.36444 37.2669 8.43632 37.3029 8.47624C37.339 8.51617 37.4079 8.56991 37.456 8.59566C37.5042 8.62141 37.619 8.6532 37.7117 8.66632C37.804 8.67941 37.9664 8.67768 38.072 8.66248C38.1778 8.64726 38.3255 8.60692 38.4004 8.57281C38.4753 8.53871 38.5971 8.45984 38.6711 8.39753C38.7622 8.32071 38.835 8.21887 38.8978 8.08089C38.9817 7.8961 38.9914 7.84274 39.0025 7.4983L39.0148 7.11914L38.8834 7.12378C38.8112 7.12635 38.576 7.13919 38.361 7.15235ZM64.376 7.15176C64.1775 7.16454 63.9499 7.19057 63.8702 7.20961C63.7902 7.22868 63.6596 7.27829 63.5799 7.31992C63.4999 7.36152 63.3923 7.44828 63.3405 7.51273C63.2888 7.57714 63.2266 7.69853 63.2022 7.78251C63.1778 7.86645 63.158 7.98484 63.1583 8.0456C63.1583 8.10633 63.1733 8.2116 63.1917 8.27948C63.21 8.34739 63.269 8.44557 63.3225 8.49769C63.3763 8.54979 63.4792 8.61058 63.5511 8.6328C63.623 8.65499 63.7851 8.67245 63.9108 8.67162C64.066 8.67056 64.1935 8.6493 64.3072 8.6055C64.3995 8.57 64.5306 8.49955 64.5983 8.44897C64.6663 8.3984 64.7625 8.29907 64.8124 8.22825C64.862 8.15743 64.9231 8.0296 64.9478 7.94417C64.9754 7.84837 64.9926 7.66056 64.9926 7.45398V7.11914L64.8648 7.12384C64.7944 7.12641 64.5745 7.13898 64.376 7.15176Z" fill="#828282"/>
<path fill-rule="evenodd" clip-rule="evenodd" d="M9.00775 1.06349C8.95812 1.08714 8.88754 1.14 8.85087 1.18095C8.81421 1.2219 8.76344 1.31597 8.73809 1.38997C8.70513 1.48611 8.69196 1.64716 8.69196 1.95399V2.38342L8.02278 2.38531L7.35361 2.38717L4.92134 5.07816L2.48904 7.76913H1.486H0.482965L0.438814 7.85703C0.414513 7.90538 0.379115 8.03677 0.360107 8.14901C0.340288 8.26613 0.330122 8.55507 0.336258 8.82717C0.345431 9.23389 0.356288 9.32216 0.412498 9.44829L0.478062 9.59532H1.81641H3.15475L3.22805 9.52567C3.26835 9.48736 4.30784 8.34252 5.538 6.98157C6.76817 5.62063 7.83343 4.44017 7.90528 4.35836L8.03587 4.2096H8.34889H8.66188L8.66576 4.49591C8.6679 4.6534 8.67223 4.81704 8.67542 4.8596C8.67857 4.90216 8.69093 5.00133 8.70284 5.07998C8.71478 5.15863 8.76305 5.28548 8.81009 5.36184C8.86657 5.45349 8.94095 5.52325 9.02886 5.56705C9.10212 5.60354 9.20179 5.63329 9.25033 5.63313C9.29887 5.63295 9.40733 5.59225 9.49133 5.54266C9.57797 5.49153 9.9294 5.1664 10.3034 4.79141C10.666 4.42782 11.0633 4.02383 11.1863 3.89361C11.3093 3.76342 11.4339 3.61064 11.4632 3.55409C11.4925 3.49754 11.517 3.40252 11.5176 3.34294C11.5183 3.28335 11.4928 3.19068 11.461 3.13701C11.4292 3.08332 11.3111 2.93899 11.1986 2.81623C11.0861 2.69347 10.7033 2.29338 10.348 1.92712C9.99268 1.56086 9.63024 1.21218 9.54257 1.15226C9.43048 1.07568 9.3408 1.03993 9.24056 1.03192C9.15875 1.02539 9.05951 1.03882 9.00775 1.06349ZM0.456949 2.45467C0.42113 2.49392 0.378243 2.60012 0.361491 2.69106C0.344739 2.78184 0.331055 3.06762 0.331055 3.32607C0.331055 3.66648 0.344348 3.84232 0.379235 3.96409C0.405731 4.05657 0.44122 4.14965 0.458092 4.17091C0.481521 4.20044 0.721761 4.2096 1.4716 4.2096H2.45442L3.06146 4.83639L3.6685 5.46317L4.25542 4.85991C4.62751 4.47743 4.84233 4.23393 4.84233 4.19462C4.84233 4.15469 4.5399 3.82121 3.99292 3.258L3.14348 2.38342H1.83274H0.522002L0.456949 2.45467ZM8.91728 6.48971C8.83902 6.5691 8.75629 6.6801 8.73346 6.73634C8.70441 6.80787 8.69196 6.97823 8.69196 7.30385V7.76913H8.38543H8.07887L7.50059 7.16556C7.18251 6.83359 6.90411 6.56198 6.88188 6.56198C6.85969 6.56198 6.66564 6.74655 6.45069 6.9721C6.23575 7.19765 5.97358 7.47505 5.86808 7.58849L5.67626 7.79476L6.41451 8.59444C6.82053 9.03427 7.182 9.43245 7.21776 9.47925L7.28278 9.56436H7.98531H8.68781L8.6974 10.0519C8.70594 10.4862 8.71451 10.5551 8.77614 10.6838C8.81418 10.7633 8.88185 10.8533 8.92651 10.8839C8.98179 10.9218 9.06621 10.9399 9.19069 10.9407C9.35199 10.9416 9.39328 10.9283 9.53978 10.8283C9.63118 10.7659 10.0814 10.3271 10.5402 9.85327C10.9991 9.37942 11.4003 8.94006 11.4317 8.87691C11.4632 8.81374 11.4889 8.71624 11.4888 8.66025C11.4888 8.60422 11.4609 8.51143 11.4269 8.45398C11.3929 8.39656 11.1983 8.17371 10.9945 7.95874C10.7908 7.74381 10.3957 7.33694 10.1166 7.05459C9.83758 6.77227 9.54591 6.49717 9.4685 6.44328C9.36263 6.36961 9.29448 6.34532 9.19367 6.34532C9.07445 6.34532 9.04381 6.36132 8.91728 6.48971ZM58.9476 8.91436V9.71913H59.7295H60.5115V8.91436V8.1096H59.7295H58.9476V8.91436Z" fill="#828282"/>
</svg>
