<svg width="80" height="22" viewBox="0 0 80 22" fill="none" xmlns="http://www.w3.org/2000/svg">
<path d="M6.65377 10.3818H12.1581V17.7585C11.3852 18.0131 10.5854 18.2107 9.7587 18.3514C8.93215 18.492 8.00461 18.5624 6.97626 18.5624C5.47757 18.5624 4.2073 18.2676 3.16563 17.6779C2.13054 17.0817 1.34427 16.2208 0.806495 15.0952C0.268887 13.9629 0 12.5995 0 11.0049C0 9.47064 0.299063 8.14073 0.89736 7.01514C1.49549 5.88287 2.36588 5.00853 3.50836 4.39213C4.65084 3.76905 6.03541 3.45752 7.66188 3.45752C8.46164 3.45752 9.23458 3.53792 9.98057 3.69871C10.7333 3.8528 11.4223 4.06721 12.0472 4.34189L11.2004 6.33176C10.7031 6.09726 10.1453 5.89962 9.52691 5.73881C8.90855 5.57802 8.26676 5.49762 7.60137 5.49762C6.54621 5.49762 5.63553 5.72542 4.86932 6.181C4.10986 6.6366 3.52521 7.2798 3.11523 8.11058C2.70524 8.93465 2.50023 9.90949 2.50023 11.0351C2.50023 12.1271 2.66494 13.0852 2.99418 13.9093C3.3236 14.7335 3.83777 15.3765 4.5367 15.839C5.24239 16.2945 6.15308 16.5222 7.26874 16.5222C7.82658 16.5222 8.3003 16.4921 8.69023 16.4319C9.08 16.3715 9.43959 16.3045 9.76883 16.2308V12.442H6.65377V10.3818Z" fill="#838383"/>
<path d="M15.6865 18.3615V3.6687H18.1061V16.3113H24.3667V18.3615H15.6865Z" fill="#838383"/>
<path d="M36.0508 18.3615L34.6092 14.2814H28.9736L27.5321 18.3615H24.9814L30.4657 3.6084H33.1474L38.6216 18.3615H36.0508ZM33.9841 12.211L32.5828 8.19111C32.529 8.01691 32.4518 7.77237 32.351 7.45746C32.2501 7.13588 32.1493 6.81094 32.0485 6.48264C31.9478 6.14765 31.8637 5.86626 31.7965 5.63846C31.7292 5.91316 31.6453 6.22134 31.5445 6.56304C31.4504 6.89803 31.3562 7.21293 31.2621 7.50772C31.1748 7.80252 31.1075 8.03032 31.0605 8.19111L29.6492 12.211H33.9841Z" fill="#838383"/>
<path d="M49.8723 18.3615H39.2769V16.7034L46.7773 5.71887H39.5087V3.6687H49.6706V5.31687L42.1702 16.3113H49.8723V18.3615Z" fill="#838383"/>
<path d="M65.549 10.995C65.549 12.1272 65.4046 13.159 65.1156 14.0903C64.8333 15.0149 64.4065 15.8121 63.8352 16.4821C63.2639 17.1454 62.5483 17.658 61.688 18.0198C60.8277 18.3816 59.8196 18.5625 58.6635 18.5625C57.4875 18.5625 56.4658 18.3816 55.5988 18.0198C54.7385 17.658 54.0226 17.1421 53.4513 16.4721C52.8869 15.8022 52.4635 15.0014 52.1813 14.0702C51.8989 13.1389 51.7578 12.1071 51.7578 10.9749C51.7578 9.46069 52.0065 8.14081 52.5037 7.01522C53.0079 5.88295 53.7706 5.00528 54.7923 4.38217C55.8206 3.75239 57.1177 3.4375 58.6836 3.4375C60.216 3.4375 61.4897 3.74903 62.5044 4.37213C63.5193 4.99522 64.2788 5.8729 64.7828 7.00517C65.2935 8.13076 65.549 9.46069 65.549 10.995ZM54.2984 10.995C54.2984 12.1272 54.453 13.1088 54.7621 13.9396C55.0711 14.7637 55.545 15.4 56.1835 15.8491C56.8287 16.2913 57.6553 16.5122 58.6635 16.5122C59.6782 16.5122 60.505 16.2913 61.1435 15.8491C61.7821 15.4 62.2524 14.7637 62.5548 13.9396C62.8574 13.1088 63.0086 12.1272 63.0086 10.995C63.0086 9.27308 62.6624 7.92641 61.9702 6.95493C61.2847 5.97674 60.1891 5.48765 58.6836 5.48765C57.6756 5.48765 56.8454 5.70875 56.1935 6.15094C55.5484 6.59314 55.0711 7.22627 54.7621 8.05036C54.453 8.86775 54.2984 9.84928 54.2984 10.995Z" fill="#838383"/>
<path d="M79.9549 18.3615H77.1724L72.5855 11.6885L71.1339 12.8643V18.3615H68.7144V3.6687H71.1339V10.6935C71.4295 10.3317 71.7287 9.96994 72.031 9.60815C72.3335 9.24635 72.636 8.88456 72.9384 8.52277L77.0919 3.6687H79.824L74.3196 10.1006L79.9549 18.3615Z" fill="#838383"/>
</svg>
