<svg width="80" height="20" viewBox="0 0 80 20" fill="none" xmlns="http://www.w3.org/2000/svg">
<g clip-path="url(#clip0_2245_10621)">
<path fill-rule="evenodd" clip-rule="evenodd" d="M3.83584 16.8111C4.31217 17.5389 5.12134 17.9028 6.26336 17.9028C7.40539 17.9028 8.34171 17.5389 9.07236 16.8111C9.80944 16.0776 10.3012 15.0205 10.5476 13.6395L11.8299 6.45383C12.061 5.15881 11.936 4.17607 11.4548 3.50565C10.9791 2.83521 10.1648 2.5 9.01195 2.5C7.8591 2.5 6.92247 2.83521 6.20205 3.50565C5.48705 4.17607 5.014 5.15881 4.78291 6.45383L4.61121 7.416H0.500432V8.94268H4.33878L3.92704 11.25H-0.000488281V12.7766H3.65461L3.50065 13.6395C3.25421 15.0205 3.36595 16.0776 3.83584 16.8111ZM7.67191 13.7856C7.51341 14.6738 7.21767 15.1179 6.78467 15.1179C6.53571 15.1179 6.37499 15.0176 6.30253 14.817C6.23109 14.6108 6.2373 14.2726 6.32115 13.8028L7.63715 6.42805C7.77315 5.66593 8.07929 5.28488 8.55558 5.28488C8.97776 5.28488 9.12238 5.65734 8.98945 6.40226L7.67191 13.7856ZM14.1625 2.63752L11.4631 17.7653H14.3046L15.6113 10.442L15.8634 17.7653H18.8266L18.3577 9.56533L21.1933 2.63752H18.3193L15.9065 8.6972L16.9878 2.63752H14.1625ZM23.409 17.9028C22.0451 17.9028 21.1421 17.5331 20.7004 16.794C20.264 16.0548 20.1735 14.9689 20.4292 13.5364L21.1378 9.56533C21.3301 8.48805 21.5984 7.59128 21.9427 6.875C22.2869 6.15873 22.7615 5.62295 23.3661 5.26769C23.9708 4.91241 24.7548 4.73478 25.7181 4.73478C26.3893 4.73478 26.9676 4.86084 27.453 5.11296C27.9439 5.3651 28.3 5.73469 28.5217 6.22176C28.7433 6.70883 28.7912 7.30476 28.6654 8.00958L28.3142 9.9779H25.3508L25.6729 8.17289C25.7261 7.87491 25.7299 7.62565 25.6846 7.4251C25.6402 7.21881 25.4828 7.11566 25.2122 7.11566C24.7359 7.11566 24.4337 7.4738 24.3059 8.19008L23.1908 14.4389C23.1439 14.7025 23.1545 14.946 23.2228 15.1695C23.2923 15.3873 23.4515 15.4961 23.7004 15.4961C23.9548 15.4961 24.1497 15.39 24.2848 15.178C24.4265 14.9603 24.523 14.7081 24.5741 14.4216L24.9607 12.2557H27.9077L27.5058 14.5076C27.379 15.2181 27.1186 15.8284 26.7245 16.3384C26.3368 16.8426 25.8564 17.2295 25.2833 17.4988C24.7104 17.7681 24.0855 17.9028 23.409 17.9028ZM31.1376 2.63752L28.4381 17.7653H31.4258L33.1667 8.00958C33.2117 7.75745 33.3073 7.5397 33.4538 7.35634C33.6055 7.17298 33.7815 7.08129 33.9818 7.08129C34.22 7.08129 34.3774 7.1701 34.4539 7.34774C34.5359 7.52538 34.5517 7.75459 34.5017 8.03536L32.7654 17.7653H35.7043L37.4759 7.83768C37.6446 6.89219 37.5869 6.13868 37.3028 5.57711C37.0188 5.01555 36.4546 4.73478 35.6103 4.73478C35.1773 4.73478 34.7774 4.85224 34.4108 5.08718C34.0451 5.31639 33.7408 5.67166 33.498 6.153L34.1253 2.63752H31.1376ZM39.5397 17.9028C38.8632 17.9028 38.376 17.7366 38.078 17.4043C37.7855 17.0719 37.6259 16.6164 37.5994 16.0376C37.5727 15.4589 37.6249 14.8028 37.7557 14.0693C37.8959 13.2843 38.0835 12.6424 38.3185 12.1439C38.5546 11.6397 38.8772 11.2271 39.2864 10.9062C39.7007 10.5853 40.2392 10.3131 40.9015 10.0896L42.8204 9.4364L43.0566 8.11273C43.1804 7.41936 43.0284 7.07269 42.6008 7.07269C42.2111 7.07269 41.9661 7.35348 41.8659 7.91503L41.7279 8.6886H38.9026C38.9054 8.64276 38.9129 8.58546 38.9252 8.5167L38.9697 8.26744C39.1987 6.98388 39.645 6.07564 40.3084 5.54273C40.9782 5.00409 41.9328 4.73478 43.1723 4.73478C43.8218 4.73478 44.3817 4.85798 44.8518 5.10438C45.3231 5.34504 45.6651 5.70318 45.8779 6.17879C46.0961 6.65439 46.1428 7.24174 46.0181 7.94081L44.265 17.7653H41.3747L41.6477 16.2353C41.4109 16.7739 41.1046 17.1865 40.7287 17.473C40.3528 17.7595 39.9565 17.9028 39.5397 17.9028ZM41.1108 15.5133C41.349 15.5133 41.5303 15.4073 41.6547 15.1953C41.7791 14.9833 41.8634 14.754 41.9073 14.5076L42.5485 10.9148C42.1173 11.0867 41.7672 11.3044 41.4983 11.568C41.2304 11.8259 41.0513 12.2069 40.9614 12.7113L40.6654 14.3701C40.5294 15.1323 40.6779 15.5133 41.1108 15.5133ZM48.1849 4.8723L45.8842 17.7653H48.7906L50.4088 8.6972C50.4517 8.45654 50.5083 8.21586 50.5782 7.9752C50.6493 7.7288 50.7505 7.52538 50.882 7.36493C51.0199 7.19875 51.1997 7.11566 51.4217 7.11566C51.6598 7.11566 51.8082 7.22454 51.8668 7.44229C51.9264 7.6543 51.9337 7.88638 51.8887 8.13851L50.1708 17.7653H53.0366L54.8113 7.82048C54.982 6.86354 54.9244 6.11003 54.6382 5.55993C54.3575 5.00982 53.795 4.73478 52.9507 4.73478C52.4257 4.73478 51.9832 4.90955 51.6231 5.25909C51.2694 5.6029 50.9945 6.0212 50.7984 6.514L51.0913 4.8723H48.1849ZM57.5614 20C56.9985 20 56.5196 19.9685 56.125 19.9055C55.7347 19.8481 55.3937 19.7421 55.102 19.5874C54.8102 19.4328 54.5297 19.215 54.2605 18.9341L55.5603 17.155C56.1897 17.6019 56.8588 17.8254 57.5679 17.8254C58.0333 17.8254 58.4079 17.6678 58.6913 17.3526C58.9749 17.0375 59.1617 16.6278 59.2517 16.1235L59.4772 14.86C59.0869 15.7425 58.3885 16.1838 57.3818 16.1838C56.8026 16.1838 56.3606 16.0376 56.0555 15.7454C55.7504 15.4531 55.5611 15.0578 55.4877 14.5591C55.4144 14.0606 55.4323 13.5049 55.5418 12.8918L56.3684 8.25884C56.4922 7.56549 56.6715 6.95522 56.9063 6.42805C57.1421 5.89514 57.4625 5.4797 57.8675 5.18173C58.2724 4.88376 58.7915 4.73478 59.4248 4.73478C59.9607 4.73478 60.3519 4.87803 60.5984 5.16454C60.8504 5.45105 60.9843 5.83784 61.0002 6.3249L61.2595 4.8723H64.2227L62.2503 15.9259C61.9895 17.387 61.484 18.4299 60.734 19.0545C59.9883 19.6849 58.9306 20 57.5614 20ZM58.9731 13.863C59.4278 13.863 59.7328 13.4275 59.8882 12.5565L60.6705 8.17289C60.7123 7.93795 60.6904 7.69729 60.6045 7.45089C60.5239 7.20449 60.3727 7.08129 60.1508 7.08129C59.8693 7.08129 59.6735 7.19303 59.5632 7.4165C59.454 7.63425 59.3739 7.88638 59.3228 8.17289L58.5405 12.5565C58.4853 12.8659 58.4678 13.161 58.4881 13.4418C58.5137 13.7226 58.6755 13.863 58.9731 13.863ZM64.9645 17.387C65.4174 17.7309 66.0767 17.9028 66.9427 17.9028C67.8628 17.9028 68.6173 17.7395 69.206 17.4129C69.8011 17.0805 70.2673 16.5905 70.6049 15.943C70.9487 15.2898 71.2066 14.4819 71.3784 13.5191L71.5087 12.7885H68.6185L68.3977 14.0263C68.3179 14.4733 68.215 14.8371 68.0891 15.1179C67.9644 15.3929 67.7504 15.5305 67.4473 15.5305C67.2362 15.5305 67.0947 15.4589 67.0228 15.3156C66.9564 15.1724 66.929 14.9919 66.9408 14.7741C66.9537 14.5506 66.9805 14.3243 67.0214 14.095L67.4663 11.6024H71.688C71.7791 11.2128 71.9259 10.4506 72.1284 9.31606L72.2956 8.37918C72.7291 5.94958 71.7768 4.73478 69.4387 4.73478C68.302 4.73478 67.3538 5.0442 66.5938 5.66306C65.835 6.2762 65.3486 7.18156 65.1349 8.37918L64.2101 13.5621C64.0475 14.4733 64.0193 15.2525 64.1258 15.9C64.2321 16.5475 64.5117 17.0433 64.9645 17.387ZM69.1032 10.0725H67.723L68.0329 8.3362C68.1187 7.85486 68.2414 7.51678 68.4006 7.32195C68.5652 7.12713 68.7639 7.02971 68.9966 7.02971C69.2132 7.02971 69.3571 7.13286 69.4286 7.33915C69.5011 7.5397 69.4959 7.87205 69.413 8.3362L69.1032 10.0725ZM72.1749 17.7653L74.4756 4.8723H77.4308L77.1747 6.30771C77.4044 5.80919 77.7229 5.41954 78.1302 5.13875C78.5375 4.85798 79.0118 4.71759 79.553 4.71759L79.0945 7.28758C78.8562 7.28758 78.5671 7.31623 78.2266 7.37353C77.8873 7.4251 77.5844 7.49959 77.318 7.597C77.0527 7.68869 76.9098 7.79183 76.8894 7.90644L75.1301 17.7653H72.1749Z" fill="#838383"/>
</g>
<defs>
<clipPath id="clip0_2245_10621">
<rect width="80" height="20" fill="white"/>
</clipPath>
</defs>
</svg>
