<svg width="80" height="21" viewBox="0 0 80 21" fill="none" xmlns="http://www.w3.org/2000/svg">
<g clip-path="url(#clip0_2245_10663)">
<path d="M21.0242 7.44312H29.1244V9.0585H25.9394V18.1394H24.188V9.0585H21.0171V7.44312H21.0242ZM28.7784 10.3946H30.2756V11.8892H30.3038C30.3532 11.6778 30.4451 11.474 30.5792 11.2778C30.7134 11.0815 30.8758 10.8928 31.0665 10.7343C31.2572 10.5682 31.4691 10.4399 31.7021 10.3342C31.9352 10.2361 32.1753 10.1832 32.4154 10.1832C32.599 10.1832 32.7332 10.1908 32.8038 10.1983C32.8744 10.2059 32.9451 10.221 33.0227 10.2285V11.8741C32.9097 11.8515 32.7968 11.8364 32.6767 11.8213C32.5566 11.8062 32.4436 11.7986 32.3306 11.7986C32.0623 11.7986 31.8081 11.859 31.5679 11.9722C31.3278 12.0855 31.123 12.2591 30.9465 12.478C30.7699 12.7044 30.6287 12.9762 30.5227 13.3083C30.4168 13.6405 30.3674 14.0179 30.3674 14.4481V18.1318H28.7713V10.3946H28.7784ZM40.3603 18.1394H38.7925V17.0599H38.7643C38.5665 17.4525 38.277 17.762 37.8886 17.996C37.5001 18.23 37.1047 18.3507 36.7021 18.3507C35.7487 18.3507 35.0566 18.1016 34.6329 17.5959C34.2092 17.0901 33.9973 16.3277 33.9973 15.3087V10.3946H35.5934V15.1426C35.5934 15.822 35.7134 16.3051 35.9606 16.5844C36.2007 16.8637 36.5468 17.0071 36.9846 17.0071C37.3236 17.0071 37.599 16.9543 37.825 16.841C38.051 16.7278 38.2346 16.5844 38.3688 16.3957C38.51 16.2145 38.6089 15.988 38.6725 15.7314C38.736 15.4747 38.7643 15.1955 38.7643 14.8935V10.4021H40.3603V18.1394ZM43.0792 15.6559C43.1287 16.1541 43.3052 16.5013 43.6089 16.7052C43.9196 16.9014 44.2869 17.0071 44.7177 17.0071C44.866 17.0071 45.0355 16.992 45.2261 16.9694C45.4168 16.9467 45.6004 16.8939 45.7629 16.8259C45.9323 16.758 46.0665 16.6523 46.1795 16.5164C46.2855 16.3806 46.3349 16.207 46.3278 15.988C46.3208 15.7691 46.2431 15.588 46.1018 15.4521C45.9606 15.3087 45.784 15.203 45.5651 15.1124C45.3462 15.0294 45.099 14.9539 44.8165 14.8935C44.534 14.8331 44.2516 14.7652 43.962 14.6972C43.6654 14.6293 43.3758 14.5387 43.1004 14.4406C42.825 14.3425 42.5778 14.2066 42.3589 14.033C42.14 13.8669 41.9634 13.648 41.8363 13.3838C41.7021 13.1196 41.6386 12.795 41.6386 12.4025C41.6386 11.9798 41.7374 11.6325 41.9281 11.3457C42.1188 11.0589 42.366 10.8324 42.6555 10.6588C42.9521 10.4852 43.277 10.3644 43.6371 10.2889C43.9973 10.221 44.3434 10.1832 44.6682 10.1832C45.0425 10.1832 45.4027 10.2285 45.7417 10.3116C46.0807 10.3946 46.3914 10.5305 46.6668 10.7267C46.9422 10.9154 47.1682 11.1645 47.3518 11.4665C47.5355 11.7684 47.6484 12.1383 47.6979 12.5686H46.0312C45.9535 12.1609 45.784 11.8816 45.5086 11.7458C45.2332 11.6024 44.9154 11.5344 44.5623 11.5344C44.4493 11.5344 44.3151 11.542 44.1597 11.5646C44.0044 11.5873 43.8631 11.625 43.7219 11.6778C43.5877 11.7307 43.4747 11.8137 43.3758 11.9194C43.284 12.0251 43.2346 12.1609 43.2346 12.3346C43.2346 12.5459 43.3052 12.712 43.4394 12.8403C43.5736 12.9686 43.7501 13.0743 43.9691 13.1649C44.188 13.2479 44.4352 13.3234 44.7177 13.3838C45.0001 13.4442 45.2897 13.5121 45.5863 13.5801C45.8758 13.648 46.1583 13.7386 46.4408 13.8367C46.7233 13.9348 46.9705 14.0707 47.1894 14.2443C47.4083 14.418 47.5849 14.6293 47.7191 14.886C47.8533 15.1426 47.9239 15.4672 47.9239 15.8446C47.9239 16.3051 47.825 16.6901 47.6273 17.0146C47.4295 17.3317 47.1753 17.5959 46.8645 17.7921C46.5538 17.9884 46.2007 18.1394 45.8194 18.23C45.438 18.3205 45.0566 18.3658 44.6823 18.3658C44.2233 18.3658 43.7996 18.313 43.4112 18.1998C43.0227 18.0865 42.6838 17.9205 42.4013 17.7016C42.1188 17.4751 41.8928 17.1958 41.7304 16.8637C41.5679 16.5315 41.4832 16.1315 41.4691 15.671H43.0792V15.6559ZM48.3476 10.3946H49.5552V8.06964H51.1513V10.3946H52.592V11.6703H51.1513V15.8069C51.1513 15.988 51.1583 16.139 51.1725 16.2749C51.1866 16.4032 51.2219 16.5164 51.2713 16.607C51.3208 16.6976 51.3984 16.7655 51.5044 16.8108C51.6103 16.8561 51.7445 16.8788 51.9281 16.8788C52.0411 16.8788 52.1541 16.8788 52.2671 16.8712C52.3801 16.8637 52.4931 16.8486 52.6061 16.8184V18.1394C52.4295 18.162 52.253 18.1771 52.0905 18.1998C51.921 18.2224 51.7516 18.23 51.575 18.23C51.1513 18.23 50.8123 18.1847 50.5581 18.1016C50.3038 18.0186 50.099 17.8903 49.9578 17.7242C49.8095 17.5581 49.7177 17.3543 49.6612 17.1052C49.6117 16.8561 49.5764 16.5693 49.5694 16.2522V11.6854H48.3617V10.3946H48.3476ZM53.7219 10.3946H55.2332V11.4438H55.2614C55.4874 10.9909 55.7982 10.6739 56.2007 10.4776C56.6032 10.2814 57.034 10.1832 57.5072 10.1832C58.0792 10.1832 58.5736 10.2889 58.9973 10.5078C59.4211 10.7192 59.7742 11.0136 60.0566 11.391C60.3391 11.7684 60.5439 12.2062 60.6852 12.7044C60.8264 13.2026 60.897 13.7386 60.897 14.3047C60.897 14.8256 60.8335 15.3313 60.7064 15.8144C60.5792 16.3051 60.3886 16.7354 60.1343 17.1128C59.8801 17.4902 59.5552 17.7846 59.1597 18.0111C58.7643 18.2375 58.3052 18.3507 57.7685 18.3507C57.5355 18.3507 57.3024 18.3281 57.0694 18.2828C56.8363 18.2375 56.6103 18.162 56.3984 18.0639C56.1866 17.9658 55.9818 17.8374 55.8052 17.6789C55.6216 17.5204 55.4733 17.3392 55.3462 17.1354H55.3179V21.0003H53.7219V10.3946ZM59.301 14.2745C59.301 13.9273 59.2586 13.5876 59.1739 13.2555C59.0891 12.9233 58.962 12.6365 58.7925 12.3799C58.623 12.1232 58.4112 11.9194 58.164 11.7684C57.9097 11.6175 57.6202 11.5344 57.2953 11.5344C56.6244 11.5344 56.116 11.7835 55.777 12.2817C55.438 12.7799 55.2685 13.4442 55.2685 14.2745C55.2685 14.6671 55.3109 15.0294 55.4027 15.3615C55.4945 15.6937 55.6216 15.9805 55.8052 16.2221C55.9818 16.4636 56.1936 16.6523 56.4408 16.7882C56.688 16.9316 56.9776 16.9995 57.3024 16.9995C57.6696 16.9995 57.9733 16.9165 58.2275 16.758C58.4818 16.5995 58.6866 16.3881 58.849 16.139C59.0114 15.8824 59.1315 15.5955 59.2021 15.2709C59.2657 14.9464 59.301 14.6142 59.301 14.2745ZM62.1188 7.44312H63.7148V9.0585H62.1188V7.44312ZM62.1188 10.3946H63.7148V18.1394H62.1188V10.3946ZM65.1414 7.44312H66.7374V18.1394H65.1414V7.44312ZM71.6315 18.3507C71.0524 18.3507 70.5369 18.2451 70.0849 18.0412C69.6329 17.8374 69.2516 17.5506 68.9338 17.1958C68.623 16.8335 68.3829 16.4032 68.2205 15.905C68.0581 15.4068 67.9733 14.8558 67.9733 14.2594C67.9733 13.6706 68.0581 13.1272 68.2205 12.629C68.3829 12.1308 68.623 11.7005 68.9338 11.3382C69.2445 10.9758 69.6329 10.6965 70.0849 10.4927C70.5369 10.2889 71.0524 10.1832 71.6315 10.1832C72.2106 10.1832 72.7261 10.2889 73.1781 10.4927C73.6301 10.6965 74.0114 10.9834 74.3292 11.3382C74.64 11.7005 74.8801 12.1308 75.0425 12.629C75.2049 13.1272 75.2897 13.6706 75.2897 14.2594C75.2897 14.8558 75.2049 15.4068 75.0425 15.905C74.8801 16.4032 74.64 16.8335 74.3292 17.1958C74.0185 17.5581 73.6301 17.8374 73.1781 18.0412C72.7261 18.2451 72.2106 18.3507 71.6315 18.3507ZM71.6315 16.9995C71.9846 16.9995 72.2953 16.9165 72.5566 16.758C72.8179 16.5995 73.0298 16.3881 73.1993 16.1315C73.3688 15.8748 73.4888 15.5804 73.5736 15.2558C73.6513 14.9313 73.6936 14.5991 73.6936 14.2594C73.6936 13.9273 73.6513 13.6027 73.5736 13.2706C73.4959 12.9384 73.3688 12.6516 73.1993 12.3949C73.0298 12.1383 72.8179 11.9345 72.5566 11.776C72.2953 11.6175 71.9846 11.5344 71.6315 11.5344C71.2784 11.5344 70.9677 11.6175 70.7064 11.776C70.4451 11.9345 70.2332 12.1458 70.0637 12.3949C69.8942 12.6516 69.7742 12.9384 69.6894 13.2706C69.6117 13.6027 69.5694 13.9273 69.5694 14.2594C69.5694 14.5991 69.6117 14.9313 69.6894 15.2558C69.7671 15.5804 69.8942 15.8748 70.0637 16.1315C70.2332 16.3881 70.4451 16.5995 70.7064 16.758C70.9677 16.9241 71.2784 16.9995 71.6315 16.9995ZM75.7558 10.3946H76.9634V8.06964H78.5595V10.3946H80.0002V11.6703H78.5595V15.8069C78.5595 15.988 78.5665 16.139 78.5807 16.2749C78.5948 16.4032 78.6301 16.5164 78.6795 16.607C78.729 16.6976 78.8066 16.7655 78.9126 16.8108C79.0185 16.8561 79.1527 16.8788 79.3363 16.8788C79.4493 16.8788 79.5623 16.8788 79.6753 16.8712C79.7883 16.8637 79.9013 16.8486 80.0143 16.8184V18.1394C79.8377 18.162 79.6612 18.1771 79.4987 18.1998C79.3292 18.2224 79.1598 18.23 78.9832 18.23C78.5595 18.23 78.2205 18.1847 77.9663 18.1016C77.712 18.0186 77.5072 17.8903 77.366 17.7242C77.2177 17.5581 77.1259 17.3543 77.0694 17.1052C77.0199 16.8561 76.9846 16.5693 76.9776 16.2522V11.6854H75.7699V10.3946H75.7558Z" fill="#828282"/>
<path d="M19.1596 7.44285H11.8432L9.58333 0L7.31638 7.44285L0 7.4353L5.92514 12.0399L3.65819 19.4752L9.58333 14.8781L15.5014 19.4752L13.2415 12.0399L19.1596 7.44285Z" fill="#828282"/>
<path d="M13.7502 13.7234L13.2417 12.04L9.5835 14.8783L13.7502 13.7234Z" fill="#5A5A5A"/>
</g>
<defs>
<clipPath id="clip0_2245_10663">
<rect width="80" height="21" fill="white"/>
</clipPath>
</defs>
</svg>
